<svg width="32" height="32" viewBox="0 0 32 32" fill="none" xmlns="http://www.w3.org/2000/svg">
<path d="M23.6869 12.3126V21.8737C23.6869 22.2608 23.3727 22.575 22.9855 22.575H10.0355C9.64827 22.575 9.33411 22.2608 9.33411 21.8737V12.3126C9.33411 11.9249 9.64827 11.6113 10.0355 11.6113H22.9855C23.3727 11.6113 23.6869 11.9249 23.6869 12.3126Z" fill="#808891"/>
<path d="M9.46704 16.9058V12.3126C9.46704 11.9991 9.722 11.7442 10.0354 11.7442H22.9855C23.129 11.7442 23.2601 11.7975 23.3602 11.8854C23.3247 11.8799 23.2884 11.877 23.2514 11.877H10.3012C9.914 11.877 9.59992 12.1907 9.59992 12.5783V16.8786C9.55568 16.8822 9.51128 16.8913 9.46704 16.9058Z" fill="#C6C9CD"/>
<path d="M24.5472 12.3329V21.8533C24.5472 22.2518 24.224 22.575 23.8255 22.575H22.9855C23.3727 22.575 23.6868 22.2608 23.6868 21.8737V12.3126C23.6868 11.9249 23.3727 11.6113 22.9855 11.6113H23.8255C24.224 11.6113 24.5472 11.9344 24.5472 12.3329Z" fill="#808891"/>
<path d="M24.4142 21.1427H23.8197V12.3125C23.8197 12.3117 23.8197 12.3109 23.8197 12.3101C23.8197 12.31 23.8197 12.31 23.8197 12.3099C23.8197 12.3091 23.8197 12.3083 23.8197 12.3076C23.8197 12.3075 23.8197 12.3074 23.8197 12.3073C23.8197 12.3065 23.8197 12.3057 23.8197 12.3049C23.8197 12.3049 23.8197 12.3048 23.8197 12.3047C23.8197 12.304 23.8197 12.3032 23.8197 12.3025C23.8197 12.3023 23.8197 12.3022 23.8197 12.3021C23.8197 12.3013 23.8197 12.3006 23.8197 12.2998C23.8197 12.2997 23.8197 12.2997 23.8197 12.2995C23.8197 12.2988 23.8196 12.2981 23.8196 12.2973C23.8196 12.2972 23.8196 12.297 23.8196 12.2969C23.8196 12.2962 23.8196 12.2954 23.8196 12.2947C23.8196 12.2946 23.8196 12.2945 23.8196 12.2944C23.8195 12.2937 23.8195 12.2929 23.8195 12.2921C23.8195 12.292 23.8195 12.292 23.8195 12.2918C23.8195 12.2911 23.8194 12.2903 23.8194 12.2895C23.8194 12.2894 23.8194 12.2894 23.8194 12.2893C23.8194 12.2885 23.8193 12.2877 23.8193 12.2869V12.2869C23.8193 12.2852 23.8193 12.2835 23.8192 12.2818C23.8192 12.2809 23.8191 12.2801 23.8191 12.2793C23.819 12.2785 23.819 12.2776 23.8189 12.2768C23.8189 12.2768 23.8189 12.2767 23.8189 12.2766C23.8189 12.2758 23.8189 12.275 23.8189 12.2742V12.2741C23.8189 12.2733 23.8188 12.2725 23.8188 12.2717V12.2716C23.8187 12.2707 23.8186 12.2699 23.8186 12.2691C23.8131 12.1613 23.7869 12.0589 23.7441 11.9657H23.8255C24.0661 11.9657 24.2792 12.0833 24.4103 12.2642C24.4129 12.2868 24.4142 12.3097 24.4142 12.3329V21.1427Z" fill="#7A667D"/>
<path d="M15.6129 23.989H17.4589V22.5749H15.6129V23.989Z" fill="#DAE2ED"/>
<path d="M15.6129 23.989H17.4589V22.5749H15.6129V23.989Z" fill="#DAE2ED"/>
<path d="M17.459 23.989H18.2712V22.5749H17.459V23.989Z" fill="#DAE2ED"/>
<path d="M17.5919 23.8561H18.1382V22.7078H17.5919V23.8561Z" fill="#B8A5BD"/>
<path d="M19.523 24.9194H13.498L13.8291 24.147C13.8701 24.0511 13.9644 23.9891 14.0686 23.9891H19.1243L19.523 24.9194Z" fill="#DAE2ED"/>
<path d="M14.1215 24.2853V24.2582C14.1215 24.21 14.112 24.164 14.0948 24.1219H19.0367L19.0935 24.2546H14.2134C14.1796 24.2546 14.1475 24.2658 14.1215 24.2853Z" fill="#EEF2F7"/>
<path d="M20.3647 24.9194H19.523L19.1243 23.9891H19.7481C19.8803 23.9891 19.9998 24.0679 20.0519 24.1894L20.3647 24.9194Z" fill="#DAE2ED"/>
<path d="M20.3074 24.7858H19.6103L19.2688 23.989H19.7481C19.8802 23.989 19.9998 24.0678 20.0518 24.1893L20.3074 24.7858Z" fill="#B8A5BD"/>
<path d="M10.0354 11.7441C9.72197 11.7441 9.46701 11.9991 9.46701 12.3125V21.8737C9.46701 22.187 9.72197 22.4421 10.0354 22.4421H22.9855C23.2989 22.4421 23.5539 22.187 23.5539 21.8737V12.3125C23.5539 11.9991 23.2989 11.7441 22.9855 11.7441H10.0354ZM22.9855 22.7078H10.0354C9.57541 22.7078 9.20117 22.3336 9.20117 21.8737V12.3125C9.20117 11.8525 9.57541 11.4783 10.0354 11.4783H22.9855C23.4455 11.4783 23.8197 11.8525 23.8197 12.3125V21.8737C23.8197 22.3336 23.4455 22.7078 22.9855 22.7078Z" fill="#6B184E"/>
<path d="M23.5956 22.4421H23.8255C24.1502 22.4421 24.4143 22.1779 24.4143 21.8533V12.3329C24.4143 12.0082 24.1502 11.7441 23.8255 11.7441H23.5956C23.7346 11.8932 23.8198 12.0931 23.8198 12.3125V21.8737C23.8198 22.093 23.7346 22.2929 23.5956 22.4421ZM23.8255 22.7078H22.9855C22.9122 22.7078 22.8527 22.6483 22.8527 22.5749C22.8527 22.5015 22.9122 22.4421 22.9855 22.4421C23.299 22.4421 23.5539 22.187 23.5539 21.8737V12.3125C23.5539 11.9991 23.299 11.7441 22.9855 11.7441C22.9122 11.7441 22.8527 11.6846 22.8527 11.6113C22.8527 11.5378 22.9122 11.4783 22.9855 11.4783H23.8255C24.2967 11.4783 24.6801 11.8617 24.6801 12.3329V21.8533C24.6801 22.3245 24.2967 22.7078 23.8255 22.7078Z" fill="#6B184E"/>
<path d="M15.7459 23.8562H17.326V22.7079H15.7459V23.8562ZM17.4589 24.1219H15.6131C15.5396 24.1219 15.4801 24.0625 15.4801 23.9891V22.575C15.4801 22.5015 15.5396 22.4421 15.6131 22.4421H17.4589C17.5323 22.4421 17.5919 22.5015 17.5919 22.575V23.9891C17.5919 24.0625 17.5323 24.1219 17.4589 24.1219Z" fill="#6B184E"/>
<path d="M17.5919 23.8562H18.1382V22.7079H17.5919V23.8562ZM18.2712 24.1219H17.4589C17.3856 24.1219 17.326 24.0625 17.326 23.9891V22.575C17.326 22.5015 17.3856 22.4421 17.4589 22.4421H18.2712C18.3445 22.4421 18.404 22.5015 18.404 22.575V23.9891C18.404 24.0625 18.3445 24.1219 18.2712 24.1219Z" fill="#6B184E"/>
<path d="M13.6995 24.7865H19.3214L19.0367 24.1219H14.0686C14.0174 24.1219 13.9713 24.1523 13.9512 24.1993L13.6995 24.7865ZM19.523 25.0522H13.498C13.4534 25.0522 13.4116 25.0298 13.3871 24.9926C13.3625 24.9552 13.3583 24.9081 13.3759 24.867L13.7069 24.0946C13.769 23.9498 13.911 23.8562 14.0686 23.8562H19.1243C19.1775 23.8562 19.2255 23.8878 19.2464 23.9367L19.6451 24.867C19.6627 24.9081 19.6585 24.9552 19.6339 24.9926C19.6094 25.0298 19.5676 25.0522 19.523 25.0522Z" fill="#6B184E"/>
<path d="M22.5974 21.7961H12.6259C12.6175 21.7298 12.6076 21.6633 12.5962 21.5967H22.5142C22.5425 21.5967 22.5703 21.5944 22.5974 21.59V21.7961ZM23.1796 21.1427H23.0215C23.0236 21.1242 23.0246 21.1054 23.0246 21.0864V12.9834C23.1187 13.0538 23.1796 13.1664 23.1796 13.293V21.1427Z" fill="#C6C9CD"/>
<path d="M19.6106 24.7865H20.1631L19.9297 24.2417C19.8985 24.169 19.8272 24.1219 19.7481 24.1219H19.3258L19.6106 24.7865ZM20.3647 25.0522H19.523C19.4698 25.0522 19.4218 25.0206 19.4008 24.9717L19.0021 24.0414C18.9845 24.0003 18.9887 23.9532 19.0133 23.9159C19.0379 23.8786 19.0796 23.8562 19.1242 23.8562H19.7481C19.9337 23.8562 20.1008 23.9663 20.174 24.137L20.4869 24.867C20.5045 24.9081 20.5002 24.9552 20.4757 24.9926C20.451 25.0298 20.4094 25.0522 20.3647 25.0522Z" fill="#6B184E"/>
<path d="M22.8916 12.9514V21.0864C22.8916 21.1201 22.8872 21.1524 22.8792 21.183C22.8367 21.3447 22.6896 21.4639 22.5142 21.4639H11.1027C10.894 21.4639 10.7252 21.2951 10.7252 21.0864V12.9514C10.7252 12.7431 10.894 12.5739 11.1027 12.5739H22.5142C22.7229 12.5739 22.8916 12.7431 22.8916 12.9514Z" fill="#FF6CA8"/>
<path d="M22.7588 13.3137C22.693 13.2576 22.6076 13.2238 22.5142 13.2238H19.9837L19.6853 12.7069H22.5051C22.6451 12.7069 22.7588 12.8208 22.7588 12.9606V13.3137ZM18.2839 13.2238H15.3715L15.0731 12.7069H17.9855L18.2839 13.2238ZM13.6716 13.2238H12.3143L12.0159 12.7069H13.3732L13.6716 13.2238Z" fill="#D2538D"/>
<path d="M16.995 21.3309H13.9333L10.858 16.0045V13.3136C10.9239 13.2576 11.0092 13.2238 11.1026 13.2238H12.3142L16.995 21.3309Z" fill="#FF89B9"/>
<path d="M10.858 13.3136V12.9515C10.858 12.8166 10.9677 12.707 11.1026 12.707H12.0158L12.3142 13.2238H11.1026C11.0092 13.2238 10.9239 13.2576 10.858 13.3136Z" fill="#DB75A4"/>
<path d="M20.0519 21.3309H18.352L13.6716 13.2238H15.3715L20.0519 21.3309Z" fill="#FF89B9"/>
<path d="M15.3714 13.2238H13.6716L13.3732 12.7069H15.0731L15.3714 13.2238Z" fill="#DB75A4"/>
<path d="M22.7588 20.9744L18.2838 13.2239H19.9837L22.7588 18.0304V20.9744Z" fill="#FF89B9"/>
<path d="M19.9837 13.2238H18.2839L17.9855 12.7069H19.6853L19.9837 13.2238Z" fill="#DB75A4"/>
<path d="M10.5159 12.707C10.3759 12.707 10.2622 12.8208 10.2622 12.9607V21.0773C10.2622 21.2172 10.3759 21.331 10.5159 21.331H22.5051C22.6451 21.331 22.7588 21.2172 22.7588 21.0773V12.9607C22.7588 12.8208 22.6451 12.707 22.5051 12.707H10.5159ZM22.5051 21.5967H10.5159C10.2294 21.5967 9.99634 21.3638 9.99634 21.0773V12.9607C9.99634 12.6743 10.2294 12.4411 10.5159 12.4411H22.5051C22.7916 12.4411 23.0247 12.6743 23.0247 12.9607V21.0773C23.0247 21.3638 22.7916 21.5967 22.5051 21.5967Z" fill="#6B184E"/>
<path d="M11.1027 12.707C10.9678 12.707 10.8581 12.8167 10.8581 12.9515V21.0864C10.8581 21.2213 10.9678 21.331 11.1027 21.331H22.5143C22.6492 21.331 22.7588 21.2213 22.7588 21.0864V12.9515C22.7588 12.8167 22.6492 12.707 22.5143 12.707H11.1027ZM22.5143 21.5967H11.1027C10.8212 21.5967 10.5923 21.3679 10.5923 21.0864V12.9515C10.5923 12.6701 10.8212 12.4411 11.1027 12.4411H22.5143C22.7957 12.4411 23.0247 12.6701 23.0247 12.9515V21.0864C23.0247 21.3679 22.7957 21.5967 22.5143 21.5967Z" fill="#6B184E"/>
<path d="M10.5923 14.9958H10.2622V12.9606C10.2622 12.8208 10.376 12.707 10.5159 12.707H10.6548C10.615 12.7796 10.5923 12.863 10.5923 12.9515V14.9958Z" fill="#7A667D"/>
<path d="M10.2622 14.9958H10.1293V12.9186L10.3412 12.5741H10.7594C10.7177 12.6122 10.6822 12.657 10.6548 12.707H10.5158C10.3759 12.707 10.2622 12.8208 10.2622 12.9606V14.9958Z" fill="#6B184E"/>
<path d="M10.7252 14.9958H10.5923V12.9515C10.5923 12.863 10.615 12.7796 10.6548 12.707C10.6822 12.657 10.7177 12.6122 10.7595 12.5741H10.8729L10.7252 12.9515V14.9958Z" fill="#6B184E"/>
<path d="M15.746 23.1473H17.3261V22.7078H15.746V23.1473Z" fill="#B8A5BD"/>
<path d="M17.326 23.1473V22.7078H15.746V23.1473H15.6129V22.575H17.326V23.1473Z" fill="#6B184E"/>
<path d="M17.4589 23.1473H17.326V22.575H17.4589V23.1473Z" fill="#6B184E"/>
<path d="M13.7601 24.9249H11.5924C11.4662 24.9249 11.3639 24.8225 11.3639 24.6964V24.2581C11.3639 24.132 11.4662 24.0297 11.5924 24.0297H13.7601C13.8864 24.0297 13.9886 24.132 13.9886 24.2581V24.6964C13.9886 24.8225 13.8864 24.9249 13.7601 24.9249Z" fill="#F9C710"/>
<path d="M13.3542 24.7858H12.978V24.1626H13.3151H13.3542V24.7858Z" fill="#FCE693"/>
<path d="M11.3916 24.8971H12.0871V24.0389H11.3916V24.8971Z" fill="#F89F1D"/>
<path d="M13.5117 24.7858H13.7304V24.1626H13.5117V24.7858Z" fill="#FCE693"/>
<path d="M11.5923 24.1626C11.5397 24.1626 11.4968 24.2054 11.4968 24.2581V24.6964C11.4968 24.7491 11.5397 24.792 11.5923 24.792H13.7601C13.8128 24.792 13.8557 24.7491 13.8557 24.6964V24.2581C13.8557 24.2054 13.8128 24.1626 13.7601 24.1626H11.5923ZM13.7601 25.0577H11.5923C11.393 25.0577 11.231 24.8957 11.231 24.6964V24.2581C11.231 24.0589 11.393 23.8968 11.5923 23.8968H13.7601C13.9594 23.8968 14.1214 24.0589 14.1214 24.2581V24.6964C14.1214 24.8957 13.9594 25.0577 13.7601 25.0577Z" fill="#6B184E"/>
<path d="M13.3151 24.0297H11.1473C11.0211 24.0297 10.9188 23.9273 10.9188 23.8012V23.3629C10.9188 23.2368 11.0211 23.1345 11.1473 23.1345H13.3151C13.4412 23.1345 13.5435 23.2368 13.5435 23.3629V23.8012C13.5435 23.9273 13.4412 24.0297 13.3151 24.0297Z" fill="#F9C710"/>
<path d="M12.9092 23.8968H12.5331V23.3003C12.5362 23.2893 12.5392 23.2785 12.5422 23.2674H12.9092V23.8968Z" fill="#FCE693"/>
<path d="M10.9467 24.0019H11.6422V23.1437H10.9467V24.0019Z" fill="#F89F1D"/>
<path d="M13.0668 23.8968H13.2855V23.2674H13.0668V23.8968Z" fill="#FCE693"/>
<path d="M11.1474 23.2675C11.0947 23.2675 11.0519 23.3103 11.0519 23.363V23.8012C11.0519 23.8539 11.0947 23.8968 11.1474 23.8968H13.3151C13.3679 23.8968 13.4107 23.8539 13.4107 23.8012V23.363C13.4107 23.3103 13.3679 23.2675 13.3151 23.2675H11.1474ZM13.3151 24.1627H11.1474C10.9482 24.1627 10.786 24.0005 10.786 23.8012V23.363C10.786 23.1637 10.9482 23.0016 11.1474 23.0016H13.3151C13.5144 23.0016 13.6765 23.1637 13.6765 23.363V23.8012C13.6765 24.0005 13.5144 24.1627 13.3151 24.1627Z" fill="#6B184E"/>
<path d="M13.7987 23.1205H11.631C11.5048 23.1205 11.4026 23.0182 11.4026 22.892V22.4538C11.4026 22.3276 11.5048 22.2253 11.631 22.2253H13.7987C13.9249 22.2253 14.0272 22.3276 14.0272 22.4538V22.892C14.0272 23.0182 13.9249 23.1205 13.7987 23.1205Z" fill="#F9C710"/>
<path d="M11.631 22.2446C11.5157 22.2446 11.4219 22.3385 11.4219 22.4538V22.892C11.4219 23.0074 11.5157 23.1011 11.631 23.1011H13.7988C13.9141 23.1011 14.0079 23.0074 14.0079 22.892V22.4538C14.0079 22.3385 13.9141 22.2446 13.7988 22.2446H11.631ZM13.7988 23.1398H11.631C11.4944 23.1398 11.3832 23.0286 11.3832 22.892V22.4538C11.3832 22.3171 11.4944 22.2059 11.631 22.2059H13.7988C13.9355 22.2059 14.0466 22.3171 14.0466 22.4538V22.892C14.0466 23.0286 13.9355 23.1398 13.7988 23.1398Z" fill="#6B184E"/>
<path d="M13.0168 22.9876H13.393V22.3582H13.0168V22.9876Z" fill="#FCE693"/>
<path d="M11.4303 23.0927H12.1258V22.2346H11.4303V23.0927Z" fill="#F89F1D"/>
<path d="M13.5505 22.9876H13.7693V22.3582H13.5505V22.9876Z" fill="#FCE693"/>
<path d="M11.631 22.3582C11.5784 22.3582 11.5355 22.401 11.5355 22.4538V22.892C11.5355 22.9447 11.5784 22.9876 11.631 22.9876H13.7988C13.8515 22.9876 13.8944 22.9447 13.8944 22.892V22.4538C13.8944 22.401 13.8515 22.3582 13.7988 22.3582H11.631ZM13.7988 23.2534H11.631C11.4318 23.2534 11.2697 23.0913 11.2697 22.892V22.4538C11.2697 22.2545 11.4318 22.0924 11.631 22.0924H13.7988C13.9981 22.0924 14.1602 22.2545 14.1602 22.4538V22.892C14.1602 23.0913 13.9981 23.2534 13.7988 23.2534Z" fill="#6B184E"/>
<path d="M8.27588 24.7297C9.15572 24.9942 10.0838 24.9707 11.0488 24.7297C13.2759 24.0636 12.8776 20.0983 10.5888 18.6877V18.1783L11.1658 17.5554L11.2579 17.456C11.2389 17.4163 11.2196 17.3819 11.2003 17.3522C10.9978 17.0411 10.7753 17.2519 10.5167 17.3511C10.3412 17.4184 10.15 17.3235 10.018 17.1898C9.78892 16.9573 9.54196 16.9591 9.31092 17.1422C9.14188 17.276 8.90188 17.3595 8.70972 17.2622C8.50244 17.1573 8.3062 17.047 8.12132 17.3522C8.10308 17.3826 8.08476 17.4171 8.06652 17.456L8.21788 17.6195L8.73564 18.1783V18.6877C6.44719 20.0983 6.13642 24.0206 8.27588 24.7297Z" fill="#E67E22"/>
<path d="M10.5277 17.5458C10.4671 17.5458 10.4067 17.5304 10.3493 17.5044C10.3643 17.5057 10.3792 17.5064 10.3941 17.5064C10.4523 17.5064 10.5095 17.4961 10.5643 17.4751C10.6215 17.4531 10.6748 17.4274 10.7263 17.4024C10.8115 17.3612 10.8927 17.3218 10.9529 17.3218C10.9653 17.3218 10.9768 17.3235 10.9873 17.3272C11.0051 17.3334 11.0232 17.3459 11.0416 17.3645C10.9197 17.3824 10.7896 17.4695 10.6487 17.5236C10.6089 17.5389 10.5683 17.5458 10.5277 17.5458ZM8.27714 17.4879L8.22729 17.4342C8.27249 17.3559 8.3185 17.3073 8.36226 17.2922C8.37378 17.2882 8.38634 17.2863 8.39962 17.2863C8.4397 17.2863 8.48705 17.3028 8.53809 17.3259C8.53609 17.3258 8.53402 17.3258 8.53202 17.3258C8.44482 17.3258 8.35986 17.3675 8.27714 17.4879ZM9.02569 17.4769C8.96305 17.4769 8.90138 17.4643 8.84394 17.4357C8.86058 17.4371 8.87722 17.4379 8.89386 17.4379C9.07945 17.4379 9.26178 17.3507 9.39354 17.2463C9.48098 17.1769 9.56402 17.1421 9.64514 17.1421C9.69546 17.1421 9.74514 17.1555 9.79458 17.1824C9.78882 17.1822 9.78313 17.1821 9.77745 17.1821C9.66481 17.1821 9.5521 17.2281 9.44298 17.3146C9.32498 17.408 9.17241 17.4769 9.02569 17.4769Z" fill="#F6D2B2"/>
<path d="M7.10524 23.2741C7.0516 23.1014 7.01273 22.9156 6.98974 22.7185C6.83908 21.4271 7.40812 19.6753 8.78584 18.8131C8.7952 18.8138 8.80464 18.8141 8.81408 18.8141H8.9316C8.91736 18.8561 8.8896 18.893 8.85144 18.9181C8.5252 19.1336 8.24136 19.4013 8.00096 19.7027C8.16392 19.9967 8.0432 20.3881 7.60489 20.3881C7.58958 20.3881 7.57381 20.3876 7.55772 20.3867C7.07854 21.3057 6.92484 22.3811 7.12563 23.2635L7.10524 23.2741Z" fill="#F6D2B2"/>
<path d="M10.0742 24.765C10.0803 24.7387 10.0836 24.7113 10.0836 24.6832V24.2449C10.0836 24.1861 10.0694 24.1305 10.0444 24.0814C10.1384 24.062 10.2329 24.0404 10.3276 24.0167C11.2894 23.7291 11.6741 22.8669 11.6612 21.8456C11.6496 20.9402 11.3047 20.0663 10.6984 19.3938C10.4407 19.1077 10.169 18.9131 9.81812 18.8141H10.5148C10.5229 18.8141 10.531 18.8138 10.5391 18.8133C11.9497 19.6965 12.5331 21.5232 12.3649 22.8005C12.2417 23.7369 11.7618 24.3763 11.0136 24.6013C10.6891 24.6823 10.3766 24.7368 10.0742 24.765Z" fill="#C15F2F"/>
<path d="M8.22723 17.4342L8.83307 18.0878C8.85587 18.1123 8.86851 18.1446 8.86851 18.1781V18.6878C8.86851 18.7339 8.84459 18.7767 8.80531 18.801C7.41338 19.6587 6.83832 21.421 6.9897 22.7185C7.10112 23.6737 7.58509 24.3607 8.31755 24.6034C9.13651 24.8495 10.0195 24.8493 11.0135 24.6014C11.7617 24.3763 12.2416 23.7369 12.3648 22.8005C12.5338 21.5171 11.9443 19.6793 10.519 18.801C10.4798 18.7767 10.4559 18.7339 10.4559 18.6878V18.1781C10.4559 18.1446 10.4685 18.1123 10.4912 18.0878L11.0958 17.4355C11.0592 17.3764 11.0223 17.3394 10.9872 17.3272C10.926 17.3056 10.829 17.3526 10.7263 17.4024C10.6748 17.4274 10.6215 17.4531 10.5642 17.4751C10.3591 17.5538 10.1195 17.4819 9.92323 17.2829C9.75075 17.108 9.58243 17.0964 9.39347 17.2462C9.20339 17.397 8.90827 17.5114 8.64963 17.3807L8.63291 17.3722C8.52819 17.3191 8.42923 17.269 8.36219 17.2922C8.31843 17.3073 8.27243 17.3559 8.22723 17.4342ZM9.59747 25.0535C9.12467 25.0535 8.67363 24.988 8.23747 24.8569C7.3993 24.5791 6.84958 23.8114 6.72567 22.7493C6.56686 21.3879 7.16186 19.5443 8.60267 18.6145V18.2302L7.96897 17.5465C7.93227 17.5069 7.92317 17.449 7.94594 17.4001C8.03739 17.2034 8.14515 17.086 8.27523 17.041C8.44891 16.981 8.61051 17.0628 8.75307 17.1351L8.76955 17.1434C8.91627 17.2177 9.10843 17.133 9.22827 17.038C9.52315 16.8042 9.84547 16.8254 10.1125 17.0962C10.205 17.1901 10.3472 17.2737 10.4689 17.227C10.5157 17.209 10.564 17.1857 10.6105 17.1631C10.7508 17.0952 10.9096 17.0182 11.0752 17.0763C11.1952 17.1184 11.2941 17.2238 11.3778 17.3988C11.4013 17.448 11.3924 17.5065 11.3554 17.5465L10.7216 18.2302V18.6145C11.3812 19.0399 11.9128 19.6852 12.2621 20.4854C12.5968 21.2522 12.7269 22.0867 12.6284 22.8352C12.4925 23.8677 11.9306 24.6046 11.0868 24.857C11.0848 24.8575 11.0828 24.858 11.0808 24.8586C10.5606 24.9885 10.0682 25.0535 9.59747 25.0535Z" fill="#6B184E"/>
<path d="M8.81413 18.7034H10.5148C10.663 18.7034 10.7833 18.5831 10.7833 18.4349C10.7833 18.2866 10.663 18.1664 10.5148 18.1664H8.81413C8.66589 18.1664 8.54565 18.2866 8.54565 18.4349C8.54565 18.5831 8.66589 18.7034 8.81413 18.7034Z" fill="#F9C710"/>
<path d="M8.6571 18.4197C8.6647 18.3398 8.73222 18.2771 8.81406 18.2771H10.5147C10.5965 18.2771 10.664 18.3398 10.6717 18.4197C10.6275 18.3877 10.5732 18.369 10.5145 18.369H8.81422C8.7555 18.369 8.70126 18.3878 8.6571 18.4197Z" fill="#FDEBAC"/>
<path d="M8.81414 18.2771C8.72718 18.2771 8.65646 18.3479 8.65646 18.4349C8.65646 18.5218 8.72718 18.5926 8.81414 18.5926H10.5148C10.6017 18.5926 10.6725 18.5218 10.6725 18.4349C10.6725 18.3479 10.6017 18.2771 10.5148 18.2771H8.81414ZM10.5148 18.8141H8.81414C8.6051 18.8141 8.43494 18.644 8.43494 18.4349C8.43494 18.2258 8.6051 18.0556 8.81414 18.0556H10.5148C10.7239 18.0556 10.894 18.2258 10.894 18.4349C10.894 18.644 10.7239 18.8141 10.5148 18.8141Z" fill="#6B184E"/>
<path d="M9.5076 22.9225V22.6638C9.32512 22.6556 9.14808 22.6066 9.04456 22.5467L9.12632 22.228C9.24064 22.2906 9.40136 22.3478 9.5784 22.3478C9.73368 22.3478 9.83992 22.2879 9.83992 22.1789C9.83992 22.0754 9.75272 22.0101 9.5512 21.942C9.25976 21.8439 9.06088 21.7077 9.06088 21.4435C9.06088 21.2038 9.22976 21.0159 9.5212 20.9587V20.7H9.78816V20.9397C9.97064 20.9478 10.0932 20.9859 10.1831 21.0295L10.1042 21.3373C10.0333 21.3073 9.908 21.2447 9.71192 21.2447C9.53488 21.2447 9.47768 21.3209 9.47768 21.3973C9.47768 21.4871 9.57296 21.5443 9.80448 21.6315C10.1286 21.7459 10.2594 21.8957 10.2594 22.1409C10.2594 22.3833 10.0878 22.5902 9.77456 22.6447V22.9225H9.5076Z" fill="#F9F6C3"/>
<path d="M11.2002 17.3521L11.1888 17.4187C11.1964 17.3973 11.2002 17.3753 11.2002 17.3521Z" fill="#262F6A"/>
<path d="M11.2072 17.4252L11.1698 17.4155L11.1812 17.3489L11.2196 17.3521C11.2196 17.3773 11.2155 17.4018 11.2072 17.4252Z" fill="#6B184E"/>
<path d="M8.80339 18.0558L8.44507 17.6691C8.74083 17.7865 9.20067 17.8451 9.66059 17.8451C10.1231 17.8451 10.5857 17.7858 10.8811 17.6671L10.521 18.0557C10.5189 18.0557 10.5167 18.0556 10.5147 18.0556H8.81403C8.81051 18.0556 8.80699 18.0557 8.80339 18.0558Z" fill="#C15F2F"/>
<path d="M8.65457 18.0908L8.21785 17.6195L8.17065 17.4891C8.22457 17.5596 8.32025 17.6196 8.44513 17.6691L8.80345 18.0558C8.75041 18.0573 8.70009 18.0697 8.65457 18.0908ZM10.6711 18.0894C10.6252 18.0685 10.5744 18.0566 10.5211 18.0557L10.8812 17.6671C11.0422 17.6025 11.1535 17.5202 11.1883 17.4203L11.1886 17.4204L11.1658 17.5554L10.6711 18.0894Z" fill="#6B184E"/>
<path d="M10.5887 18.2314H8.73558V18.1783L8.65454 18.0908C8.70006 18.0697 8.75038 18.0573 8.80342 18.0558C8.80702 18.0557 8.81054 18.0556 8.81406 18.0556H10.5147C10.5168 18.0556 10.5189 18.0557 10.521 18.0557C10.5744 18.0566 10.6252 18.0685 10.671 18.0894L10.5887 18.1783V18.2314Z" fill="#6B184E"/>
<path d="M11.1886 17.4204L11.1884 17.4203C11.1885 17.4198 11.1887 17.4193 11.1889 17.4187L11.1886 17.4204Z" fill="#6B184E"/>
<path d="M8.12134 17.3522C8.12134 17.4015 8.13862 17.4471 8.1707 17.4891L8.12134 17.3522Z" fill="#262F6A"/>
<path d="M8.23145 17.601L8.15521 17.5009C8.11985 17.4545 8.10193 17.4044 8.10193 17.3522V17.2413L8.23145 17.601Z" fill="#6B184E"/>
<path d="M4.63706 24.8747C5.10165 24.8057 5.56624 24.7892 6.03081 24.7807C6.26311 24.7761 6.4954 24.7751 6.72769 24.7763C6.95998 24.776 7.19227 24.7792 7.42457 24.7814C7.88914 24.7855 8.35376 24.7866 8.81832 24.7858H10.2121H15.787H21.362H24.1495L24.8464 24.7856L25.1949 24.7824L25.5433 24.7769C26.0078 24.7754 26.4725 24.7794 26.937 24.8747C26.9615 24.8797 26.9774 24.9037 26.9723 24.9282C26.9686 24.9465 26.9542 24.9599 26.937 24.9635C26.4725 25.0588 26.0078 25.0628 25.5433 25.0613L25.1949 25.0558L24.8464 25.0526L24.1495 25.0523H21.362H15.787H10.2121H8.81832C8.35376 25.0517 7.88914 25.0526 7.42457 25.0567C7.19227 25.059 6.95998 25.0622 6.72769 25.0618C6.4954 25.063 6.26311 25.0621 6.03081 25.0574C5.56624 25.049 5.10165 25.0325 4.63706 24.9635C4.61254 24.9598 4.59561 24.937 4.59925 24.9125C4.60222 24.8925 4.61804 24.8775 4.63706 24.8747Z" fill="#6B184E"/>
<path d="M23.6671 23.5839C23.6671 24.322 23.0687 24.9204 22.3306 24.9204C21.5924 24.9204 20.994 24.322 20.994 23.5839C20.994 22.8457 21.5924 22.2473 22.3306 22.2473C23.0687 22.2473 23.6671 22.8457 23.6671 23.5839Z" fill="#F9C710"/>
<path d="M21.1896 22.8661C21.2235 22.8105 21.2613 22.7577 21.3028 22.7078H21.3211C21.2869 22.7472 21.2549 22.7886 21.2255 22.8318C21.2133 22.843 21.2013 22.8545 21.1896 22.8661Z" fill="#A5EFFF"/>
<path d="M21.6354 22.4421H21.6008C21.8106 22.305 22.0613 22.2253 22.3306 22.2253C22.5972 22.2253 22.8455 22.3034 23.054 22.4379C23.044 22.4391 23.0339 22.4401 23.0237 22.4408C22.8216 22.3179 22.5844 22.2473 22.3306 22.2473C22.076 22.2473 21.838 22.3185 21.6354 22.4421Z" fill="#C6C9CD"/>
<path d="M21.3212 22.7078H21.3029C21.3881 22.6051 21.4887 22.5153 21.6009 22.4421H21.6355C21.5174 22.5141 21.4114 22.6039 21.3212 22.7078Z" fill="#BC97AF"/>
<path d="M23.0785 22.4759C23.0606 22.4637 23.0424 22.452 23.0238 22.4408C23.034 22.4401 23.0441 22.4391 23.0541 22.4379C23.0624 22.4432 23.0705 22.4486 23.0785 22.4541V22.4759Z" fill="#BC97AF"/>
<path d="M23.104 23.0016H22.8939C22.8325 22.9221 22.8141 22.81 22.8821 22.7135C22.6675 22.5665 22.4079 22.4799 22.128 22.4799C21.7793 22.4799 21.4631 22.6129 21.2255 22.8318C21.2549 22.7886 21.2868 22.7472 21.3211 22.7078C21.4113 22.6039 21.5173 22.5141 21.6354 22.4421C21.8379 22.3185 22.0759 22.2473 22.3306 22.2473C22.5843 22.2473 22.8216 22.3179 23.0237 22.4408C23.0423 22.452 23.0605 22.4637 23.0784 22.4759V22.892C23.0784 22.9313 23.0876 22.9685 23.104 23.0016Z" fill="#FCE693"/>
<path d="M23.0313 23.5838C23.0313 23.9708 22.7176 24.2845 22.3306 24.2845C21.9436 24.2845 21.6299 23.9708 21.6299 23.5838C21.6299 23.1968 21.9436 22.8831 22.3306 22.8831C22.7176 22.8831 23.0313 23.1968 23.0313 23.5838Z" fill="#F89F1D"/>
<path d="M22.2718 24.3492C22.1129 24.3492 21.9658 24.2965 21.8484 24.2071C21.8219 24.2242 21.7947 24.2317 21.7687 24.2317C21.6504 24.2317 21.5556 24.0773 21.6507 23.9735C21.5994 23.8765 21.5706 23.766 21.5706 23.6485C21.5706 23.4526 21.6514 23.2746 21.7816 23.1482C21.7761 23.1552 21.7706 23.1623 21.7654 23.1695C21.7654 23.1694 21.7655 23.1693 21.7656 23.1693C21.7275 23.2211 21.6964 23.2784 21.6736 23.3397C21.6452 23.4158 21.6296 23.4981 21.6296 23.5838C21.6296 23.821 21.7475 24.0308 21.9282 24.1575C22.0421 24.2376 22.1809 24.2845 22.3306 24.2845C22.4856 24.2845 22.6288 24.2343 22.7448 24.1491C22.7492 24.1504 22.7537 24.1516 22.7582 24.1526C22.6324 24.2745 22.4608 24.3492 22.2718 24.3492Z" fill="#FCE693"/>
<path d="M22.3306 24.2845C22.1809 24.2845 22.0421 24.2376 21.9281 24.1575C22.0421 24.2375 22.181 24.2845 22.3309 24.2845C22.4856 24.2845 22.6285 24.2341 22.7443 24.149C22.7445 24.149 22.7446 24.1491 22.7448 24.1491C22.6288 24.2343 22.4856 24.2845 22.3306 24.2845ZM21.6736 23.3397C21.6964 23.2784 21.7275 23.2211 21.7656 23.1693C21.7661 23.1688 21.7666 23.1683 21.7672 23.1679C21.7284 23.22 21.6967 23.2777 21.6736 23.3397Z" fill="#FCD499"/>
<path d="M21.7816 23.1483C21.8414 23.0729 21.9164 23.0103 22.002 22.9648C21.9167 23.0102 21.8419 23.0727 21.7821 23.1478C21.7819 23.1479 21.7818 23.1481 21.7816 23.1483ZM22.7415 23.016C22.6852 22.9753 22.6227 22.9427 22.5556 22.92C22.6227 22.9427 22.6853 22.9753 22.7415 23.016C22.7415 23.016 22.7415 23.016 22.7415 23.016Z" fill="#CE9223"/>
<path d="M21.7672 23.1679C21.773 23.1601 21.779 23.1524 21.7851 23.1449C21.7841 23.1458 21.7831 23.1468 21.7821 23.1477C21.8419 23.0726 21.9167 23.0101 22.002 22.9648C22.1001 22.9126 22.2122 22.8832 22.331 22.8832C22.4095 22.8832 22.4851 22.8961 22.5556 22.92C22.6227 22.9427 22.6852 22.9753 22.7415 23.016C22.6879 23.0317 22.6395 23.0593 22.5994 23.096C22.4923 23.0297 22.3662 22.9915 22.2311 22.9915C22.0533 22.9915 21.8908 23.0584 21.7672 23.1679Z" fill="#CD762C"/>
<path d="M21.7654 23.1695C21.7707 23.1623 21.7761 23.1552 21.7816 23.1482C21.7818 23.1481 21.7819 23.1479 21.7821 23.1477C21.7765 23.1548 21.771 23.162 21.7656 23.1693C21.7655 23.1693 21.7655 23.1694 21.7654 23.1695Z" fill="#D0A87E"/>
<path d="M21.7656 23.1693C21.771 23.162 21.7765 23.1548 21.7821 23.1477C21.7831 23.1468 21.7841 23.1458 21.7851 23.1449C21.779 23.1524 21.773 23.1601 21.7672 23.1679C21.7667 23.1683 21.7662 23.1688 21.7656 23.1693Z" fill="#D09B82"/>
<path d="M22.3306 22.3802C21.6669 22.3802 21.1269 22.9202 21.1269 23.5838C21.1269 24.2476 21.6669 24.7875 22.3306 24.7875C22.9944 24.7875 23.5343 24.2476 23.5343 23.5838C23.5343 22.9202 22.9944 22.3802 22.3306 22.3802ZM22.3306 25.0533C21.5204 25.0533 20.8611 24.3942 20.8611 23.5838C20.8611 22.7736 21.5204 22.1143 22.3306 22.1143C23.1409 22.1143 23.8001 22.7736 23.8001 23.5838C23.8001 24.3942 23.1409 25.0533 22.3306 25.0533Z" fill="#6B184E"/>
<path d="M25.4941 24.9249H23.3264C23.2002 24.9249 23.0979 24.8225 23.0979 24.6964V24.2581C23.0979 24.132 23.2002 24.0297 23.3264 24.0297H25.4941C25.6203 24.0297 25.7225 24.132 25.7225 24.2581V24.6964C25.7225 24.8225 25.6203 24.9249 25.4941 24.9249Z" fill="#F9C710"/>
<path d="M25.0883 24.792H24.712V24.1626H25.0104H25.0883V24.792Z" fill="#FCE693"/>
<path d="M23.8211 24.8971H23.1255V24.0389H23.8211V24.8971Z" fill="#F89F1D"/>
<path d="M25.2457 24.792H25.4644V24.1626H25.2457V24.792Z" fill="#FCE693"/>
<path d="M23.3263 24.1626C23.2736 24.1626 23.2307 24.2054 23.2307 24.2581V24.6964C23.2307 24.7491 23.2736 24.792 23.3263 24.792H25.4941C25.5467 24.792 25.5896 24.7491 25.5896 24.6964V24.2581C25.5896 24.2054 25.5467 24.1626 25.4941 24.1626H23.3263ZM25.4941 25.0577H23.3263C23.127 25.0577 22.965 24.8957 22.965 24.6964V24.2581C22.965 24.0589 23.127 23.8968 23.3263 23.8968H25.4941C25.6933 23.8968 25.8554 24.0589 25.8554 24.2581V24.6964C25.8554 24.8957 25.6933 25.0577 25.4941 25.0577Z" fill="#6B184E"/>
<path d="M9.72218 24.9117H7.5544C7.42822 24.9117 7.32593 24.8094 7.32593 24.6832V24.245C7.32593 24.1187 7.42822 24.0165 7.5544 24.0165H9.72218C9.84834 24.0165 9.95066 24.1187 9.95066 24.245V24.6832C9.95066 24.8094 9.84834 24.9117 9.72218 24.9117Z" fill="#F9C710"/>
<path d="M8.94006 24.7788H9.3163V24.1494H8.94006V24.7788Z" fill="#FCE693"/>
<path d="M7.35364 24.8839H8.04921V24.0257H7.35364V24.8839Z" fill="#F89F1D"/>
<path d="M9.47375 24.7788H9.69248V24.1494H9.47375V24.7788Z" fill="#FCE693"/>
<path d="M7.55439 24.1494C7.5017 24.1494 7.45883 24.1922 7.45883 24.245V24.6832C7.45883 24.7359 7.5017 24.7788 7.55439 24.7788H9.72216C9.7748 24.7788 9.81768 24.7359 9.81768 24.6832V24.245C9.81768 24.1922 9.7748 24.1494 9.72216 24.1494H7.55439ZM9.72216 25.0446H7.55439C7.35514 25.0446 7.19299 24.8825 7.19299 24.6832V24.245C7.19299 24.0457 7.35514 23.8836 7.55439 23.8836H9.72216C9.92144 23.8836 10.0835 24.0457 10.0835 24.245V24.6832C10.0835 24.8825 9.92144 25.0446 9.72216 25.0446Z" fill="#6B184E"/>
<path d="M7.967 23.8352L6.04332 24.8345C5.93134 24.8926 5.79342 24.849 5.73526 24.737L5.53322 24.3481C5.47505 24.2361 5.51867 24.0982 5.63064 24.0401L7.55433 23.0408C7.6663 22.9826 7.80422 23.0262 7.86239 23.1381L8.06445 23.5271C8.12261 23.639 8.07893 23.777 7.967 23.8352Z" fill="#F9C710"/>
<path d="M7.26025 24.171L6.86462 23.4095L7.19846 23.2361L7.5941 23.9977L7.26025 24.171Z" fill="#FCE693"/>
<path d="M6.46964 24.5818L5.85241 24.9024L5.45679 24.1408L6.07401 23.8202L6.46964 24.5818Z" fill="#F89F1D"/>
<path d="M7.74243 23.9415L7.3468 23.1799L7.5409 23.0791L7.93653 23.8407L7.74243 23.9415Z" fill="#FCE693"/>
<path d="M7.65951 23.1479C7.64438 23.1479 7.6294 23.1515 7.61559 23.1587L5.69189 24.158C5.64513 24.1823 5.62685 24.2402 5.65115 24.2869L5.85318 24.6758C5.86494 24.6985 5.88482 24.7152 5.90916 24.7228C5.93345 24.7306 5.95936 24.7282 5.98204 24.7166L7.90571 23.7173C7.92836 23.7054 7.94508 23.6856 7.95278 23.6612C7.96047 23.6369 7.95822 23.611 7.94646 23.5884L7.74444 23.1994C7.73266 23.1768 7.71278 23.1601 7.68844 23.1524C7.67892 23.1494 7.6692 23.1479 7.65951 23.1479ZM5.93838 24.9933C5.90176 24.9933 5.86494 24.9877 5.82903 24.9763C5.73697 24.9472 5.66178 24.884 5.61728 24.7983L5.41528 24.4094C5.32342 24.2326 5.39256 24.014 5.56936 23.9222L7.49305 22.9228C7.57872 22.8783 7.67656 22.8698 7.7686 22.899C7.86063 22.9281 7.9358 22.9913 7.98029 23.0769L8.18235 23.4658C8.22683 23.5514 8.23531 23.6494 8.20619 23.7414C8.17715 23.8334 8.11395 23.9086 8.02827 23.9531L6.10457 24.9524C6.05235 24.9795 5.99559 24.9933 5.93838 24.9933Z" fill="#6B184E"/>
<path d="M25.0104 24.0297H22.8426C22.7164 24.0297 22.6141 23.9273 22.6141 23.8012V23.3629C22.6141 23.2368 22.7164 23.1345 22.8426 23.1345H25.0104C25.1365 23.1345 25.2388 23.2368 25.2388 23.3629V23.8012C25.2388 23.9273 25.1365 24.0297 25.0104 24.0297Z" fill="#F9C710"/>
<path d="M24.2283 23.8968H24.6045V23.2674H24.2283V23.8968Z" fill="#FCE693"/>
<path d="M23.3374 24.0019H22.6418V23.1437H23.3374V24.0019Z" fill="#F89F1D"/>
<path d="M24.762 23.8968H24.9807V23.2674H24.762V23.8968Z" fill="#FCE693"/>
<path d="M22.8427 23.2675C22.79 23.2675 22.7471 23.3103 22.7471 23.363V23.8012C22.7471 23.8539 22.79 23.8968 22.8427 23.8968H25.0104C25.0632 23.8968 25.106 23.8539 25.106 23.8012V23.363C25.106 23.3103 25.0632 23.2675 25.0104 23.2675H22.8427ZM25.0104 24.1627H22.8427C22.6434 24.1627 22.4813 24.0005 22.4813 23.8012V23.363C22.4813 23.1637 22.6434 23.0016 22.8427 23.0016H25.0104C25.2096 23.0016 25.3718 23.1637 25.3718 23.363V23.8012C25.3718 24.0005 25.2096 24.1627 25.0104 24.1627Z" fill="#6B184E"/>
<path d="M25.1266 22.1709H22.9588C22.8327 22.1709 22.7303 22.0686 22.7303 21.9424V21.5041C22.7303 21.3779 22.8327 21.2757 22.9588 21.2757H25.1266C25.2527 21.2757 25.3551 21.3779 25.3551 21.5041V21.9424C25.3551 22.0686 25.2527 22.1709 25.1266 22.1709Z" fill="#F9C710"/>
<path d="M24.3445 22.0379H24.7207V21.4085H24.3445V22.0379Z" fill="#FCE693"/>
<path d="M23.4537 22.1431H22.7581V21.2849H23.4537V22.1431Z" fill="#F89F1D"/>
<path d="M24.8782 22.0379H25.0969V21.4085H24.8782V22.0379Z" fill="#FCE693"/>
<path d="M22.9588 21.4086C22.9061 21.4086 22.8632 21.4515 22.8632 21.5042V21.9424C22.8632 21.9951 22.9061 22.0379 22.9588 22.0379H25.1265C25.1793 22.0379 25.2221 21.9951 25.2221 21.9424V21.5042C25.2221 21.4515 25.1793 21.4086 25.1265 21.4086H22.9588ZM25.1265 22.3038H22.9588C22.7595 22.3038 22.5974 22.1416 22.5974 21.9424V21.5042C22.5974 21.3049 22.7595 21.1427 22.9588 21.1427H25.1265C25.3258 21.1427 25.4879 21.3049 25.4879 21.5042V21.9424C25.4879 22.1416 25.3258 22.3038 25.1265 22.3038Z" fill="#6B184E"/>
<path d="M25.4941 23.1205H23.3264C23.2002 23.1205 23.0979 23.0182 23.0979 22.892V22.4538C23.0979 22.3276 23.2002 22.2253 23.3264 22.2253H25.4941C25.6203 22.2253 25.7225 22.3276 25.7225 22.4538V22.892C25.7225 23.0182 25.6203 23.1205 25.4941 23.1205Z" fill="#F9C710"/>
<path d="M23.3263 22.2446C23.2111 22.2446 23.1172 22.3385 23.1172 22.4538V22.892C23.1172 23.0074 23.2111 23.1011 23.3263 23.1011H25.4941C25.6094 23.1011 25.7032 23.0074 25.7032 22.892V22.4538C25.7032 22.3385 25.6094 22.2446 25.4941 22.2446H23.3263ZM25.4941 23.1398H23.3263C23.1897 23.1398 23.0785 23.0286 23.0785 22.892V22.4538C23.0785 22.3171 23.1897 22.2059 23.3263 22.2059H25.4941C25.6307 22.2059 25.7419 22.3171 25.7419 22.4538V22.892C25.7419 23.0286 25.6307 23.1398 25.4941 23.1398Z" fill="#6B184E"/>
<path d="M24.712 23.0927H25.0883V22.2446H24.712V23.0927Z" fill="#FCE693"/>
<path d="M24.712 22.2446H25.0883V22.2345H24.712V22.2446Z" fill="#BC97AF"/>
<path d="M23.8211 23.0927H23.1255V22.2346H23.8211V23.0927Z" fill="#F89F1D"/>
<path d="M25.2457 23.1011H25.4644V22.2531H25.2457V23.1011Z" fill="#FCE693"/>
<path d="M25.2457 23.1112H25.4644V23.1011H25.2457V23.1112Z" fill="#BC97AF"/>
<path d="M23.3263 22.3582C23.2736 22.3582 23.2307 22.401 23.2307 22.4538V22.892C23.2307 22.9447 23.2736 22.9876 23.3263 22.9876H25.4941C25.5467 22.9876 25.5896 22.9447 25.5896 22.892V22.4538C25.5896 22.401 25.5467 22.3582 25.4941 22.3582H23.3263ZM25.4941 23.2534H23.3263C23.127 23.2534 22.965 23.0913 22.965 22.892V22.4538C22.965 22.2545 23.127 22.0924 23.3263 22.0924H25.4941C25.6933 22.0924 25.8554 22.2545 25.8554 22.4538V22.892C25.8554 23.0913 25.6933 23.2534 25.4941 23.2534Z" fill="#6B184E"/>
<path d="M26.6372 11.1362C27.0528 10.6027 27.562 10.2907 27.834 10.3858C27.834 10.3858 28.2064 10.4348 28.3701 10.8325C28.5456 11.0862 28.3716 11.6468 27.9467 12.1923C27.6213 12.61 27.2385 12.8919 26.9572 12.9491L26.9571 12.9491C26.9571 12.9491 26.5288 13.1059 26.2108 12.4919C26.0379 12.259 26.2147 11.6787 26.6372 11.1362Z" fill="#F7C714"/>
<path d="M26.6843 12.1908C26.6533 12.1908 26.6267 12.183 26.6059 12.1666C26.5899 12.1541 26.578 12.1373 26.5699 12.1166L26.6394 12.1062C26.6535 12.111 26.6691 12.1134 26.6861 12.1134C26.7241 12.1134 26.7689 12.1016 26.8183 12.0795L26.9844 12.0547C26.8683 12.1415 26.7622 12.1908 26.6843 12.1908ZM27.2477 11.7335C27.2812 11.6962 27.3144 11.6565 27.3469 11.615C27.3719 11.5831 27.3955 11.5512 27.4179 11.5194L27.4747 11.5094C27.4363 11.5698 27.393 11.6313 27.3451 11.6924C27.3378 11.7018 27.3303 11.711 27.323 11.7202L27.2477 11.7335Z" fill="#FBE695"/>
<path d="M27.3633 12.0286L27.7743 12.4207L27.1308 12.9606C27.1308 12.9606 26.7275 12.6795 26.6904 12.6058C26.6904 12.6058 27.398 12.2092 27.3633 12.0286Z" fill="#F89E1D"/>
<path d="M28.0984 11.9952L28.0929 11.9893C28.1081 11.9665 28.1227 11.9437 28.137 11.921L28.0984 11.9952ZM28.3326 11.5444C28.3359 11.5361 28.3392 11.5279 28.3424 11.5197L28.3442 11.522L28.3326 11.5444Z" fill="#A3E0F1"/>
<path d="M28.0929 11.9894L27.7207 11.5929L27.7693 11.4575L27.773 11.4569C27.8576 11.3075 27.9216 11.1619 27.9628 11.0283L28.2865 11.4473C28.2579 11.5207 28.2368 11.5747 28.2368 11.5747C28.2594 11.5322 28.2757 11.4896 28.287 11.448L28.3424 11.5197C28.3392 11.5279 28.3359 11.5362 28.3325 11.5444L28.1369 11.9211C28.1227 11.9438 28.1081 11.9666 28.0929 11.9894Z" fill="#FAD787"/>
<path d="M28.2871 11.448L28.2865 11.4473C28.2873 11.4453 28.2881 11.4433 28.2889 11.4413C28.2883 11.4435 28.2877 11.4458 28.2871 11.448Z" fill="#FBE695"/>
<path d="M28.4369 11.0533C28.4367 11.05 28.4366 11.0466 28.4364 11.0434C28.437 11.0475 28.4371 11.0508 28.4369 11.0533ZM28.3226 10.7358C28.2509 10.6117 28.158 10.5308 28.0725 10.4785L28.0734 10.4766L28.2412 10.5459C28.2412 10.5459 28.2797 10.6332 28.3226 10.7358Z" fill="#A5EFFF"/>
<path d="M28.2889 11.4413C28.3475 11.2159 28.2629 11.0211 28.2629 11.0211C28.2061 10.7322 27.9866 10.6617 27.9805 10.6598C27.9805 10.6597 27.9805 10.6596 27.9805 10.6595L28.0725 10.4785C28.1581 10.5308 28.2509 10.6117 28.3226 10.7358C28.3731 10.8565 28.4296 10.9982 28.4364 11.0434C28.4366 11.0466 28.4368 11.05 28.4369 11.0533C28.4369 11.0541 28.4368 11.0548 28.4365 11.0554C28.4287 11.081 28.3453 11.2961 28.2889 11.4413Z" fill="#FBE695"/>
<path d="M28.2368 11.5746C28.2368 11.5746 28.2579 11.5206 28.2865 11.4473L28.2871 11.448C28.2757 11.4896 28.2595 11.5322 28.2368 11.5746Z" fill="#FDEDC9"/>
<path d="M27.6832 11.5486C27.6952 11.5206 27.7066 11.4933 27.7172 11.4667L27.7232 11.4657L27.6832 11.5486Z" fill="#FBE695"/>
<path d="M27.8911 10.3986C27.8799 10.3954 27.8701 10.393 27.8619 10.3912C27.8759 10.3915 27.8837 10.3922 27.8837 10.3922C27.8862 10.3941 27.8887 10.3963 27.8911 10.3986Z" fill="#A5EFFF"/>
<path d="M27.9949 10.8504C27.985 10.8412 27.9747 10.8322 27.9644 10.8234L27.879 10.8384C27.8813 10.7996 27.8814 10.7654 27.8799 10.7358C27.8748 10.6291 27.7874 10.5495 27.6827 10.5495C27.6767 10.5495 27.6705 10.5498 27.6643 10.5503C27.4607 10.5685 27.2208 10.6862 27.2208 10.6862C27.3944 10.416 27.7246 10.3909 27.8415 10.3909C27.8492 10.3909 27.8561 10.391 27.8619 10.3912C27.8701 10.393 27.8799 10.3954 27.8911 10.3986C27.9405 10.4459 27.9667 10.555 27.9804 10.6595L27.9803 10.6598C27.9803 10.6598 27.9803 10.6598 27.9804 10.6598C27.9901 10.7334 27.9936 10.8046 27.9949 10.8504Z" fill="#FBE695"/>
<path d="M27.9805 10.6598C27.9804 10.6598 27.9803 10.6598 27.9803 10.6598L27.9805 10.6596C27.9805 10.6596 27.9805 10.6597 27.9805 10.6598Z" fill="#FDF4CF"/>
<path d="M26.8904 11.2577C26.6082 11.6182 26.4816 11.9905 26.6076 12.0892C26.7336 12.1878 27.0646 11.9755 27.3468 11.6149C27.6291 11.2543 27.7557 10.8821 27.6297 10.7834C27.5036 10.6847 27.1727 10.897 26.8904 11.2577Z" fill="#F9DD6A"/>
<path d="M26.8904 11.2577C26.6082 11.6182 26.4816 11.9905 26.6076 12.0892C26.7336 12.1878 27.0646 11.9755 27.3468 11.6149C27.6291 11.2543 27.7557 10.8821 27.6297 10.7834C27.5036 10.6847 27.1727 10.897 26.8904 11.2577Z" fill="#F89F1D"/>
<path d="M26.5732 11.8523C26.5868 11.7932 26.6104 11.7268 26.6428 11.6559L26.6856 11.6483C26.644 11.7185 26.6095 11.7867 26.5827 11.8506L26.5732 11.8523Z" fill="#CD762C"/>
<path d="M27.1663 10.9639C27.3147 10.8349 27.4547 10.7592 27.5512 10.7592C27.5823 10.7592 27.6088 10.767 27.6297 10.7834C27.6088 10.767 27.5823 10.7593 27.5512 10.7593C27.4547 10.7593 27.3147 10.8349 27.1663 10.9639Z" fill="#CD9226"/>
<path d="M27.1663 10.9639C27.3147 10.8349 27.4547 10.7593 27.5512 10.7593C27.5823 10.7593 27.6088 10.767 27.6297 10.7834C27.6334 10.7863 27.6368 10.7894 27.6401 10.7927C27.6592 10.8125 27.671 10.8402 27.6757 10.8742L27.1663 10.9639Z" fill="#CD762C"/>
<mask id="mask0_42225_12653" style="mask-type:luminance" maskUnits="userSpaceOnUse" x="26" y="10" width="3" height="3">
<path d="M26.6372 11.1362C26.1821 11.7204 26.0118 12.3488 26.2568 12.5397C26.5018 12.7306 27.0694 12.4117 27.5246 11.8274C27.9797 11.2431 28.15 10.6148 27.905 10.4239C27.6599 10.233 27.0923 10.5519 26.6372 11.1362Z" fill="white"/>
</mask>
<g mask="url(#mask0_42225_12653)">
<path d="M26.2809 11.7197C26.3373 11.5933 26.4105 11.4609 26.4989 11.3281C26.4105 11.4609 26.3373 11.5933 26.281 11.7197H26.2809ZM26.5037 11.3208C26.5041 11.3202 26.5045 11.3197 26.5049 11.3191C26.5044 11.3197 26.5041 11.3202 26.5037 11.3208ZM26.506 11.3173C26.5063 11.3169 26.5066 11.3165 26.5068 11.3162C26.5066 11.3166 26.5063 11.3169 26.506 11.3173Z" fill="#6CDEF8"/>
<path d="M26.2809 11.7197C26.3372 11.5933 26.4104 11.4609 26.4988 11.3281C26.4989 11.3279 26.499 11.3278 26.499 11.3277C26.4996 11.3268 26.5002 11.3259 26.5008 11.325C26.501 11.3248 26.5012 11.3245 26.5014 11.3242C26.5018 11.3234 26.5024 11.3226 26.503 11.3218C26.5032 11.3215 26.5034 11.3212 26.5036 11.3208C26.504 11.3202 26.5043 11.3197 26.5048 11.3191C26.5051 11.3185 26.5056 11.3179 26.5059 11.3173C26.5062 11.3169 26.5065 11.3166 26.5067 11.3162C26.5073 11.3153 26.5078 11.3145 26.5084 11.3137C26.5085 11.3135 26.5086 11.3133 26.5088 11.3131C26.5486 11.2541 26.5914 11.1949 26.6372 11.1362C26.6618 11.1047 26.6866 11.074 26.7118 11.0441L27.1663 10.964C27.0749 11.0434 26.9802 11.1431 26.8905 11.2577C26.8756 11.2767 26.8611 11.2957 26.8471 11.3148V11.3149C26.8466 11.3155 26.8462 11.3161 26.8458 11.3168C26.8454 11.3171 26.8452 11.3175 26.8449 11.3179C26.8449 11.318 26.8448 11.318 26.8447 11.3181C26.7595 11.4343 26.691 11.5501 26.6425 11.656L26.2809 11.7197Z" fill="#F8CF4D"/>
<path d="M26.6425 11.6559C26.691 11.5501 26.7595 11.4343 26.8447 11.318C26.7595 11.4343 26.6912 11.5501 26.6427 11.6559H26.6425Z" fill="#F9B253"/>
<path d="M27.4747 11.5095C27.6136 11.2911 27.6879 11.0865 27.6754 10.9614C27.6775 10.944 27.6786 10.9275 27.6785 10.912C27.6785 10.8987 27.6777 10.886 27.676 10.8742L27.8791 10.8384C27.8703 10.9801 27.8305 11.1849 27.7173 11.4667L27.4747 11.5095Z" fill="#F8CF4D"/>
<path d="M27.418 11.5195C27.5653 11.3103 27.6575 11.1057 27.6754 10.9614C27.688 11.0865 27.6136 11.2911 27.4748 11.5095L27.418 11.5195Z" fill="#FBE6AB"/>
<path d="M27.7233 11.4657L27.8918 11.1163L27.7693 11.4575L27.7233 11.4657ZM27.9628 11.0283L27.9453 11.0056L27.9957 10.9011C27.9957 10.9011 27.9958 10.8818 27.9949 10.8504C27.998 10.8531 28.0009 10.8559 28.0038 10.8587C27.9947 10.9123 27.981 10.9691 27.9628 11.0283Z" fill="#F8CF4D"/>
<path d="M27.7693 11.4576L27.8918 11.1164L27.9453 11.0057L27.9628 11.0283C27.9216 11.162 27.8576 11.3076 27.773 11.4569L27.7693 11.4576Z" fill="#FBDBA0"/>
<path d="M27.7173 11.4668C27.8305 11.185 27.8703 10.9802 27.879 10.8385L27.9645 10.8234C27.9748 10.8323 27.985 10.8413 27.995 10.8505C27.9958 10.8818 27.9957 10.9012 27.9957 10.9012L27.9453 11.0057L27.9359 10.9936L27.8918 11.1164L27.7233 11.4658L27.7173 11.4668Z" fill="#FBE6AB"/>
<path d="M27.8918 11.1164L27.9359 10.9936L27.9453 11.0057L27.8918 11.1164Z" fill="#FDEBD1"/>
<path d="M26.6857 11.6484C26.7316 11.5709 26.7861 11.4911 26.8482 11.4117C27.0837 11.1109 27.3529 10.9133 27.509 10.9133C27.54 10.9133 27.5665 10.921 27.5874 10.9374C27.6317 10.9721 27.6442 11.0411 27.6303 11.1311C27.6685 11.0288 27.6849 10.9397 27.6758 10.8742H27.6761C27.6777 10.8861 27.6786 10.8987 27.6786 10.9121C27.6786 10.9276 27.6775 10.9441 27.6754 10.9614C27.6575 11.1057 27.5653 11.3103 27.418 11.5195L26.6857 11.6484Z" fill="#F9B253"/>
<path d="M26.8447 11.3181C26.8448 11.318 26.8449 11.318 26.8449 11.3179C26.8449 11.318 26.8448 11.3181 26.8447 11.3181ZM26.8471 11.3148C26.8611 11.2957 26.8756 11.2767 26.8905 11.2577C26.8756 11.2767 26.8612 11.2957 26.8471 11.3148Z" fill="#DAA85A"/>
<path d="M26.6427 11.6559C26.6912 11.5501 26.7595 11.4343 26.8447 11.318C26.8448 11.318 26.8449 11.3179 26.8449 11.3179C26.8452 11.3175 26.8454 11.3171 26.8457 11.3167C26.8461 11.3161 26.8466 11.3155 26.8471 11.3148V11.3147C26.8612 11.2957 26.8756 11.2767 26.8905 11.2577C26.9802 11.1431 27.0749 11.0434 27.1663 10.9639L27.6757 10.8742C27.6849 10.9396 27.6685 11.0287 27.6302 11.1311C27.6441 11.0411 27.6317 10.9721 27.5873 10.9374C27.5665 10.921 27.5399 10.9132 27.5089 10.9132C27.3529 10.9132 27.0836 11.1108 26.8481 11.4116C26.786 11.4911 26.7315 11.5709 26.6856 11.6483L26.6427 11.6559Z" fill="#DA945E"/>
<path d="M26.1719 12.0361C26.1719 12.036 26.1719 12.0359 26.1719 12.0358C26.1807 11.9975 26.1916 11.9579 26.2047 11.9174L26.2048 11.9173C26.1917 11.958 26.1808 11.9977 26.1719 12.0361Z" fill="#6CDEF8"/>
<path d="M26.234 12.1667C26.1941 12.1041 26.1813 12.0743 26.1719 12.036C26.1808 11.9976 26.1917 11.958 26.2048 11.9172L26.5727 11.8524C26.5636 11.8921 26.5588 11.9284 26.5589 11.9607C26.5589 11.9704 26.5594 11.9798 26.5603 11.9888C26.554 12.0396 26.5569 12.0832 26.57 12.1166L26.234 12.1667Z" fill="#F8CF4D"/>
<path d="M26.57 12.1166C26.557 12.0831 26.554 12.0396 26.5603 11.9887C26.5648 12.0332 26.5802 12.0677 26.6078 12.0892C26.6172 12.0966 26.6278 12.1023 26.6394 12.1062L26.57 12.1166Z" fill="#FBE6AB"/>
<path d="M26.9844 12.0547C27.0936 11.9731 27.2114 11.8584 27.3229 11.7203L27.644 11.6637C27.6067 11.7184 27.5669 11.7731 27.5245 11.8274C27.4789 11.886 27.4321 11.942 27.3846 11.9951L26.9844 12.0547Z" fill="#F8CF4D"/>
<path d="M26.8182 12.0796C26.9434 12.0235 27.0982 11.9008 27.2477 11.7336L27.323 11.7203C27.2114 11.8585 27.0936 11.9732 26.9844 12.0548L26.8182 12.0796Z" fill="#FBE6AB"/>
<path d="M26.6394 12.1062C26.6278 12.1023 26.6172 12.0966 26.6078 12.0892C26.5802 12.0677 26.5648 12.0332 26.5603 11.9888C26.5594 11.9798 26.559 11.9704 26.559 11.9607C26.5589 11.9284 26.5636 11.8921 26.5727 11.8524L26.5733 11.8524C26.5698 11.8672 26.567 11.8816 26.5649 11.8956C26.5704 11.8808 26.5763 11.8659 26.5827 11.8507L27.2478 11.7336C27.0982 11.9008 26.9434 12.0235 26.8183 12.0796L26.6394 12.1062Z" fill="#F9B253"/>
<path d="M26.5648 11.8956C26.567 11.8816 26.5698 11.8672 26.5732 11.8524L26.5827 11.8507C26.5763 11.8659 26.5703 11.8808 26.5648 11.8956Z" fill="#DA945E"/>
</g>
<path d="M27.726 10.4377C27.6333 10.4377 27.5156 10.4755 27.3837 10.5496C27.1521 10.6798 26.9064 10.9031 26.6917 11.1786C26.4772 11.4541 26.3207 11.747 26.2512 12.0034C26.188 12.2366 26.2056 12.4121 26.2993 12.4851C26.3931 12.5582 26.5676 12.5322 26.7781 12.4139C27.0097 12.2838 27.2555 12.0604 27.4701 11.785C27.6847 11.5094 27.8412 11.2165 27.9107 10.9601C27.9738 10.727 27.9563 10.5514 27.8625 10.4784C27.8275 10.4511 27.7812 10.4377 27.726 10.4377ZM26.435 12.664C26.3488 12.664 26.2743 12.6408 26.2144 12.5942C26.0725 12.4836 26.0382 12.261 26.1178 11.9674C26.192 11.6936 26.3571 11.3834 26.5827 11.0937C26.8084 10.8041 27.0688 10.568 27.316 10.4291C27.5813 10.28 27.8056 10.2589 27.9474 10.3694C28.0893 10.4799 28.1236 10.7025 28.044 10.9962C27.9699 11.2699 27.8048 11.5802 27.5792 11.8698C27.3535 12.1595 27.0931 12.3955 26.8458 12.5344C26.6925 12.6206 26.5529 12.664 26.435 12.664Z" fill="#6B184E"/>
<path d="M26.7226 11.2027C26.3007 11.7443 26.1735 12.2602 26.2978 12.4275C26.3012 12.4321 26.3043 12.4371 26.307 12.4422C26.5779 12.9655 26.9165 12.8487 26.9199 12.8475C26.925 12.8456 26.9302 12.8442 26.9355 12.8431C27.2004 12.7893 27.5638 12.5077 27.8612 12.1259C28.103 11.8155 28.2555 11.5302 28.3144 11.2777C28.3931 10.9407 28.199 10.6018 27.8723 10.5061C27.8385 10.4963 27.8171 10.4927 27.8169 10.4927C27.8107 10.4917 27.8041 10.49 27.7982 10.4879C27.602 10.4194 27.1351 10.6731 26.7226 11.2027ZM26.8303 13.0748C26.798 13.0748 26.7658 13.0725 26.7364 13.0679C26.5643 13.0413 26.3179 12.9295 26.1185 12.5489C25.9207 12.2671 26.1015 11.6478 26.5519 11.0696C26.9972 10.4979 27.5335 10.1753 27.8607 10.2807C27.8742 10.2831 27.8996 10.2886 27.9331 10.2984C28.37 10.4263 28.6301 10.8781 28.5252 11.3269C28.4591 11.6102 28.2931 11.9237 28.032 12.2589C27.6999 12.6852 27.2967 12.9902 26.9795 13.055C26.9387 13.0683 26.8845 13.0748 26.8303 13.0748Z" fill="#6B184E"/>
<path d="M11.6055 7.27014C11.0687 6.85886 10.4973 6.6855 10.2582 6.84614C10.2582 6.84614 9.91019 6.98758 9.85211 7.41374C9.74635 7.7035 10.0562 8.20207 10.6051 8.62271C11.0254 8.94471 11.467 9.12087 11.7536 9.10511L11.7537 9.10518C11.7537 9.10518 12.2077 9.1487 12.3603 8.47438C12.4689 8.20526 12.1514 7.68838 11.6055 7.27014Z" fill="#F7C714"/>
<path d="M11.7632 8.30975C11.6927 8.30975 11.6024 8.28775 11.5015 8.24663L11.6685 8.22863C11.6948 8.23303 11.7194 8.23535 11.742 8.23535C11.7856 8.23535 11.8218 8.22687 11.8484 8.20935L11.9182 8.20183C11.9156 8.22391 11.9084 8.24319 11.896 8.25935C11.87 8.29359 11.8238 8.30975 11.7632 8.30975ZM11.0895 8.00847C11.08 8.00143 11.0705 7.99431 11.061 7.98703C10.9993 7.93999 10.9418 7.89151 10.8894 7.84271L10.9468 7.83807C10.9766 7.86319 11.0076 7.88807 11.0397 7.91263C11.0816 7.94463 11.1238 7.97455 11.1656 8.00231L11.0895 8.00847Z" fill="#FBE695"/>
<path d="M11.1281 8.31697L10.8295 8.80017L11.5884 9.1601C11.5884 9.1601 11.9078 8.78642 11.925 8.70562C11.925 8.70562 11.1401 8.50049 11.1281 8.31697Z" fill="#F89E1D"/>
<path d="M10.4085 8.47034L10.3526 8.40834C10.3721 8.42666 10.3921 8.44498 10.4124 8.46322L10.4085 8.47034ZM10.0681 8.09314L10.0513 8.07442L10.0524 8.07178C10.0576 8.0789 10.0629 8.08602 10.0681 8.09314Z" fill="#A3E0F1"/>
<path d="M10.4124 8.4632C10.392 8.44496 10.372 8.42664 10.3526 8.40832L10.0681 8.09312C10.0628 8.086 10.0576 8.07888 10.0524 8.07176L10.0879 7.9884C10.1093 8.02576 10.1358 8.06288 10.1684 8.09824C10.1684 8.09824 10.1344 8.05128 10.0882 7.9876L10.2956 7.5004C10.3692 7.61936 10.468 7.74408 10.5875 7.86728L10.5912 7.86696L10.6724 7.9856L10.4124 8.4632Z" fill="#FAD787"/>
<path d="M10.0879 7.9884C10.0867 7.9864 10.0856 7.98432 10.0845 7.98232C10.0858 7.98408 10.087 7.98584 10.0882 7.9876L10.0879 7.9884Z" fill="#FBE695"/>
<path d="M10.1684 8.09827C10.1358 8.06291 10.1093 8.02579 10.0879 7.98843L10.0882 7.98763C10.1344 8.05131 10.1684 8.09827 10.1684 8.09827Z" fill="#FDEDC9"/>
<path d="M9.84323 7.64423C9.84235 7.64199 9.84171 7.6387 9.84131 7.63454C9.84187 7.63782 9.84251 7.64103 9.84323 7.64423ZM9.87371 7.30823C9.88931 7.19823 9.90451 7.10391 9.90451 7.10391L10.0494 6.99454L10.0507 6.99607C9.98123 7.06831 9.91179 7.17007 9.87371 7.30823Z" fill="#A5EFFF"/>
<path d="M10.0845 7.9823C9.99317 7.85606 9.85829 7.66902 9.84413 7.64622C9.84381 7.64566 9.84349 7.64502 9.84325 7.64422C9.84253 7.64102 9.84189 7.63782 9.84133 7.63454C9.83653 7.58918 9.85541 7.43774 9.87373 7.30822C9.91181 7.17006 9.98125 7.0683 10.0508 6.99606L10.1856 7.14806C10.1856 7.14814 10.1857 7.14822 10.1857 7.1483C10.1801 7.15174 9.98557 7.27542 10.0035 7.56926C10.0035 7.56926 9.97085 7.7791 10.0845 7.9823Z" fill="#FBE695"/>
<path d="M10.2062 6.87305C10.2079 6.87025 10.2097 6.86753 10.2116 6.86497C10.2116 6.86497 10.219 6.86241 10.2325 6.85849C10.225 6.86233 10.2162 6.86721 10.2062 6.87305Z" fill="#A5EFFF"/>
<path d="M10.6975 7.93329L10.6378 7.86313L10.6439 7.86265C10.6609 7.88569 10.6788 7.90921 10.6975 7.93329ZM10.2197 7.33641C10.2093 7.29185 10.1948 7.22193 10.1856 7.14833C10.1857 7.14825 10.1857 7.14825 10.1857 7.14825L10.1855 7.14809C10.1725 7.04345 10.1701 6.93129 10.2061 6.87305C10.2161 6.86721 10.2249 6.86233 10.2325 6.85849C10.2731 6.84673 10.3693 6.82297 10.4859 6.82297C10.624 6.82297 10.7906 6.85625 10.9273 6.98217C10.9273 6.98217 10.7763 6.95137 10.6154 6.95137C10.5644 6.95137 10.5124 6.95449 10.4638 6.96257C10.3524 6.98129 10.2788 7.08585 10.302 7.19649C10.3081 7.22561 10.3167 7.25857 10.3289 7.29553L10.2424 7.30257C10.2345 7.31377 10.2269 7.32505 10.2197 7.33641Z" fill="#FBE695"/>
<path d="M10.1856 7.14832C10.1856 7.14824 10.1855 7.14815 10.1855 7.14807L10.1857 7.14824C10.1857 7.14824 10.1857 7.14824 10.1856 7.14832Z" fill="#FDF4CF"/>
<path d="M11.3912 7.45165C11.7553 7.72933 11.9718 8.05757 11.8748 8.18485C11.7777 8.31213 11.4038 8.19021 11.0397 7.91261C10.6756 7.63493 10.4591 7.30661 10.5561 7.17933C10.6532 7.05205 11.027 7.17397 11.3912 7.45165Z" fill="#F9DD6A"/>
<path d="M11.3912 7.45165C11.7553 7.72933 11.9718 8.05757 11.8748 8.18485C11.7777 8.31213 11.4038 8.19021 11.0397 7.91261C10.6756 7.63493 10.4591 7.30661 10.5561 7.17933C10.6532 7.05205 11.027 7.17397 11.3912 7.45165Z" fill="#F89F1D"/>
<path d="M10.6889 7.12898C10.6284 7.12898 10.5822 7.14522 10.5561 7.17938C10.5822 7.14514 10.6284 7.12898 10.6889 7.12898Z" fill="#CD9226"/>
<path d="M11.8387 7.94775C11.7967 7.89271 11.746 7.83543 11.688 7.77799L11.7314 7.77447C11.7807 7.83487 11.8202 7.89319 11.8483 7.94695L11.8387 7.94775ZM10.5345 7.27887C10.5306 7.24527 10.5347 7.21607 10.5477 7.19231C10.5477 7.19231 10.5477 7.19224 10.5478 7.19224C10.5479 7.19208 10.5479 7.19192 10.5479 7.19184C10.5504 7.18752 10.5531 7.18335 10.5561 7.17935C10.5822 7.14519 10.6283 7.12895 10.6889 7.12895C10.7819 7.12895 10.9091 7.1672 11.0501 7.23704L10.5345 7.27887Z" fill="#CD762C"/>
<mask id="mask1_42225_12653" style="mask-type:luminance" maskUnits="userSpaceOnUse" x="10" y="6" width="3" height="3">
<path d="M11.6056 7.27015C12.1934 7.72063 12.5168 8.28567 12.3279 8.53223C12.139 8.77871 11.5093 8.61343 10.9214 8.16303C10.3336 7.71255 10.0101 7.14751 10.1991 6.90095C10.388 6.65439 11.0177 6.81967 11.6056 7.27015Z" fill="white"/>
</mask>
<g mask="url(#mask1_42225_12653)">
<path d="M10.5912 7.86694L10.3865 7.56766L10.6377 7.8631L10.5912 7.86694ZM10.6438 7.86262C10.4631 7.61854 10.3729 7.43046 10.3288 7.2955L10.5342 7.27886C10.5372 7.30454 10.5449 7.33286 10.5569 7.3631C10.5763 7.48742 10.6998 7.66654 10.8893 7.8427L10.6438 7.86262ZM10.2956 7.50038C10.2631 7.44774 10.2354 7.3963 10.213 7.34662C10.2152 7.34318 10.2173 7.33982 10.2196 7.33638C10.2266 7.36694 10.2317 7.38566 10.2317 7.38566L10.3069 7.47406L10.2956 7.50038Z" fill="#F8CF4D"/>
<path d="M10.8894 7.84271C10.6998 7.66655 10.5763 7.48743 10.5569 7.36311C10.6106 7.49823 10.7514 7.67295 10.9468 7.83807L10.8894 7.84271Z" fill="#FBE6AB"/>
<path d="M10.5874 7.86725C10.4679 7.74405 10.3691 7.61933 10.2955 7.50037L10.3068 7.47405L10.3865 7.56765L10.5911 7.86693L10.5874 7.86725Z" fill="#FBDBA0"/>
<path d="M10.6378 7.8631L10.3866 7.56766L10.3129 7.45998L10.3069 7.47406L10.2317 7.38566C10.2317 7.38566 10.2266 7.36694 10.2196 7.33638C10.2269 7.32502 10.2345 7.31374 10.2423 7.30254L10.3288 7.2955C10.373 7.43046 10.4631 7.61854 10.6438 7.86262L10.6378 7.8631Z" fill="#FBE6AB"/>
<path d="M10.3866 7.56769L10.3069 7.47409L10.3129 7.46001L10.3866 7.56769Z" fill="#FDEBD1"/>
<path d="M12.0976 7.74481C12.0181 7.64537 11.9235 7.54457 11.8162 7.44641C11.9235 7.54457 12.0181 7.64537 12.0977 7.74481H12.0976Z" fill="#6CDEF8"/>
<path d="M11.7316 7.77448C11.6588 7.68544 11.5648 7.592 11.4549 7.50208C11.4545 7.50176 11.4541 7.50144 11.4538 7.50112C11.4536 7.50104 11.4536 7.50096 11.4535 7.50088C11.4332 7.4844 11.4124 7.46792 11.3911 7.45168C11.2753 7.36344 11.1585 7.29088 11.05 7.23704L11.5101 7.19975C11.542 7.22239 11.5738 7.24583 11.6055 7.27015C11.6796 7.32687 11.7494 7.38543 11.8146 7.44495C11.8152 7.44543 11.8156 7.44592 11.8161 7.4464C11.9235 7.54456 12.018 7.64536 12.0976 7.7448L11.7316 7.77448Z" fill="#F8CF4D"/>
<path d="M10.9467 7.83807C10.7514 7.67295 10.6106 7.49823 10.5568 7.36311C10.5448 7.33287 10.5371 7.30455 10.5342 7.27887H10.5344C10.5421 7.34447 10.5805 7.42655 10.6433 7.51583C10.6071 7.43231 10.6018 7.36239 10.6359 7.31767C10.6619 7.28343 10.7081 7.26719 10.7687 7.26719C10.9333 7.26719 11.2047 7.38695 11.4709 7.58991C11.5511 7.65111 11.624 7.71463 11.6879 7.77799L10.9467 7.83807ZM11.7313 7.77447C11.6587 7.68551 11.5648 7.59199 11.4549 7.50207C11.5648 7.59199 11.6588 7.68543 11.7315 7.77447H11.7313Z" fill="#F9B253"/>
<path d="M11.4535 7.50088C11.4332 7.48432 11.4124 7.46792 11.3911 7.45168C11.2753 7.36336 11.1585 7.29088 11.05 7.23704C11.1585 7.29088 11.2753 7.36344 11.3911 7.45168C11.4124 7.46792 11.4332 7.4844 11.4535 7.50088Z" fill="#DAA85A"/>
<path d="M11.6879 7.77802C11.624 7.71466 11.5511 7.65114 11.4709 7.58994C11.2047 7.38698 10.9333 7.26722 10.7687 7.26722C10.7081 7.26722 10.6619 7.28345 10.6359 7.31769C10.6018 7.36241 10.6071 7.43234 10.6433 7.51586C10.5805 7.42658 10.5421 7.34449 10.5344 7.27889L11.05 7.23706C11.1585 7.2909 11.2753 7.36337 11.3911 7.45169C11.4123 7.46793 11.4331 7.48433 11.4535 7.50089C11.4535 7.50097 11.4536 7.50106 11.4538 7.50114C11.4541 7.50146 11.4545 7.50177 11.4549 7.50209C11.5648 7.59201 11.6587 7.68553 11.7313 7.77449L11.6879 7.77802Z" fill="#DA945E"/>
<path d="M11.099 8.28992C11.0397 8.25056 10.9803 8.20824 10.9213 8.16304C10.8666 8.12112 10.8143 8.07832 10.7644 8.0348L11.0894 8.00848C11.2321 8.114 11.3751 8.19528 11.5014 8.24664L11.099 8.28992Z" fill="#F8CF4D"/>
<path d="M11.5014 8.24664C11.3751 8.19528 11.2321 8.114 11.0894 8.00848L11.1655 8.00232C11.3524 8.12632 11.5331 8.206 11.6684 8.22864L11.5014 8.24664Z" fill="#FBE6AB"/>
<path d="M12.2829 8.02338C12.2647 7.9885 12.244 7.9529 12.2211 7.91682H12.2212C12.244 7.95282 12.2647 7.98834 12.2829 8.02314C12.2829 8.02322 12.2829 8.0233 12.2829 8.02338Z" fill="#6CDEF8"/>
<path d="M11.9181 8.20184C11.9222 8.16616 11.9141 8.12336 11.8952 8.07568C11.8892 8.03744 11.8733 7.99392 11.8488 7.94696L12.2211 7.9168C12.244 7.95288 12.2647 7.98848 12.2829 8.02336C12.2835 8.06272 12.2786 8.09488 12.2557 8.16552L11.9181 8.20184Z" fill="#F8CF4D"/>
<path d="M11.8483 8.20935C11.8585 8.20255 11.8674 8.19439 11.8747 8.18487C11.8903 8.16423 11.8979 8.13831 11.8978 8.10823C11.8978 8.09783 11.8969 8.08695 11.8951 8.07567C11.9141 8.12335 11.9222 8.16615 11.9181 8.20183L11.8483 8.20935Z" fill="#FBE6AB"/>
<path d="M11.6684 8.22864C11.5331 8.206 11.3524 8.12632 11.1655 8.00232L11.8386 7.94776C11.8486 7.96088 11.8582 7.97384 11.8672 7.98664C11.8616 7.97376 11.8553 7.96048 11.8482 7.94696H11.8487C11.8806 8.00784 11.8978 8.0628 11.8978 8.10824C11.8978 8.13832 11.8903 8.16424 11.8746 8.18488C11.8674 8.1944 11.8585 8.20256 11.8482 8.20936L11.6684 8.22864Z" fill="#F9B253"/>
<path d="M11.8673 7.98663C11.8583 7.97383 11.8487 7.96087 11.8387 7.94775L11.8483 7.94695C11.8554 7.96047 11.8617 7.97375 11.8673 7.98663Z" fill="#DA945E"/>
</g>
<path d="M10.4923 6.85768C10.3805 6.85768 10.2972 6.88657 10.254 6.94305C10.1121 7.12825 10.3686 7.65232 10.9635 8.10816C11.5585 8.56408 12.1313 8.67536 12.2731 8.49016C12.4151 8.30496 12.1586 7.78088 11.5636 7.32496C11.15 7.00808 10.7471 6.85768 10.4923 6.85768ZM12.0335 8.71368C11.7277 8.71368 11.2964 8.53736 10.8795 8.21792C10.2519 7.73696 9.9289 7.14008 10.1443 6.85896C10.3597 6.57784 11.0201 6.7344 11.6477 7.21528C12.2753 7.69624 12.5982 8.29313 12.3828 8.57425C12.3106 8.66857 12.188 8.71368 12.0335 8.71368Z" fill="#6B184E"/>
<path d="M10.3013 6.94546C10.3013 6.94546 10.2816 6.95426 10.2515 6.97234C9.95959 7.1473 9.85719 7.52426 10.0184 7.8305C10.1393 8.05994 10.3589 8.29762 10.671 8.53682C11.0553 8.83122 11.4779 9.01178 11.7477 8.99706C11.7529 8.99674 11.758 8.9969 11.7631 8.9973C11.7813 8.99866 12.1273 9.01338 12.2548 8.45058C12.2561 8.4449 12.2578 8.43938 12.26 8.43394C12.338 8.24074 12.0848 7.7737 11.5397 7.3561C11.007 6.94778 10.491 6.8201 10.3186 6.93602C10.3131 6.9397 10.3073 6.94282 10.3013 6.94546ZM11.718 9.21442C11.3969 9.21442 10.9506 9.0237 10.5393 8.70866C10.2021 8.45018 9.96247 8.18874 9.82687 7.9313C9.61215 7.52346 9.74975 7.02074 10.1402 6.78666C10.1701 6.76874 10.1934 6.75706 10.2057 6.75122C10.4959 6.56658 11.0961 6.74338 11.6714 7.18426C12.2531 7.63002 12.5844 8.18362 12.4641 8.50618C12.3051 9.19314 11.8381 9.21506 11.7557 9.21346C11.7433 9.2141 11.7307 9.21434 11.718 9.21442Z" fill="#6B184E"/>
<path d="M6.61672 14.7092C6.24007 14.1476 5.7543 13.8002 5.4763 13.8758C5.4763 13.8758 5.10129 13.8982 4.90973 14.2833C4.71665 14.5238 4.85045 15.0954 5.23563 15.6698C5.53054 16.1095 5.89232 16.4178 6.16895 16.4949H6.16898C6.16898 16.4949 6.58504 16.6816 6.94577 16.0918C7.13489 15.8717 6.99974 15.2803 6.61672 14.7092Z" fill="#F7C714"/>
<path d="M6.50727 15.7583C6.42823 15.7583 6.32075 15.7007 6.20522 15.6008L6.36928 15.6373C6.42218 15.6657 6.47031 15.6809 6.51095 15.6809C6.52327 15.6809 6.53491 15.6795 6.54578 15.6766L6.61431 15.6919C6.60481 15.712 6.59174 15.728 6.57493 15.7393C6.55589 15.7521 6.53309 15.7583 6.50727 15.7583ZM5.96539 15.2617L5.89132 15.2432C5.88457 15.2334 5.87786 15.2237 5.87119 15.2137C5.82781 15.1494 5.78892 15.085 5.75488 15.0221L5.81082 15.0361C5.83092 15.0694 5.85228 15.1029 5.87487 15.1364C5.90438 15.1801 5.93468 15.2221 5.96539 15.2617Z" fill="#FBE695"/>
<path d="M5.82898 15.5479L5.39124 15.9099L5.99479 16.494C5.99479 16.494 6.41706 16.2423 6.45923 16.1714C6.45923 16.1714 5.78153 15.7255 5.82898 15.5479Z" fill="#F89E1D"/>
<path d="M5.09828 15.4624L5.06517 15.3858C5.07771 15.4094 5.09072 15.4331 5.10419 15.457L5.09828 15.4624ZM4.89672 14.996L4.88672 14.9729L4.88864 14.9707C4.89125 14.9791 4.89395 14.9876 4.89672 14.996Z" fill="#A3E0F1"/>
<path d="M5.1041 15.457C5.09063 15.4331 5.07762 15.4095 5.06508 15.3858L4.89663 14.996C4.89386 14.9876 4.89117 14.9791 4.88855 14.9707L4.94887 14.9032C4.95723 14.9455 4.97044 14.9891 4.98998 15.0331C4.98998 15.0331 4.97273 14.9777 4.94947 14.9025L5.3021 14.5075C5.33369 14.6438 5.38718 14.7935 5.46098 14.9485L5.46463 14.9495L5.5035 15.0879L5.1041 15.457Z" fill="#FAD787"/>
<path d="M4.94895 14.9032C4.9485 14.9009 4.94806 14.8986 4.94763 14.8963C4.94827 14.8984 4.94892 14.9005 4.94955 14.9025L4.94895 14.9032Z" fill="#FBE695"/>
<path d="M4.98996 15.033C4.97042 14.989 4.95721 14.9454 4.94885 14.9032L4.94945 14.9025C4.97272 14.9777 4.98996 15.033 4.98996 15.033Z" fill="#FDEDC9"/>
<path d="M4.8274 14.4988C4.82733 14.4963 4.82777 14.493 4.82868 14.4889C4.82823 14.4922 4.82781 14.4955 4.8274 14.4988ZM4.96398 14.1902C5.01401 14.0909 5.05862 14.0065 5.05862 14.0065L5.23093 13.9494L5.23172 13.9513C5.14272 13.9974 5.04433 14.0715 4.96398 14.1902Z" fill="#A5EFFF"/>
<path d="M4.94762 14.8963C4.90154 14.7474 4.83368 14.527 4.82764 14.5009C4.8275 14.5003 4.82742 14.4996 4.82739 14.4988C4.8278 14.4955 4.82822 14.4922 4.82867 14.4889C4.83867 14.4445 4.90508 14.307 4.96398 14.1902C5.04432 14.0715 5.14271 13.9974 5.23171 13.9513L5.31073 14.1385C5.31071 14.1385 5.31069 14.1386 5.31068 14.1387C5.30443 14.1401 5.08045 14.1949 5.00327 14.479C5.00327 14.479 4.90506 14.6674 4.94762 14.8963Z" fill="#FBE695"/>
<path d="M5.54403 15.0463L5.51001 14.9608L5.51588 14.9622C5.52465 14.9895 5.53402 15.0175 5.54403 15.0463Z" fill="#FBE695"/>
<path d="M5.41833 13.8846C5.42088 13.8824 5.42345 13.8805 5.42608 13.8787C5.42608 13.8787 5.42657 13.8787 5.42753 13.8787C5.43039 13.8787 5.43739 13.8787 5.44784 13.8792C5.43955 13.8805 5.42963 13.8822 5.41833 13.8846Z" fill="#A5EFFF"/>
<path d="M5.28259 14.3278C5.28713 14.2822 5.29573 14.2114 5.31061 14.1387C5.3107 14.1386 5.31074 14.1386 5.31074 14.1386L5.31066 14.1385C5.33179 14.0352 5.36558 13.9282 5.41832 13.8845C5.42962 13.8821 5.43954 13.8805 5.44782 13.8792C5.54012 13.8832 5.90211 13.9182 6.06641 14.2189C6.06641 14.2189 5.83556 14.0845 5.63374 14.052C5.62266 14.0501 5.61165 14.0493 5.60081 14.0493C5.50251 14.0493 5.41757 14.1205 5.40545 14.2217C5.40192 14.2511 5.39954 14.2851 5.39915 14.3241L5.31498 14.3029C5.30399 14.3111 5.2932 14.3193 5.28259 14.3278Z" fill="#FBE695"/>
<path d="M5.31067 14.1387C5.31068 14.1387 5.3107 14.1386 5.31072 14.1385L5.3108 14.1387C5.3108 14.1387 5.31076 14.1387 5.31067 14.1387Z" fill="#FDF4CF"/>
<path d="M6.35546 14.8124C6.6114 15.1922 6.71128 15.5725 6.57856 15.6619C6.44584 15.7514 6.13075 15.5161 5.87483 15.1364C5.61889 14.7567 5.51901 14.3764 5.65173 14.2869C5.78446 14.1975 6.09953 14.4327 6.35546 14.8124Z" fill="#F9DD6A"/>
<path d="M6.35546 14.8124C6.6114 15.1922 6.71128 15.5725 6.57856 15.6619C6.44584 15.7514 6.13075 15.5161 5.87483 15.1364C5.61889 14.7567 5.51901 14.3764 5.65173 14.2869C5.78446 14.1975 6.09953 14.4327 6.35546 14.8124Z" fill="#F89F1D"/>
<path d="M6.10117 14.4998H6.10116C5.9562 14.3546 5.81639 14.2679 5.71939 14.2679C5.69357 14.2679 5.67077 14.2741 5.65173 14.2869C5.6466 14.2904 5.64182 14.2942 5.63739 14.2985C5.64182 14.2942 5.6466 14.2903 5.65173 14.2869C5.67077 14.2741 5.69356 14.2679 5.71939 14.2679C5.81638 14.2679 5.95621 14.3546 6.10117 14.4998Z" fill="#CD9226"/>
<path d="M6.62974 15.4281L6.62046 15.4258C6.59825 15.3602 6.56862 15.2897 6.53209 15.2167L6.5743 15.2272C6.60164 15.3003 6.62037 15.3682 6.62974 15.4281ZM6.10115 14.4999L5.59937 14.3742C5.60609 14.3427 5.61849 14.3171 5.63695 14.299C5.63702 14.2989 5.63709 14.2988 5.63716 14.2988C5.63723 14.2987 5.6373 14.2987 5.63737 14.2986C5.64181 14.2943 5.64659 14.2904 5.65172 14.2869C5.67076 14.2741 5.69356 14.2679 5.71938 14.2679C5.81637 14.2679 5.95619 14.3547 6.10115 14.4999Z" fill="#CD762C"/>
<mask id="mask2_42225_12653" style="mask-type:luminance" maskUnits="userSpaceOnUse" x="5" y="13" width="3" height="4">
<path d="M6.61672 14.7092C7.02922 15.3243 7.15448 15.9632 6.89651 16.1362C6.63853 16.3092 6.095 15.9508 5.6825 15.3357C5.27 14.7206 5.14473 14.0818 5.40272 13.9087C5.66069 13.7358 6.20422 14.0941 6.61672 14.7092Z" fill="white"/>
</mask>
<g mask="url(#mask2_42225_12653)">
<path d="M6.93084 15.3165H6.93079C6.86072 15.1237 6.75485 14.9151 6.61676 14.7092C6.5945 14.676 6.57189 14.6436 6.54895 14.612C6.5719 14.6436 6.59451 14.676 6.61677 14.7092C6.75483 14.9151 6.86073 15.1237 6.93084 15.3165Z" fill="#6CDEF8"/>
<path d="M6.93068 15.3165L6.57448 15.2273C6.5326 15.1157 6.47064 14.9923 6.39134 14.8674C6.39121 14.8672 6.39108 14.8669 6.39095 14.8668C6.3906 14.8662 6.39023 14.8657 6.38988 14.8651C6.38957 14.8646 6.38927 14.8641 6.38897 14.8637C6.38891 14.8636 6.38882 14.8634 6.38877 14.8633C6.37795 14.8464 6.36682 14.8294 6.35537 14.8124C6.274 14.6917 6.18665 14.5856 6.10108 14.4998L6.54884 14.612C6.57178 14.6436 6.59439 14.676 6.61665 14.7092C6.75473 14.9151 6.86061 15.1237 6.93068 15.3165ZM5.75474 15.0221L5.51578 14.9622C5.42286 14.6731 5.3977 14.466 5.3991 14.3241L5.59909 14.3741C5.59493 14.3934 5.59289 14.415 5.59292 14.4386C5.59293 14.4459 5.59313 14.4534 5.59353 14.4611C5.5721 14.5851 5.6317 14.7945 5.75474 15.0221Z" fill="#F8CF4D"/>
<path d="M5.81079 15.0361L5.75486 15.0221C5.63182 14.7945 5.57222 14.5851 5.59365 14.4611C5.60124 14.6064 5.67862 14.817 5.81079 15.0361Z" fill="#FBE6AB"/>
<path d="M5.50997 14.9608L5.46463 14.9495L5.36663 14.6004L5.50997 14.9608ZM5.30211 14.5075C5.28813 14.4473 5.27845 14.3896 5.27319 14.3354C5.27631 14.3329 5.27945 14.3303 5.2826 14.3279C5.2795 14.359 5.2783 14.3783 5.2783 14.3783L5.32119 14.4862L5.30211 14.5075Z" fill="#F8CF4D"/>
<path d="M5.46465 14.9494L5.461 14.9484C5.3872 14.7935 5.33372 14.6437 5.30212 14.5075L5.3212 14.4861L5.36665 14.6004L5.46465 14.9494Z" fill="#FBDBA0"/>
<path d="M5.51586 14.9622L5.50999 14.9608L5.36666 14.6004L5.33138 14.4748L5.32121 14.4861L5.27832 14.3783C5.27832 14.3783 5.27952 14.3589 5.28262 14.3278C5.29323 14.3193 5.30402 14.3111 5.31502 14.3029L5.39918 14.3241C5.39778 14.466 5.42294 14.6731 5.51586 14.9622Z" fill="#FBE6AB"/>
<path d="M5.36662 14.6004L5.32117 14.4862L5.33133 14.4748L5.36662 14.6004Z" fill="#FDEBD1"/>
<path d="M6.57458 15.2273L6.57432 15.2272C6.53259 15.1158 6.47077 14.9924 6.39144 14.8675C6.47074 14.9923 6.5327 15.1158 6.57458 15.2273ZM6.53211 15.2167L5.81078 15.0361C5.6786 14.8171 5.60123 14.6064 5.59363 14.4611C5.59323 14.4535 5.59303 14.4459 5.59302 14.4387C5.59299 14.4151 5.59503 14.3935 5.59919 14.3742H5.59939C5.58563 14.4388 5.59571 14.5289 5.62657 14.6336C5.61904 14.5429 5.63639 14.475 5.68305 14.4435C5.7021 14.4307 5.72488 14.4245 5.75072 14.4245C5.90497 14.4245 6.16758 14.6438 6.3868 14.969C6.44316 15.0527 6.49183 15.1362 6.53211 15.2167ZM6.39105 14.8668C6.39069 14.8663 6.39035 14.8657 6.38998 14.8651C6.39033 14.8657 6.3907 14.8663 6.39105 14.8668Z" fill="#F9B253"/>
<path d="M6.39135 14.8674C6.39121 14.8672 6.39109 14.867 6.39095 14.8668C6.39108 14.867 6.39122 14.8672 6.39135 14.8674ZM6.38988 14.8651C6.38958 14.8646 6.38928 14.8642 6.38897 14.8637C6.38927 14.8642 6.38958 14.8646 6.38988 14.8651ZM6.35537 14.8124C6.274 14.6917 6.18664 14.5856 6.10107 14.4998H6.10108C6.18665 14.5856 6.274 14.6917 6.35537 14.8124Z" fill="#DAA85A"/>
<path d="M6.57423 15.2272L6.53201 15.2166C6.49173 15.1361 6.44307 15.0526 6.38671 14.9689C6.16748 14.6437 5.90487 14.4245 5.75063 14.4245C5.72479 14.4245 5.702 14.4306 5.68295 14.4434C5.63629 14.4749 5.61895 14.5429 5.62647 14.6336C5.59561 14.5289 5.58554 14.4388 5.59929 14.3741L6.10107 14.4998C6.18664 14.5856 6.274 14.6917 6.35537 14.8124C6.36683 14.8294 6.37795 14.8464 6.38877 14.8633C6.38883 14.8634 6.38891 14.8636 6.38897 14.8637C6.38928 14.8641 6.38958 14.8646 6.38988 14.8651C6.39025 14.8657 6.39059 14.8662 6.39095 14.8668C6.39109 14.8669 6.39121 14.8672 6.39135 14.8674C6.47067 14.9924 6.53249 15.1157 6.57423 15.2272Z" fill="#DA945E"/>
<path d="M7.01703 15.6398C7.01094 15.6009 7.0028 15.5606 6.99268 15.5191H6.99276C7.00288 15.5605 7.01101 15.6007 7.01711 15.6395C7.01708 15.6396 7.01705 15.6397 7.01703 15.6398Z" fill="#6CDEF8"/>
<path d="M6.94576 15.7657L6.61426 15.6919C6.62963 15.6594 6.63565 15.6163 6.63297 15.565C6.63587 15.5482 6.63728 15.5299 6.63726 15.5101C6.63723 15.485 6.63486 15.4576 6.63023 15.4282L6.99266 15.519C7.00279 15.5605 7.01092 15.6009 7.01701 15.6397C7.00493 15.6773 6.99003 15.7061 6.94576 15.7657Z" fill="#F8CF4D"/>
<path d="M6.61419 15.6919L6.54565 15.6766C6.55755 15.6735 6.56853 15.6686 6.57848 15.6619C6.6074 15.6425 6.62528 15.6091 6.6329 15.565C6.63558 15.6163 6.62957 15.6594 6.61419 15.6919Z" fill="#FBE6AB"/>
<path d="M6.20511 15.6008L5.81019 15.5128C5.76658 15.4565 5.72386 15.3974 5.68246 15.3356C5.64412 15.2785 5.60826 15.2211 5.57495 15.1639L5.89122 15.2432C5.99258 15.3888 6.10204 15.5116 6.20511 15.6008Z" fill="#F8CF4D"/>
<path d="M6.3692 15.6373L6.20513 15.6008C6.10206 15.5116 5.9926 15.3888 5.89124 15.2432L5.96531 15.2616C6.10264 15.4391 6.24831 15.5725 6.3692 15.6373Z" fill="#FBE6AB"/>
<path d="M6.54572 15.6766L6.36922 15.6374C6.24833 15.5726 6.10267 15.4391 5.96533 15.2617L6.62046 15.4258C6.62574 15.4414 6.6306 15.4567 6.63504 15.4718C6.63387 15.4578 6.6321 15.4432 6.62974 15.4281L6.63023 15.4282C6.63485 15.4576 6.63722 15.485 6.63725 15.5102C6.63728 15.5299 6.63586 15.5482 6.63296 15.565C6.62534 15.6091 6.60746 15.6425 6.57854 15.6619C6.5686 15.6686 6.55761 15.6735 6.54572 15.6766Z" fill="#F9B253"/>
<path d="M6.63506 15.4717C6.63063 15.4567 6.62576 15.4414 6.62048 15.4257L6.62976 15.4281C6.63212 15.4432 6.63389 15.4577 6.63506 15.4717Z" fill="#DA945E"/>
</g>
<path d="M5.55462 13.9356C5.51007 13.9356 5.47178 13.9457 5.44122 13.9661C5.24744 14.0961 5.32246 14.6747 5.73994 15.2972C6.15742 15.9197 6.66439 16.2087 6.85804 16.0788C7.05183 15.9488 6.97682 15.3701 6.55933 14.7477C6.20769 14.2233 5.79257 13.9356 5.55462 13.9356ZM6.74554 16.2475C6.43263 16.2475 5.98408 15.9094 5.62514 15.3742C5.18472 14.7175 5.07014 14.0485 5.36423 13.8513C5.65831 13.6541 6.2337 14.014 6.67414 14.6707C7.11454 15.3274 7.22914 15.9963 6.93503 16.1936C6.88062 16.2301 6.81658 16.2475 6.74554 16.2475Z" fill="#6B184E"/>
<path d="M6.21237 16.3957C6.22879 16.4026 6.55213 16.5281 6.85344 16.0354C6.85649 16.0304 6.8599 16.0258 6.86367 16.0214C6.99945 15.8633 6.90928 15.3397 6.52685 14.7695L6.52684 14.7694C6.15297 14.2119 5.70523 13.9257 5.50471 13.9802C5.49836 13.9819 5.49187 13.983 5.48531 13.9836C5.48535 13.9836 5.46381 13.9857 5.42949 13.9931C5.09687 14.0653 4.8791 14.3895 4.93373 14.7313C4.97465 14.9874 5.10649 15.2828 5.32554 15.6095C5.59516 16.0115 5.9376 16.3182 6.19799 16.3906C6.20291 16.3919 6.20772 16.3937 6.21237 16.3957ZM6.32793 16.629C6.23245 16.629 6.1625 16.6076 6.13613 16.5981C5.82484 16.5096 5.44578 16.1774 5.14577 15.7301C4.90914 15.3772 4.76588 15.0526 4.71998 14.7654C4.64722 14.3103 4.93871 13.8782 5.38355 13.7816C5.41765 13.7742 5.44346 13.7706 5.45701 13.769C5.79092 13.6869 6.30297 14.047 6.70664 14.649L6.70662 14.6489C7.11481 15.2575 7.25116 15.8881 7.03389 16.1552C6.7899 16.5498 6.51164 16.629 6.32793 16.629Z" fill="#6B184E"/>
<path d="M19.9763 8.62216C19.9763 9.36032 19.3779 9.9588 18.6397 9.9588C17.9015 9.9588 17.3031 9.36032 17.3031 8.62216C17.3031 7.884 17.9015 7.2856 18.6397 7.2856C19.3779 7.2856 19.9763 7.884 19.9763 8.62216Z" fill="#F9C710"/>
<path d="M19.9763 8.61121C19.9705 7.87809 19.3743 7.28561 18.6398 7.28561C18.1805 7.28561 17.7753 7.51729 17.5347 7.87017C17.5225 7.88137 17.5105 7.89289 17.4988 7.90449C17.733 7.52041 18.1565 7.26361 18.6398 7.26361C19.3777 7.26361 19.9764 7.86233 19.9764 8.60025C19.9764 8.60393 19.9764 8.60753 19.9763 8.61121Z" fill="#A5EFFF"/>
<path d="M19.5803 9.54846C19.7027 9.3459 19.7737 9.10878 19.7737 8.85486C19.7737 8.57486 19.6872 8.31462 19.5395 8.10006C19.4949 8.1307 19.4485 8.14406 19.4039 8.14406C19.2224 8.14406 19.0704 7.9235 19.1913 7.75182C18.9767 7.60478 18.7171 7.5183 18.4371 7.5183C18.0885 7.5183 17.7723 7.65134 17.5347 7.87014C17.7752 7.51726 18.1804 7.28558 18.6398 7.28558C19.3743 7.28558 19.9704 7.87806 19.9763 8.61118C19.9733 8.97758 19.8227 9.30958 19.5803 9.54846Z" fill="#FCE693"/>
<path d="M19.3405 8.62214C19.3405 9.00918 19.0267 9.32294 18.6398 9.32294C18.2527 9.32294 17.939 9.00918 17.939 8.62214C17.939 8.23518 18.2527 7.92142 18.6398 7.92142C19.0267 7.92142 19.3405 8.23518 19.3405 8.62214Z" fill="#F89F1D"/>
<path d="M18.581 9.38751C18.422 9.38751 18.275 9.33479 18.1576 9.24543C18.131 9.26255 18.1039 9.27007 18.0778 9.27007C17.9596 9.27007 17.8647 9.11567 17.9599 9.01191C17.9085 8.91479 17.8796 8.80439 17.8796 8.68687C17.8796 8.49095 17.9605 8.31303 18.0908 8.18655C18.0852 8.19359 18.0798 8.20063 18.0745 8.20783C18.0746 8.20775 18.0747 8.20767 18.0748 8.20759C18.0363 8.25991 18.0049 8.31775 17.9821 8.37975C17.9541 8.45535 17.9388 8.53711 17.9388 8.62215C17.9388 8.86095 18.0583 9.07191 18.2409 9.19839C18.3541 9.27687 18.4916 9.32295 18.6398 9.32295C18.8284 9.32295 18.9995 9.24847 19.1255 9.12727C18.9973 9.28631 18.801 9.38751 18.581 9.38751Z" fill="#FCE693"/>
<path d="M18.6397 9.32294C18.4915 9.32294 18.3541 9.27686 18.2409 9.19838C18.3541 9.27686 18.4917 9.32278 18.6401 9.32278C18.83 9.32278 19.0023 9.24686 19.1282 9.12374C19.1273 9.12494 19.1264 9.12614 19.1254 9.12726C18.9994 9.24846 18.8283 9.32294 18.6397 9.32294ZM17.9821 8.37974C18.0049 8.31774 18.0362 8.2599 18.0747 8.20758C18.0752 8.20718 18.0757 8.2067 18.0762 8.20622C18.0372 8.25878 18.0053 8.3171 17.9821 8.37974Z" fill="#FCD499"/>
<path d="M19.2351 8.99194C19.3019 8.88466 19.3405 8.75794 19.3405 8.62218C19.3405 8.3025 19.1264 8.03282 18.8337 7.94866C19.1265 8.03274 19.3407 8.3025 19.3407 8.62218C19.3407 8.75794 19.3021 8.88482 19.2351 8.99194ZM18.0907 8.18658C18.1517 8.1097 18.2287 8.04594 18.3166 8.00026C18.2289 8.04586 18.1522 8.10946 18.0912 8.1861C18.091 8.18626 18.0909 8.18642 18.0907 8.18658Z" fill="#CE9223"/>
<path d="M19.1037 9.14624C19.1902 9.03016 19.2409 8.886 19.2409 8.73048C19.2409 8.3436 18.9271 8.02984 18.5402 8.02984C18.3624 8.02984 18.1999 8.09672 18.0763 8.20624C18.0821 8.1984 18.0881 8.1908 18.0942 8.1832C18.0933 8.18416 18.0922 8.18512 18.0913 8.18608C18.1523 8.10944 18.229 8.04584 18.3167 8.00024C18.4135 7.94992 18.5235 7.92152 18.6401 7.92152C18.7073 7.92152 18.7723 7.93096 18.8338 7.94864C19.1265 8.0328 19.3405 8.30248 19.3405 8.62216C19.3405 8.75792 19.302 8.88464 19.2352 8.99192C19.1991 9.04968 19.1547 9.10168 19.1037 9.14624Z" fill="#CD762C"/>
<path d="M18.0745 8.20782C18.0797 8.20062 18.0851 8.19358 18.0907 8.18654C18.0909 8.18638 18.091 8.18622 18.0912 8.18606C18.0855 8.19318 18.0801 8.2003 18.0747 8.20758C18.0746 8.20766 18.0745 8.20774 18.0745 8.20782Z" fill="#D0A87E"/>
<path d="M18.0747 8.20758C18.0801 8.2003 18.0855 8.19318 18.0912 8.18606C18.0921 8.1851 18.0932 8.18414 18.0941 8.18318C18.0881 8.19078 18.0821 8.19838 18.0762 8.20622C18.0757 8.2067 18.0752 8.20718 18.0747 8.20758Z" fill="#D09B82"/>
<path d="M18.6398 7.41847C17.976 7.41847 17.4361 7.95847 17.4361 8.62215C17.4361 9.28591 17.976 9.82584 18.6398 9.82584C19.3035 9.82584 19.8435 9.28591 19.8435 8.62215C19.8435 7.95847 19.3035 7.41847 18.6398 7.41847ZM18.6398 10.0917C17.8295 10.0917 17.1703 9.43247 17.1703 8.62215C17.1703 7.81191 17.8295 7.15272 18.6398 7.15272C19.45 7.15272 20.1092 7.81191 20.1092 8.62215C20.1092 9.43247 19.45 10.0917 18.6398 10.0917Z" fill="#6B184E"/>
</svg>
