<svg width="30" height="32" viewBox="0 0 30 32" fill="none" xmlns="http://www.w3.org/2000/svg">
<path d="M17.6933 15.5742C17.1457 15.5886 16.4537 15.7277 15.7816 16.0012C15.005 16.3276 14.4076 16.7642 14.079 17.1769C13.7504 17.5752 13.7205 17.8775 13.8251 18.0551C13.9346 18.2326 14.2383 18.4006 14.8208 18.4246C15.4033 18.4582 16.1899 18.319 16.9615 18.0023C17.7332 17.6808 18.3405 17.2393 18.6691 16.8362C18.9977 16.4379 19.0226 16.126 18.918 15.9485C18.8135 15.7661 18.5048 15.6077 17.9223 15.5886C17.8427 15.5742 17.773 15.5742 17.6933 15.5742ZM10.9077 20.0321C10.5792 20.0369 10.2805 20.0753 10.0116 20.1425C9.42417 20.2865 9.08563 20.5456 8.97611 20.8575C8.85165 21.1694 8.97611 21.5437 9.36442 21.9468C9.77266 22.3403 10.4447 22.7194 11.2811 22.9305C12.1125 23.1417 12.914 23.1369 13.5115 22.9833C14.1138 22.8346 14.4524 22.5706 14.5619 22.2635C14.6764 21.9516 14.5619 21.5821 14.1587 21.1742C13.7654 20.7807 13.0933 20.4016 12.2569 20.1953C11.7839 20.0753 11.3209 20.0273 10.9077 20.0321ZM18.9081 22.8202L15.8314 24.2262C16.0405 24.2358 16.5632 24.2502 16.5632 24.2502L16.8918 24.6677L19.615 23.3L18.9081 22.8202ZM16.1948 22.825L13.3372 24.1302C13.611 24.1446 14.2582 24.1542 14.5171 24.1686L16.9964 23.0361L16.1948 22.825ZM20.8049 23.3432L17.2951 25.1379L18.0169 26.0353L21.7259 23.8951L20.8049 23.3432ZM6.92499 23.7799C6.77425 23.7796 6.62395 23.7957 6.47694 23.8279C2.91736 24.6197 0.816462 24.6868 0.194159 24.6868H0V29.8454C0 29.8454 0.577498 29.7638 1.53833 29.759C3.39529 29.759 6.66612 30.0662 9.85231 31.8609C10.0216 31.9616 10.385 32 10.838 32C12.0478 32 13.8848 31.7217 14.308 31.5681C18.5695 30.0278 23.6973 25.8001 23.6973 25.8001L22.0793 24.4373C22.0793 24.4373 18.1065 26.8798 17.6037 27.115C13.0684 29.26 9.39429 27.9212 9.39429 27.9212C9.39429 27.9212 15.3634 28.0651 17.2801 26.6111L16.155 24.9796C16.155 24.9796 12.0329 24.8692 10.5642 24.682C9.79755 24.5861 8.13973 23.7799 6.92499 23.7799Z" fill="#38B1EC"/>
<path d="M21.9803 0C21.4146 0.0109783 21.0084 0.117102 20.7388 0.307393L17.0448 2.21396L14.9909 4.90695C14.5581 5.55101 14.8656 6.79522 16.2172 5.99746L17.6978 4.11651C19.5771 2.55429 23.4116 3.27118 21.593 6.40732C20.7009 8.2224 21.1185 9.10799 22.2688 9.48125L22.7927 7.78327C23.7001 5.81449 25.3934 5.45953 25.325 3.87133L29.3949 4.1531L29.3569 0.0512322L21.9803 0ZM19.9264 3.7835C19.2658 3.77252 18.6166 4.036 18.1458 4.41658L16.6614 6.29754C17.0676 6.60859 17.4776 6.44026 17.8838 6.06333C18.3622 6.29754 18.7343 5.93525 19.038 5.21068C19.1633 4.71666 19.3493 4.36901 19.9264 3.7835ZM16.9043 7.29657C16.8892 7.29657 16.8702 7.29657 16.855 7.30023C16.7297 7.32584 16.5816 7.45392 16.4829 7.74668C16.3804 8.03943 16.3576 8.45661 16.4488 8.90306C16.5399 9.34586 16.7297 9.72278 16.9423 9.95698C17.1473 10.1875 17.3371 10.2534 17.4624 10.2278C17.5915 10.2058 17.7358 10.0741 17.8345 9.78499C17.937 9.49223 17.9636 9.0714 17.8725 8.6286C17.7775 8.18215 17.5877 7.80523 17.3789 7.57468C17.1967 7.36975 17.0296 7.29657 16.9043 7.29657ZM20.0403 11.2049C19.7403 11.2085 19.3645 11.3 18.9962 11.472C18.5748 11.6733 18.2445 11.9514 18.0661 12.2075C17.8876 12.46 17.8725 12.6503 17.9294 12.7638C17.9864 12.8736 18.1534 12.9797 18.4723 12.9943C18.7912 13.0126 19.2202 12.9285 19.6416 12.7272C20.0631 12.5259 20.3933 12.2515 20.5718 11.9953C20.7502 11.7428 20.7654 11.5488 20.7085 11.4391C20.6515 11.3256 20.4845 11.2231 20.1656 11.2085C20.1238 11.2049 20.0858 11.2049 20.0403 11.2049ZM16.3349 14.7033C16.1564 14.7069 15.9932 14.7326 15.8489 14.7728C15.5262 14.8643 15.3402 15.029 15.2794 15.2229C15.2149 15.4205 15.2794 15.6547 15.4958 15.9072C15.716 16.1561 16.0843 16.3939 16.5399 16.5257C16.9917 16.6574 17.4321 16.6538 17.7586 16.5586C18.0851 16.4671 18.2711 16.3025 18.3318 16.1085C18.3926 15.9109 18.3318 15.6767 18.1116 15.4242C17.8952 15.1753 17.527 14.9375 17.0714 14.8057C16.8132 14.7326 16.5627 14.6996 16.3349 14.7033Z" fill="#E3C25F"/>
</svg>
