<svg width="32" height="32" viewBox="0 0 32 32" fill="none" xmlns="http://www.w3.org/2000/svg">
<path d="M22.7184 25.2728C22.3849 25.7613 21.953 26.1827 21.4598 26.5189C20.9666 26.8552 20.412 27.1062 19.8329 27.2531C19.3205 27.3831 18.789 27.432 18.2641 27.3862C17.6671 27.3347 17.0781 27.1609 16.5357 26.8465C16.1385 26.5993 15.7484 26.2928 15.3704 25.9218C15.0416 25.5993 14.7717 25.2216 14.5644 24.8104L12.0846 19.8844L13.9431 18.8026L16.2944 23.4733C16.4654 23.8126 16.702 24.1172 17.0004 24.3523C17.5069 24.7514 18.0756 24.8936 18.625 24.8537C19.1385 24.8162 19.6349 24.6202 20.0484 24.3257L20.0488 24.3253C20.1914 24.2242 20.3238 24.1117 20.4436 23.9895C20.5472 23.8845 20.6412 23.7728 20.7244 23.656C21.108 23.1167 21.2571 22.4681 21.0032 21.8659C21.0032 21.8651 21.0028 21.8643 21.0025 21.8635C20.9736 21.7956 20.94 21.728 20.9006 21.6616L20.9002 21.6609L19.1572 18.1981L18.2107 16.3181L20.0496 15.2481H20.0512L20.9947 17.1226L23.132 21.368L23.1328 21.3695C23.6987 22.857 23.437 24.2199 22.7184 25.2728Z" fill="#72AEF7"/>
<path d="M24.6311 24.1626C24.6179 24.1965 24.6038 24.2305 24.5897 24.2641C24.284 24.9885 23.797 25.6543 23.1862 26.2019C23.0628 26.3127 22.934 26.4186 22.8008 26.519C22.0084 27.1184 21.0532 27.5304 20.0339 27.6523C19.4903 27.7175 18.9292 27.7003 18.3644 27.5855C17.7521 27.4609 17.1363 27.2211 16.5356 26.8466C17.078 27.161 17.667 27.3347 18.264 27.3863C18.7889 27.432 19.3204 27.3831 19.8328 27.2531C20.3034 27.1336 20.7576 26.9458 21.1762 26.699C21.2281 26.6685 21.2793 26.6369 21.33 26.6045C21.3738 26.5767 21.4168 26.5483 21.4597 26.519C21.9529 26.1827 22.3848 25.7613 22.7184 25.2728C23.4369 24.2199 23.6986 22.8571 23.1327 21.3695L23.1319 21.368L20.9946 17.1227L20.0511 15.2482L21.8143 15.4535L22.759 17.3304L24.4569 20.7041C24.9994 21.7807 25.0752 23.0414 24.6311 24.1626Z" fill="#72AEF7"/>
<path d="M20.9885 17.1098L20.9896 17.1125L19.1495 18.1833L18.2107 16.3182L20.0497 15.2482H20.0512L21.8144 15.4535L22.7513 17.3151L20.9885 17.1098Z" fill="#B6ABBA"/>
<path d="M24.6311 24.1626C24.6179 24.1965 24.6039 24.2305 24.5898 24.2641C24.284 24.9885 23.7971 25.6543 23.1863 26.2019C23.0628 26.3127 22.934 26.4186 22.8008 26.519H21.4598L20.0484 24.3258L20.0488 24.3254C20.0594 24.3207 20.2863 24.2184 20.4436 23.9895C20.5471 23.8845 20.6412 23.7728 20.7244 23.656C21.1079 23.1167 21.2571 22.4681 21.0032 21.8659C21.0032 21.8651 21.0028 21.8643 21.0025 21.8635C20.9735 21.7956 20.94 21.728 20.9006 21.6616L20.9002 21.6609L19.1572 18.1981L20.9947 17.1227L21.0119 17.1125L22.7591 17.3304L24.457 20.7041C24.9995 21.7807 25.0752 23.0414 24.6311 24.1626Z" fill="#EF3737"/>
<path d="M16.4618 26.9846C16.3441 26.9218 16.2268 26.8541 16.11 26.7813C16.1814 26.8227 16.2536 26.8617 16.3265 26.8982C16.3681 26.9255 16.4098 26.9522 16.4517 26.9783C16.4521 26.9785 16.4525 26.9789 16.453 26.9791C16.456 26.9809 16.4589 26.9828 16.4618 26.9846Z" fill="#C2F6FF"/>
<path d="M20.7244 23.656C20.2644 24.3031 19.4672 24.7925 18.6249 24.8538C18.0753 24.8936 17.5068 24.7515 17.0004 24.3523C16.702 24.1171 16.4652 23.8128 16.2944 23.4735L13.943 18.8027L15.6808 19.005V19.0053L17.4541 22.5279C18.2976 23.9852 19.7976 24.6081 20.7244 23.656Z" fill="#72AEF7"/>
<path d="M16.6212 20.8736L14.8838 20.6713L14.8819 20.6678L13.0237 21.7495L12.0846 19.8844L13.9431 18.8026L15.6808 19.005V19.0053L16.6212 20.8736Z" fill="#B6ABBA"/>
<path d="M12.112 19.8925L13.0324 21.7203L14.8896 20.6391L14.8968 20.6519L16.5852 20.8484L15.667 19.0243L13.9475 18.8242L12.112 19.8925ZM13.015 21.7787L12.057 19.8763L13.9385 18.7811L15.7016 18.9863V19.0003L16.6572 20.8988L14.8816 20.692L13.015 21.7787Z" fill="#000072"/>
<path d="M18.6543 27.2469C18.5281 27.2469 18.4025 27.2415 18.2776 27.2306C17.6799 27.179 17.1209 27.0047 16.6161 26.7125C16.221 26.4663 15.8387 26.1628 15.4797 25.8104C15.1691 25.5056 14.9081 25.1455 14.7041 24.7401L13.1682 21.6895L13.3887 21.5612L14.9158 24.5948C15.1232 25.0061 15.3931 25.3837 15.7219 25.7062C16.0999 26.0773 16.4901 26.3838 16.8872 26.631C17.4297 26.9453 18.0185 27.1191 18.6157 27.1707C18.7448 27.1819 18.8743 27.1874 19.0038 27.1874C19.1941 27.1874 19.3844 27.1755 19.5736 27.1523C19.2661 27.2153 18.9588 27.2469 18.6543 27.2469Z" fill="#C7DFFC"/>
<path d="M13.1494 21.6522L12.2902 19.9454L12.5106 19.8171L13.3698 21.5239L13.1494 21.6522Z" fill="#E2DDE3"/>
<path d="M13.1681 21.6895L13.1494 21.6522L13.3698 21.5239L13.3886 21.5612L13.1681 21.6895Z" fill="#9999C7"/>
<path d="M19.8262 24.1029C19.8313 24.1023 19.8364 24.1018 19.8414 24.1012C19.9612 24.0875 20.0784 24.0591 20.1918 24.015C20.1917 24.0151 20.1917 24.0151 20.1915 24.0153C20.0733 24.0611 19.9512 24.09 19.8262 24.1029Z" fill="#48A3D4"/>
<path d="M18.4489 24.704C17.9571 24.704 17.4926 24.5414 17.0971 24.2296C16.8252 24.0153 16.6021 23.7373 16.434 23.4032L15.0807 20.7152L16.1432 20.8389L16.9855 22.5121C17.5528 23.4923 18.4171 24.0951 19.2041 24.0951C19.2643 24.0951 19.3242 24.0916 19.3833 24.0844C19.3876 24.0852 19.3918 24.0859 19.3961 24.0866C19.4888 24.1025 19.5813 24.1108 19.6727 24.1108C19.7242 24.1108 19.7754 24.1081 19.8262 24.1029C19.9512 24.09 20.0733 24.0611 20.1915 24.0153C19.7505 24.4056 19.1839 24.6565 18.6136 24.6979C18.5584 24.702 18.5036 24.704 18.4489 24.704Z" fill="#5079CF"/>
<path d="M16.1207 20.7943L15.0583 20.6706L14.1497 18.8657L15.2122 18.9893V18.9897L16.1207 20.7943Z" fill="#7F77A4"/>
<path d="M16.1432 20.8389L15.0807 20.7152L15.0583 20.6706L16.1207 20.7943L16.1432 20.8389Z" fill="#000072"/>
<path d="M20.9376 23.6182C21.3079 23.0276 21.3858 22.3763 21.1491 21.81C21.1482 21.8074 21.1473 21.8049 21.1461 21.8024C21.1141 21.7268 21.0775 21.6542 21.0377 21.5866L19.3551 18.2443L19.5758 18.1158L21.2516 21.4453L21.252 21.4461C21.2914 21.5125 21.325 21.58 21.3539 21.648C21.3543 21.6487 21.3547 21.6495 21.3547 21.6503C21.6085 22.2525 21.4593 22.9011 21.0758 23.4405C21.0326 23.5011 20.9865 23.5604 20.9376 23.6182Z" fill="#F9AFAF"/>
<path d="M19.2144 17.9647L18.4163 16.3792L18.6367 16.2509L19.4351 17.8363L19.2144 17.9647Z" fill="#E2DDE3"/>
<path d="M16.6161 26.7127C17.1208 27.0048 17.6798 27.1791 18.2775 27.2307C18.776 27.2741 19.2863 27.2307 19.7944 27.1017C20.9368 26.8115 21.9555 26.1129 22.5893 25.1847C23.3448 24.0779 23.4866 22.7452 22.9891 21.4315L19.9859 15.4659L18.4162 16.3792L21.0376 21.5867C21.0775 21.6543 21.114 21.7268 21.1461 21.8024C21.1472 21.8049 21.1482 21.8075 21.1491 21.81C21.4032 22.4177 21.2948 23.1232 20.8516 23.7466C20.3422 24.4632 19.4932 24.9472 18.6362 25.0095C18.0045 25.0553 17.4054 24.8706 16.9036 24.475C16.5956 24.2322 16.3437 23.9189 16.1548 23.5437L13.8781 19.0211L12.2901 19.9455L14.704 24.7401C14.908 25.1455 15.169 25.5056 15.4796 25.8104C15.8387 26.1629 16.221 26.4664 16.6161 26.7127ZM18.6542 27.5594C18.5191 27.5594 18.3844 27.5535 18.2505 27.5419C17.606 27.4863 17.0026 27.2978 16.4573 26.9818C16.4559 26.9809 16.4544 26.9801 16.4531 26.9792C16.0379 26.7207 15.6368 26.4024 15.2608 26.0334C14.9256 25.7046 14.6444 25.3167 14.4249 24.8806L11.9449 19.9547C11.9078 19.8808 11.9345 19.7909 12.0059 19.7494L13.8644 18.6676C13.9016 18.646 13.9462 18.6407 13.9875 18.6529C14.0288 18.6651 14.0632 18.6939 14.0825 18.7324L16.434 23.4032C16.6021 23.7373 16.8252 24.0154 17.0971 24.2296C17.5365 24.5761 18.0609 24.7382 18.6136 24.6979C19.3801 24.6422 20.1401 24.2083 20.5971 23.5655C20.9829 23.0229 21.076 22.4408 20.8592 21.9266C20.8583 21.9243 20.8575 21.9221 20.8566 21.9199C20.8296 21.8571 20.7992 21.7971 20.7662 21.7415C20.7643 21.7382 20.7624 21.7348 20.7608 21.7315L20.7604 21.7309L18.071 16.3884C18.0339 16.3147 18.0606 16.2247 18.132 16.1831L19.971 15.1131C19.9948 15.0992 20.022 15.0919 20.0496 15.0919C20.1086 15.0919 20.1641 15.1252 20.1906 15.1779L23.2715 21.2978C23.2731 21.301 23.2746 21.3043 23.276 21.3076C23.2769 21.3097 23.2778 21.3119 23.2786 21.314C23.8165 22.7281 23.6633 24.1653 22.8474 25.3608L22.8473 25.3609C22.1712 26.3511 21.0864 27.0959 19.8712 27.4045C19.4653 27.5075 19.0574 27.5594 18.6542 27.5594Z" fill="#000072"/>
<path d="M19.1496 18.3395C19.0957 18.3395 19.0434 18.3117 19.0144 18.2619C18.971 18.1873 18.9963 18.0917 19.0708 18.0483L20.9109 16.9775C20.9855 16.9341 21.0812 16.9593 21.1245 17.0339C21.1679 17.1085 21.1426 17.2041 21.068 17.2475L19.228 18.3183C19.2032 18.3327 19.1762 18.3395 19.1496 18.3395Z" fill="#000072"/>
<path d="M19.1894 27.5292C19.4638 27.5408 19.7398 27.5301 20.0153 27.4971C21.1261 27.3641 22.2151 26.8628 23.0819 26.0855C23.6811 25.5483 24.1528 24.8974 24.4458 24.2032C24.4595 24.1706 24.473 24.1378 24.4861 24.1048C24.9081 23.0393 24.8467 21.8253 24.3175 20.7741L21.7126 15.5989L20.321 15.4368L23.2715 21.2977C23.2731 21.3009 23.2746 21.3043 23.276 21.3077C23.2769 21.3097 23.2778 21.3118 23.2786 21.314C23.8165 22.7281 23.6633 24.1653 22.8474 25.3608C22.1711 26.351 21.0864 27.0959 19.8712 27.4045C19.6441 27.4621 19.4164 27.5037 19.1894 27.5292ZM19.404 27.8461C19.0443 27.8461 18.6861 27.8102 18.3333 27.7385C17.6808 27.6057 17.0483 27.3503 16.453 26.9791C16.3806 26.934 16.3578 26.8392 16.4018 26.7661C16.4456 26.6929 16.54 26.6686 16.6139 26.7114C17.1192 27.0042 17.679 27.1789 18.2775 27.2306C18.776 27.2741 19.2863 27.2306 19.7943 27.1017C20.9367 26.8115 21.9555 26.1129 22.5893 25.1847C23.3447 24.0778 23.4866 22.7452 22.9891 21.4315L19.9115 15.3183C19.8858 15.267 19.8902 15.2057 19.9231 15.1586C19.9559 15.1115 20.0123 15.0863 20.0691 15.0929L21.8324 15.2984C21.8846 15.3045 21.9302 15.3364 21.9539 15.3833L24.5967 20.6337C25.1658 21.7644 25.2314 23.0716 24.7765 24.22C24.7626 24.255 24.7483 24.29 24.7337 24.3247L24.7336 24.3248C24.4228 25.0611 23.9238 25.7504 23.2904 26.3181C22.3763 27.1378 21.2264 27.6667 20.0524 27.8073C19.8364 27.8332 19.6199 27.8461 19.404 27.8461Z" fill="#000072"/>
<path d="M13.024 21.9058C12.9701 21.9058 12.9178 21.8779 12.8888 21.8281C12.8454 21.7535 12.8706 21.6579 12.9452 21.6145L14.8033 20.5328C14.8396 20.5117 14.8827 20.5061 14.9233 20.5171C14.9259 20.5178 14.9285 20.5186 14.9311 20.5195L16.6393 20.7184C16.725 20.7284 16.7864 20.8059 16.7764 20.8916C16.7665 20.9774 16.6893 21.0389 16.6032 21.0287L14.9108 20.8317L13.1024 21.8845C13.0777 21.8989 13.0506 21.9058 13.024 21.9058Z" fill="#000072"/>
<path d="M22.7518 17.4714C22.7458 17.4714 22.7396 17.4711 22.7335 17.4703L20.9703 17.2649C20.8847 17.2549 20.8232 17.1774 20.8332 17.0916C20.8432 17.006 20.9207 16.9445 21.0065 16.9546L22.7697 17.16C22.8554 17.17 22.9167 17.2475 22.9067 17.3332C22.8975 17.4128 22.83 17.4714 22.7518 17.4714Z" fill="#000072"/>
<path d="M19.3507 27.5334C19.297 27.5329 19.2431 27.5315 19.1895 27.5292C19.413 27.5042 19.637 27.4634 19.8605 27.4073C19.8606 27.4072 19.8607 27.4072 19.8607 27.4072C19.8624 27.4067 19.8641 27.4063 19.8658 27.4059C19.8659 27.4059 19.8659 27.4058 19.866 27.4058C19.8678 27.4054 19.8695 27.405 19.8713 27.4045C20.0192 27.367 20.1653 27.3229 20.3089 27.2727C20.3309 27.265 20.3527 27.2572 20.3746 27.2493C20.4786 27.2114 20.5813 27.1702 20.6824 27.1261C20.6883 27.1234 20.6943 27.1209 20.7003 27.1182C21.0661 26.9568 21.4119 26.7549 21.7282 26.519H22.1779C21.4262 27.0405 20.5442 27.3968 19.6083 27.5089C19.5229 27.5191 19.4371 27.5274 19.3507 27.5334Z" fill="#5079CF"/>
<path d="M22.1779 26.519H21.7282C22.1657 26.1925 22.5469 25.801 22.8475 25.3608C23.3431 24.6347 23.5942 23.8192 23.5943 22.9741C23.5944 22.7757 23.5807 22.5756 23.553 22.3747C23.5044 22.0225 23.4131 21.6675 23.2787 21.314C23.2786 21.3138 23.2785 21.3135 23.2784 21.3133C23.2777 21.3114 23.2769 21.3095 23.276 21.3076C23.276 21.3075 23.276 21.3075 23.276 21.3075C23.2757 21.3067 23.2754 21.3059 23.275 21.3051C23.2739 21.3027 23.2727 21.3002 23.2715 21.2978L21.2582 17.2984L22.4599 17.4384L24.0314 20.5604C24.5738 21.6375 24.6495 22.898 24.2055 24.0188C24.1923 24.0528 24.1782 24.0868 24.1641 24.1207C23.8583 24.8452 23.3714 25.511 22.7606 26.0585C22.5771 26.2231 22.3823 26.3771 22.1779 26.519Z" fill="#A72649"/>
<path d="M19.1895 27.5292C19.4129 27.5041 19.637 27.4634 19.8605 27.4073C19.637 27.4634 19.413 27.5041 19.1895 27.5292ZM23.5943 22.9741C23.5944 22.7757 23.5807 22.5757 23.553 22.3747C23.5807 22.5756 23.5944 22.7757 23.5943 22.9741ZM23.2784 21.3133C23.2777 21.3114 23.2769 21.3095 23.2761 21.3077C23.2761 21.3076 23.276 21.3075 23.276 21.3074C23.276 21.3075 23.276 21.3075 23.276 21.3076C23.2769 21.3095 23.2777 21.3113 23.2784 21.3133Z" fill="#000072"/>
<path d="M18.978 27.5467C18.6351 27.5467 18.2876 27.513 17.9388 27.4421C17.7986 27.4136 17.658 27.3789 17.5174 27.3374C17.3081 27.2574 17.0996 27.1625 16.8926 27.052C16.7731 26.9891 16.654 26.9204 16.5356 26.8465C16.7079 26.9465 16.8852 27.0325 17.066 27.1043C17.4534 27.2589 17.8568 27.3511 18.264 27.3862C18.3932 27.3975 18.5227 27.403 18.6522 27.403C19.0492 27.403 19.4464 27.3512 19.8328 27.2531C20.9907 26.959 22.0513 26.2494 22.7184 25.2728C23.4369 24.2199 23.6986 22.857 23.1327 21.3695L23.1319 21.368L21.0724 17.2768L21.2581 17.2984L23.2715 21.2977C23.2727 21.3001 23.2739 21.3026 23.2749 21.3051C23.2753 21.3059 23.2756 21.3067 23.276 21.3074C23.276 21.3075 23.276 21.3076 23.276 21.3077C23.2768 21.3095 23.2776 21.3114 23.2784 21.3133C23.2784 21.3135 23.2785 21.3137 23.2786 21.314C23.4131 21.6675 23.5044 22.0225 23.5529 22.3747C23.5806 22.5757 23.5944 22.7757 23.5943 22.9741C23.5941 23.8192 23.343 24.6346 22.8474 25.3608C22.5468 25.8009 22.1656 26.1925 21.7281 26.5189C21.4118 26.7549 21.066 26.9568 20.7002 27.1182C20.6943 27.1209 20.6883 27.1234 20.6824 27.1261C20.5812 27.1702 20.4785 27.2113 20.3745 27.2493C20.3527 27.2572 20.3308 27.265 20.3088 27.2727C20.1652 27.3229 20.0192 27.3669 19.8712 27.4045C19.8695 27.4049 19.8677 27.4053 19.866 27.4058C19.8659 27.4058 19.8658 27.4059 19.8657 27.4059C19.864 27.4063 19.8624 27.4067 19.8607 27.4072C19.8606 27.4072 19.8605 27.4072 19.8604 27.4073C19.6369 27.4634 19.4128 27.5041 19.1894 27.5292C19.2431 27.5315 19.2969 27.5329 19.3507 27.5334C19.2272 27.5422 19.1028 27.5467 18.978 27.5467Z" fill="#000072"/>
<path d="M22.2916 17.1043L21.09 16.9643L20.321 15.4368L21.5227 15.5768L22.2916 17.1043Z" fill="#7F77A4"/>
<path d="M20.9181 16.9702L20.0511 15.2482L21.4387 15.4098L21.5227 15.5768L20.3211 15.4368L21.09 16.9643L21.0065 16.9546C21.0003 16.9538 20.9941 16.9534 20.988 16.9534C20.9631 16.9534 20.9393 16.9594 20.9181 16.9702Z" fill="#000072"/>
<path d="M22.4599 17.4384L21.2582 17.2984L21.0724 17.2768L20.9181 16.9702C20.9393 16.9595 20.9631 16.9535 20.988 16.9535C20.9941 16.9535 21.0003 16.9539 21.0065 16.9546L21.09 16.9643L22.2916 17.1043L22.4599 17.4384Z" fill="#000072"/>
<path d="M14.2129 18.9913L16.434 23.4032C16.6022 23.7373 16.8252 24.0154 17.0972 24.2296C17.5366 24.5761 18.061 24.7382 18.6137 24.6979C19.057 24.6657 19.4981 24.507 19.8797 24.2545C19.7427 24.2716 19.6008 24.2714 19.455 24.2532C18.6572 24.1541 17.8586 23.5383 17.3191 22.6061C17.3176 22.6035 17.316 22.6007 17.3147 22.5981L15.579 19.1503L14.2129 18.9913ZM18.4483 25.0164C17.886 25.0164 17.3555 24.8311 16.9037 24.475C16.5957 24.2322 16.3438 23.9189 16.1549 23.5437L13.8036 18.8729C13.7777 18.8215 13.7821 18.7603 13.8151 18.7131C13.848 18.666 13.9042 18.6409 13.9611 18.6475L15.6989 18.8498C15.7555 18.8563 15.802 18.8926 15.8238 18.9418L17.5917 22.4535C18.0752 23.2868 18.8036 23.8575 19.4936 23.9432C19.9215 23.9963 20.3085 23.8594 20.6125 23.5471C20.6694 23.4886 20.7618 23.4838 20.8244 23.5361C20.8872 23.5883 20.8991 23.68 20.8517 23.7466C20.3423 24.4632 19.4933 24.9472 18.6363 25.0095C18.5733 25.0141 18.5106 25.0164 18.4483 25.0164Z" fill="#000072"/>
<path d="M22.801 26.6751H21.4597C21.4066 26.6751 21.3572 26.6481 21.3284 26.6034L19.9169 24.4103C19.8703 24.3378 19.8912 24.2411 19.9638 24.1945C20.0362 24.1477 20.1329 24.1687 20.1796 24.2413L21.545 26.3627H22.801C22.8873 26.3627 22.9572 26.4326 22.9572 26.519C22.9572 26.6052 22.8873 26.6751 22.801 26.6751Z" fill="#000072"/>
<path d="M21.87 11.985L21.4804 14.7318L20.8653 13.8368L20.4808 14.4323L20.7278 12.6554L21.1754 13.5048L21.87 11.985Z" fill="#F7C128"/>
<path d="M20.8653 13.7325C20.8997 13.7325 20.9318 13.7494 20.9513 13.7777L21.4148 14.4521L21.6657 12.683L21.2703 13.5482C21.2537 13.5843 21.2181 13.6079 21.1784 13.609C21.1379 13.6097 21.1017 13.5886 21.0832 13.5534L20.7865 12.9906L20.6491 13.9795L20.7777 13.7802C20.7967 13.7509 20.829 13.733 20.8638 13.7325H20.8653ZM21.4805 14.836C21.4466 14.836 21.4142 14.8195 21.3945 14.7908L20.8681 14.0248L20.5685 14.4889C20.542 14.5299 20.4905 14.547 20.4445 14.5301C20.3988 14.513 20.3709 14.4664 20.3776 14.418L20.6245 12.6411C20.6308 12.5962 20.6653 12.5606 20.7098 12.5527C20.7544 12.545 20.7989 12.5668 20.8201 12.6069L21.1688 13.2686L21.7751 11.9417C21.7966 11.8946 21.8494 11.8704 21.8993 11.885C21.949 11.8995 21.9805 11.9484 21.9732 11.9997L21.5837 14.7464C21.5777 14.7889 21.5461 14.8234 21.5043 14.8332C21.4964 14.8351 21.4884 14.836 21.4805 14.836Z" fill="#000072"/>
<path d="M15.2795 15.6722L14.2379 18.0123L13.9185 17.0619L13.4263 17.4934L14.0955 15.9782L14.2779 16.8458L15.2795 15.6722Z" fill="#F7C128"/>
<path d="M13.9185 16.9577C13.9276 16.9577 13.9367 16.9589 13.9456 16.9613C13.9793 16.9703 14.0062 16.9957 14.0173 17.0287L14.2516 17.7254L14.8916 16.2873L14.3572 16.9134C14.3314 16.9437 14.2906 16.9566 14.2521 16.9467C14.2136 16.937 14.184 16.9061 14.1759 16.8672L14.0601 16.3165L13.7123 17.104L13.8497 16.9835C13.869 16.9666 13.8935 16.9577 13.9185 16.9577ZM14.238 18.1166C14.2364 18.1166 14.2347 18.1166 14.2331 18.1165C14.1901 18.1145 14.1528 18.0863 14.1392 18.0456L13.8695 17.2435L13.4951 17.5718C13.4582 17.604 13.404 17.6063 13.3646 17.5774C13.3252 17.5484 13.3112 17.4959 13.3309 17.4512L14.0002 15.9361C14.0185 15.8946 14.0614 15.87 14.1064 15.8745C14.1515 15.8792 14.1884 15.9125 14.1976 15.9567L14.3363 16.6166L15.2002 15.6046C15.2338 15.5651 15.2913 15.5564 15.3352 15.584C15.379 15.6117 15.3959 15.6673 15.3748 15.7146L14.3332 18.0547C14.3164 18.0925 14.2791 18.1166 14.238 18.1166Z" fill="#000072"/>
<path d="M15.2032 13.9649L17.3206 15.7574L17.1848 14.6799L17.868 14.8691L16.502 13.7062L16.7325 14.6382L15.2032 13.9649Z" fill="#F7C128"/>
<path d="M15.82 14.3503L17.1837 15.5048L17.0815 14.6929C17.0772 14.6583 17.0904 14.6238 17.1168 14.601C17.1432 14.5782 17.1792 14.5701 17.2128 14.5794L17.4414 14.6427L16.6811 13.9954L16.8339 14.6131C16.8434 14.6517 16.8302 14.6924 16.7997 14.718C16.7693 14.7436 16.727 14.7496 16.6906 14.7336L15.82 14.3503ZM17.3207 15.8616C17.2965 15.8616 17.2725 15.8532 17.2532 15.8369L15.1359 14.0445C15.0964 14.011 15.0874 13.9536 15.1148 13.9096C15.1424 13.8657 15.1979 13.8486 15.2453 13.8694L16.5805 14.4573L16.4009 13.7312C16.39 13.6872 16.4088 13.6413 16.4473 13.6174C16.4857 13.5937 16.5352 13.5973 16.5697 13.6267L17.9357 14.7897C17.9729 14.8213 17.9832 14.8747 17.9602 14.9179C17.9373 14.961 17.8873 14.9825 17.8403 14.9695L17.308 14.8221L17.4241 15.7443C17.4295 15.7869 17.4081 15.8285 17.3704 15.8489C17.3548 15.8574 17.3376 15.8616 17.3207 15.8616Z" fill="#000072"/>
<path d="M8.92212 19.5438L11.0292 20.4938L10.6734 19.6619L11.264 19.6567L9.90308 19.0386L10.3016 19.7322L8.92212 19.5438Z" fill="#F7C128"/>
<path d="M9.48128 19.7043L10.8683 20.3297L10.5967 19.6947C10.5858 19.669 10.5883 19.6396 10.6036 19.6162C10.6189 19.5929 10.6448 19.5787 10.6726 19.5785L10.886 19.5766L10.1045 19.2216L10.3739 19.6906C10.3898 19.7182 10.3886 19.7524 10.3708 19.7788C10.353 19.8052 10.3218 19.819 10.2903 19.8148L9.48128 19.7043ZM11.0292 20.5772C11.0176 20.5772 11.0059 20.5748 10.995 20.5698L8.88784 19.6198C8.85008 19.6027 8.83056 19.5606 8.842 19.5207C8.85344 19.4808 8.89272 19.4558 8.93344 19.461L10.1447 19.6266L9.8308 19.0801C9.81272 19.0486 9.81704 19.0092 9.84144 18.9824C9.86576 18.9556 9.90456 18.9476 9.9376 18.9626L11.2985 19.5807C11.3342 19.5969 11.3538 19.6357 11.3456 19.6739C11.3375 19.7122 11.3039 19.7398 11.2647 19.7401L10.7994 19.7442L11.1059 20.461C11.1194 20.4926 11.1122 20.5292 11.0876 20.5533C11.0718 20.569 11.0506 20.5772 11.0292 20.5772Z" fill="#000072"/>
<path d="M16.7137 6.41471C16.5958 7.31135 15.7788 7.96231 14.8102 7.99199C14.6892 7.99591 14.5654 7.99007 14.4409 7.97367C13.3181 7.82607 12.5156 6.88879 12.6484 5.88007C12.7807 4.87135 13.7985 4.17311 14.9212 4.32071C16.0439 4.46831 16.8465 5.40599 16.7137 6.41471Z" fill="#F7C128"/>
<path d="M14.0812 7.76569C13.3396 7.52825 12.8135 6.90849 12.7631 6.20809C12.8731 6.46137 13.0387 6.69265 13.2476 6.88721C13.4176 7.24753 13.7094 7.55657 14.0812 7.76569Z" fill="#FCE6A9"/>
<path d="M14.6199 4.42615C14.208 4.42615 13.8128 4.54455 13.4842 4.76999C13.0845 5.04407 12.8317 5.44415 12.7723 5.89631C12.6488 6.83503 13.4047 7.71127 14.4572 7.84967C14.9693 7.91695 15.4739 7.80151 15.8776 7.52455C16.2773 7.25039 16.5301 6.85039 16.5896 6.39823C16.713 5.45951 15.9572 4.58327 14.9048 4.44487C14.8093 4.43231 14.7141 4.42615 14.6199 4.42615ZM14.742 8.11871C14.6368 8.11871 14.5308 8.11175 14.4244 8.09783C13.2352 7.94143 12.3827 6.93919 12.5241 5.86367C12.5929 5.34015 12.8836 4.87847 13.3426 4.56359C13.7974 4.25167 14.3638 4.12135 14.9374 4.19671C16.1266 4.35311 16.9791 5.35527 16.8377 6.43079C16.7689 6.95439 16.4782 7.41607 16.0192 7.73095C15.6488 7.98511 15.2041 8.11871 14.742 8.11871Z" fill="#000072"/>
<path d="M16.8148 5.79727C16.6822 6.80599 15.6646 7.50407 14.542 7.35647C13.4192 7.20887 12.6167 6.27151 12.7493 5.26279C12.882 4.25407 13.8996 3.55599 15.0222 3.70359C16.1448 3.85119 16.9474 4.78855 16.8148 5.79727Z" fill="#F7C128"/>
<path d="M14.8235 6.69C14.7714 6.69 14.719 6.6872 14.6666 6.68152L14.0815 5.02488C14.1463 4.95472 14.2195 4.89152 14.2995 4.8364C14.3875 4.776 14.4837 4.7252 14.5862 4.68544C14.6347 4.66664 14.6848 4.65032 14.736 4.63664L15.4148 6.55928C15.3951 6.56864 15.3751 6.57752 15.3549 6.58592C15.1887 6.6548 15.0078 6.69 14.8235 6.69Z" fill="#FCE6A9"/>
<path d="M15.8498 6.21802L15.2758 4.59258C15.2949 4.5941 15.3141 4.59642 15.3332 4.59882C15.4315 4.61162 15.5262 4.63338 15.6165 4.66298C15.943 4.91578 16.1234 5.30122 16.071 5.69938V5.69946C16.0464 5.88778 15.9702 6.06586 15.8498 6.21802Z" fill="#FCE6A9"/>
<path d="M14.8431 7.25122C14.7489 7.25122 14.6537 7.24498 14.5583 7.2325C14.3389 7.20362 14.1325 7.14274 13.9442 7.05594C14.0081 7.0613 14.0717 7.06386 14.1347 7.06386C14.4404 7.06386 14.7325 7.0021 14.9942 6.8897C15.012 6.88786 15.0297 6.8857 15.0473 6.8833C15.0512 6.8833 15.0551 6.8833 15.0589 6.8833C15.7433 6.8833 16.3287 6.43082 16.4111 5.80162C16.4611 5.42354 16.3185 5.06002 16.0537 4.7925C15.9634 4.4837 15.7867 4.2013 15.5459 3.97106C15.8366 4.09106 16.0932 4.2741 16.2942 4.5089C16.6093 4.87706 16.7502 5.32882 16.6908 5.78098C16.6313 6.23322 16.3785 6.63322 15.9789 6.90738C15.6503 7.13274 15.255 7.25122 14.8431 7.25122Z" fill="#C69A37"/>
<path d="M13.2166 6.48486C12.9499 6.14246 12.8156 5.71758 12.8733 5.2791C12.9328 4.82686 13.1856 4.42686 13.5852 4.1527C13.9138 3.92726 14.3091 3.80886 14.721 3.80886C14.8141 3.80886 14.9081 3.81494 15.0024 3.82718C14.9916 3.82702 14.9808 3.82694 14.9701 3.82694C13.9711 3.82694 13.1172 4.48782 12.9967 5.40598C12.9464 5.7891 13.0308 6.16182 13.2166 6.48486Z" fill="#FCE6A9"/>
<path d="M14.721 3.80891C14.3091 3.80891 13.9138 3.9273 13.5853 4.15274C13.1856 4.4269 12.9328 4.8269 12.8733 5.27914C12.7499 6.21778 13.5057 7.0941 14.5582 7.2325C15.0705 7.29986 15.575 7.18434 15.9788 6.90738C16.3784 6.63322 16.6312 6.23322 16.6907 5.78098C16.7501 5.32882 16.6093 4.87707 16.2941 4.50891C15.9757 4.13699 15.5181 3.89498 15.0058 3.82762C14.9105 3.81514 14.8153 3.80891 14.721 3.80891ZM14.843 7.50146C14.7379 7.50146 14.6319 7.49458 14.5256 7.48058C13.3363 7.32426 12.4838 6.32203 12.6252 5.24651C12.6941 4.72299 12.9847 4.26122 13.4437 3.94634C13.8985 3.63434 14.4648 3.5041 15.0385 3.57954C15.6121 3.6549 16.1256 3.92722 16.4842 4.34618C16.8461 4.7689 17.0076 5.2901 16.9388 5.81362C16.87 6.33714 16.5793 6.7989 16.1204 7.1137C15.7499 7.36786 15.3053 7.50146 14.843 7.50146Z" fill="#000072"/>
<path d="M14.7409 4.36976C14.6799 4.36976 14.6191 4.3736 14.559 4.3812C14.3211 4.41192 14.0991 4.50216 13.9175 4.64232C13.6807 4.82472 13.5299 5.07976 13.4929 5.36064C13.4527 5.66504 13.5477 5.96936 13.7602 6.21744C13.9753 6.4688 14.2846 6.63224 14.6308 6.6776L14.6379 6.67848C14.6402 6.67872 14.6424 6.67912 14.6447 6.6792C14.6469 6.67936 14.6492 6.67952 14.6515 6.67984C14.8942 6.70864 15.1373 6.67616 15.3549 6.58592C15.533 6.51208 15.691 6.40056 15.8117 6.26344C15.9543 6.10176 16.0439 5.9068 16.0709 5.69944V5.69936C16.1445 5.13992 15.7587 4.60568 15.1535 4.42904C15.0819 4.40768 15.0079 4.39208 14.9331 4.38232C14.8691 4.374 14.8049 4.36976 14.7409 4.36976ZM14.8235 6.89856C14.7591 6.89856 14.6943 6.8948 14.6297 6.88728C14.6237 6.8868 14.6178 6.88608 14.6119 6.88536L14.6064 6.88472C14.2063 6.83232 13.8505 6.6436 13.6017 6.35312C13.3503 6.05944 13.2382 5.69728 13.2861 5.33344C13.3303 4.99752 13.5093 4.69336 13.7902 4.47712C14.0011 4.31448 14.2578 4.20976 14.5325 4.17432C14.6735 4.15648 14.8175 4.15688 14.9601 4.17552C15.0457 4.18672 15.1307 4.20464 15.2125 4.22896C15.9165 4.43456 16.3647 5.0644 16.2777 5.72648C16.2453 5.97512 16.1383 6.20848 15.9682 6.40128C15.8266 6.56216 15.6421 6.69264 15.4347 6.77856C15.2433 6.85792 15.035 6.89856 14.8235 6.89856Z" fill="#000072"/>
<path d="M13.9012 6.35846C13.8507 6.31518 13.8035 6.26814 13.7602 6.21742C13.5477 5.96934 13.4527 5.66502 13.4929 5.36062C13.5299 5.07974 13.6807 4.8247 13.9175 4.6423C14.0991 4.50214 14.3211 4.4119 14.559 4.38118C14.6191 4.37358 14.6799 4.36974 14.7409 4.36974C14.8049 4.36974 14.8691 4.37398 14.9331 4.3823C15.0079 4.39206 15.0819 4.40766 15.1535 4.42902C15.3279 4.4799 15.4841 4.56054 15.6163 4.66294C15.5261 4.63334 15.4314 4.61158 15.3331 4.59878C15.2641 4.58966 15.1955 4.58526 15.128 4.58526C14.9367 4.58526 14.7531 4.6207 14.5862 4.68542C14.4836 4.7251 14.3875 4.7759 14.2995 4.83638C14.0183 5.02966 13.8218 5.32174 13.7765 5.66686C13.7444 5.9107 13.7922 6.14846 13.9012 6.35846Z" fill="#C69A37"/>
<path d="M14.2996 4.83643C14.3875 4.77595 14.4836 4.72515 14.5862 4.68547C14.4837 4.72523 14.3876 4.77603 14.2996 4.83643Z" fill="#CAB89E"/>
<path d="M14.0609 6.59631C13.6024 6.33695 13.3228 5.85511 13.3896 5.34703C13.4724 4.71791 14.0573 4.26543 14.7413 4.26543C14.8089 4.26543 14.8774 4.26983 14.9465 4.27895C15.3355 4.33007 15.6682 4.51951 15.8901 4.78351C15.8046 4.73519 15.713 4.69455 15.6164 4.66295C15.4841 4.56055 15.328 4.47991 15.1536 4.42903C15.082 4.40767 15.0079 4.39207 14.9331 4.38231C14.8691 4.37399 14.8049 4.36975 14.7409 4.36975C14.6799 4.36975 14.6192 4.37359 14.559 4.38119C14.3211 4.41191 14.0992 4.50215 13.9175 4.64231C13.6807 4.82471 13.5299 5.07975 13.4929 5.36063C13.4528 5.66503 13.5477 5.96935 13.7602 6.21743C13.8036 6.26815 13.8508 6.31519 13.9013 6.35847C13.945 6.44263 13.9986 6.52239 14.0609 6.59631Z" fill="#000072"/>
<path d="M14.7419 7.86841C14.7219 7.86841 14.702 7.86817 14.6821 7.86761C14.5363 7.71929 14.4111 7.56849 14.3146 7.44329C14.3836 7.45865 14.454 7.47113 14.5256 7.48057C14.6319 7.49457 14.7379 7.50145 14.8431 7.50145C15.3053 7.50145 15.7499 7.36785 16.1204 7.11369C16.2556 7.02089 16.3763 6.91537 16.481 6.79921C16.3604 7.08497 16.1543 7.33489 15.8777 7.52457C15.5491 7.75001 15.1538 7.86841 14.7419 7.86841Z" fill="#C69A37"/>
<path d="M14.8103 7.992C14.766 7.95112 14.7233 7.90944 14.6821 7.8676C14.702 7.86816 14.722 7.8684 14.7419 7.8684C15.1538 7.8684 15.5492 7.75 15.8777 7.52456C16.1543 7.33488 16.3604 7.08496 16.481 6.7992C16.5642 6.70688 16.6374 6.60776 16.6997 6.50312C16.5415 7.35384 15.7467 7.96328 14.8103 7.992Z" fill="#000072"/>
<path d="M14.8431 7.50146C14.738 7.50146 14.632 7.49458 14.5257 7.48058C14.4541 7.47114 14.3837 7.45866 14.3146 7.4433C14.1806 7.2693 14.1023 7.14458 14.1023 7.14458C14.5197 7.29194 14.8749 7.35082 15.1757 7.35082C16.3754 7.3509 16.7137 6.41474 16.7137 6.41474C16.7098 6.44442 16.7051 6.47394 16.6997 6.50314C16.6374 6.60778 16.5642 6.7069 16.481 6.79922C16.3764 6.91538 16.2557 7.0209 16.1205 7.1137C15.75 7.36786 15.3053 7.50146 14.8431 7.50146Z" fill="#000072"/>
<path d="M12.0084 17.7201C11.9233 17.7822 11.8331 17.8333 11.7393 17.8736C11.5078 17.9751 11.2551 18.011 11.0032 17.9872H11.0028C10.524 17.9419 10.0476 17.6806 9.72305 17.2347C9.20721 16.5263 9.25169 15.5976 9.79337 15.0552C9.84529 15.0029 9.90153 14.9545 9.96241 14.9103C10.5514 14.4819 11.3727 14.5701 11.9537 15.0751C11.9842 15.1017 12.0139 15.1293 12.0431 15.1583C12.1162 15.2305 12.1849 15.3102 12.2478 15.3961C12.8129 16.1721 12.7055 17.2124 12.0084 17.7201Z" fill="#F7C128"/>
<path d="M10.8176 14.7683C10.5343 14.7683 10.2658 14.8533 10.0403 15.0175C9.73387 15.2406 9.54243 15.5843 9.50107 15.9855C9.45915 16.3919 9.57603 16.8078 9.83003 17.1566C10.084 17.5055 10.444 17.7443 10.8436 17.8293C11.2381 17.9131 11.624 17.8363 11.9304 17.6133C12.2368 17.3902 12.4284 17.0463 12.4696 16.6453C12.5116 16.2389 12.3947 15.8229 12.1408 15.4741C11.8867 15.1253 11.5268 14.8864 11.1271 14.8015C11.0229 14.7793 10.9193 14.7683 10.8176 14.7683ZM11.1541 18.1274C11.0339 18.1274 10.9115 18.1144 10.7886 18.0883C10.3249 17.9898 9.90843 17.7143 9.61595 17.3125C9.32339 16.9107 9.18907 16.4299 9.23763 15.9583C9.28675 15.4815 9.51651 15.0713 9.88443 14.8034C10.2524 14.5355 10.7132 14.4427 11.1822 14.5424C11.6459 14.641 12.0623 14.9165 12.3548 15.3183C12.6473 15.7199 12.7816 16.2009 12.7331 16.6724C12.684 17.1492 12.4543 17.5594 12.0863 17.8274C11.8148 18.0251 11.4927 18.1274 11.1541 18.1274Z" fill="#000072"/>
<path d="M11.7393 17.8736C11.6874 17.9259 11.6311 17.9743 11.5702 18.0189C11.0676 18.3848 10.3963 18.3738 9.84879 18.049H9.84839C9.63631 17.9232 9.44263 17.7498 9.28487 17.5331C8.71983 16.7571 8.82679 15.7163 9.52423 15.2087C9.60943 15.1466 9.69959 15.0955 9.79335 15.0552C10.4275 14.7787 11.2203 14.9873 11.7237 15.5855C11.7538 15.6203 11.7822 15.6567 11.8096 15.6945C12.3251 16.4025 12.281 17.3311 11.7393 17.8736Z" fill="#F7C128"/>
<path d="M11.1134 17.5258L9.8988 16.3111C9.94392 16.165 10.0202 16.0305 10.126 15.9181C10.1447 15.8983 10.1642 15.8792 10.1847 15.8609L11.4595 17.1361C11.4542 17.1479 11.4486 17.1596 11.4427 17.1711C11.3803 17.296 11.2918 17.4006 11.1792 17.4828C11.1655 17.493 11.1514 17.5024 11.1354 17.5122C11.1282 17.5169 11.1208 17.5214 11.1134 17.5258Z" fill="#FCE6A9"/>
<path d="M11.5296 16.9055L10.36 15.7358C10.3984 15.7144 10.4379 15.6958 10.4783 15.6799C10.5541 15.6502 10.6329 15.6304 10.7131 15.62C10.7234 15.623 10.7338 15.6262 10.7441 15.6296L11.4833 16.3687C11.5035 16.4275 11.5188 16.4875 11.529 16.548C11.5492 16.6671 11.5493 16.7893 11.5296 16.9055Z" fill="#FCE6A9"/>
<path d="M9.45687 17.5392C9.43447 17.512 9.41279 17.4839 9.39175 17.4549C9.13775 17.1061 9.02087 16.6902 9.06279 16.2838C9.10415 15.8827 9.29559 15.5389 9.60199 15.3158C9.83287 15.1477 10.1038 15.0675 10.3802 15.0675C10.389 15.0675 10.3977 15.0676 10.4065 15.0677C10.181 15.1009 9.96383 15.1858 9.77143 15.3258C9.10711 15.8097 8.97847 16.7777 9.45687 17.5392Z" fill="#FCE6A9"/>
<path d="M10.3802 15.0675C10.1038 15.0675 9.83292 15.1477 9.60204 15.3158C9.29564 15.5389 9.1042 15.8827 9.06284 16.2838C9.02092 16.6902 9.1378 17.1061 9.3918 17.4549C9.91292 18.1706 10.8551 18.3756 11.4922 17.9117C11.7986 17.6885 11.9901 17.3448 12.0314 16.9437C12.0733 16.5373 11.9564 16.1213 11.7024 15.7725C11.3702 15.3161 10.8666 15.0675 10.3802 15.0675ZM10.7149 18.4244C10.1461 18.4244 9.56172 18.1382 9.17772 17.6109C8.88516 17.2092 8.75084 16.7282 8.7994 16.2567C8.84852 15.7798 9.0782 15.3697 9.4462 15.1017C10.2012 14.552 11.3095 14.7829 11.9165 15.6165C12.2091 16.0183 12.3434 16.4993 12.2948 16.9708C12.2458 17.4477 12.016 17.8578 11.648 18.1257C11.3707 18.3277 11.0454 18.4244 10.7149 18.4244Z" fill="#000072"/>
<path d="M10.4337 15.5795C10.4216 15.5795 10.4095 15.5797 10.3976 15.5802C10.318 15.583 10.2405 15.5961 10.1664 15.6189C10.1018 15.6389 10.0401 15.6662 9.98324 15.7C9.96084 15.7131 9.93844 15.7279 9.91436 15.7453C9.81108 15.8205 9.727 15.9168 9.6646 16.0311C9.50596 16.3231 9.51092 16.6913 9.67804 17.0161C9.70628 17.0715 9.73908 17.1247 9.7758 17.1747C9.83732 17.2593 9.909 17.335 9.98884 17.4004C10.1428 17.5254 10.3234 17.607 10.5108 17.6361C10.7371 17.6711 10.953 17.6284 11.1354 17.5122C11.1514 17.5024 11.1655 17.4929 11.1792 17.4828C11.2918 17.4006 11.3803 17.296 11.4427 17.1711C11.4735 17.1103 11.4977 17.0447 11.5151 16.9756C11.5484 16.8392 11.5532 16.6913 11.529 16.548C11.4995 16.3727 11.4266 16.2014 11.318 16.0525L11.3132 16.0458C11.3107 16.0429 11.3098 16.0418 11.3075 16.0388C11.1863 15.8765 11.0281 15.7492 10.85 15.6704C10.76 15.6301 10.6671 15.6031 10.5732 15.5897C10.5256 15.5829 10.4788 15.5795 10.4337 15.5795ZM10.6593 17.8793C10.5984 17.8793 10.5369 17.8746 10.4753 17.865C10.2473 17.8297 10.0285 17.7312 9.84244 17.58C9.747 17.502 9.66172 17.4117 9.58876 17.3115C9.54492 17.2518 9.50548 17.1878 9.4718 17.1217C9.2698 16.7291 9.26572 16.2799 9.46108 15.9203C9.54004 15.7755 9.64668 15.6536 9.7782 15.5578C9.8086 15.5358 9.83708 15.5172 9.8654 15.5005C9.93748 15.4577 10.0159 15.4229 10.098 15.3975C10.1916 15.3686 10.2894 15.3522 10.3887 15.3487C10.458 15.3457 10.5315 15.3497 10.606 15.3603C10.7211 15.3767 10.8349 15.4098 10.9442 15.4587C11.1568 15.5528 11.3458 15.7042 11.4904 15.8965C11.4964 15.9035 11.5017 15.9109 11.5069 15.9183C11.6349 16.0938 11.7221 16.299 11.7575 16.5094C11.787 16.6837 11.781 16.8641 11.7401 17.031L11.74 17.0317C11.7184 17.1176 11.688 17.1995 11.6497 17.2753C11.5708 17.433 11.4585 17.5659 11.3162 17.6697C11.2978 17.6832 11.2781 17.6965 11.2582 17.7087C11.0824 17.8207 10.8744 17.8793 10.6593 17.8793Z" fill="#000072"/>
<path d="M10.2376 17.5544C10.1497 17.5147 10.0659 17.463 9.98885 17.4004C9.90901 17.335 9.83733 17.2593 9.77581 17.1747C9.73909 17.1247 9.70629 17.0715 9.67805 17.0161C9.51093 16.6913 9.50597 16.3231 9.66461 16.0311C9.72701 15.9168 9.81109 15.8205 9.91437 15.7453C9.93845 15.7279 9.96085 15.7131 9.98325 15.7C10.0401 15.6662 10.1018 15.6389 10.1664 15.6189C10.2405 15.5961 10.318 15.583 10.3976 15.5802C10.4095 15.5797 10.4216 15.5795 10.4337 15.5795C10.4788 15.5795 10.5256 15.5829 10.5732 15.5897C10.62 15.5964 10.6666 15.6065 10.7128 15.6199C10.6325 15.6303 10.5539 15.6502 10.4783 15.6799C10.4025 15.7097 10.3295 15.7493 10.2612 15.7991C10.2344 15.8186 10.2089 15.8393 10.1847 15.8609H10.1846C10.1641 15.8792 10.1446 15.8982 10.126 15.9181C9.81477 16.248 9.76005 16.7709 9.98973 17.2167C10.0202 17.2765 10.0561 17.335 10.0972 17.3909C10.1404 17.4504 10.1875 17.5049 10.2376 17.5544Z" fill="#C69A37"/>
<path d="M10.126 15.9181C10.1446 15.8983 10.1641 15.8792 10.1846 15.8609H10.1847C10.1642 15.8792 10.1447 15.8983 10.126 15.9181Z" fill="#CAB89E"/>
<path d="M10.4783 15.6799C10.5539 15.6503 10.6325 15.6303 10.7128 15.6199C10.7128 15.6199 10.7129 15.6199 10.7131 15.62C10.6328 15.6304 10.554 15.6503 10.4783 15.6799Z" fill="#CAB89E"/>
<path d="M10.4944 17.7505H10.4932C10.2889 17.7189 10.0886 17.6306 9.91565 17.4901C9.83013 17.4201 9.75157 17.3381 9.68245 17.2433C9.64149 17.1874 9.60557 17.1289 9.57509 17.0691C9.31541 16.565 9.41925 15.9624 9.84653 15.6515C10.0093 15.5324 10.1988 15.4719 10.3929 15.4645C10.4065 15.4639 10.4203 15.4637 10.4341 15.4637C10.59 15.4637 10.7481 15.4981 10.897 15.5644C10.9369 15.582 10.9763 15.6019 11.0145 15.6241C10.9599 15.6155 10.9047 15.6113 10.8499 15.6113C10.8357 15.6113 10.8217 15.6115 10.8076 15.6121C10.776 15.6133 10.7445 15.6159 10.7132 15.62C10.713 15.6199 10.7129 15.6199 10.7129 15.6199C10.6667 15.6065 10.6201 15.5964 10.5733 15.5897C10.5257 15.5829 10.4789 15.5795 10.4338 15.5795C10.4217 15.5795 10.4096 15.5798 10.3977 15.5802C10.3181 15.583 10.2406 15.5961 10.1665 15.6189C10.1019 15.6389 10.0402 15.6662 9.98333 15.7C9.96093 15.7131 9.93853 15.7279 9.91445 15.7453C9.81117 15.8205 9.72709 15.9168 9.66469 16.0311C9.50605 16.3231 9.51101 16.6913 9.67813 17.0161C9.70637 17.0715 9.73917 17.1247 9.77589 17.1747C9.83741 17.2593 9.90909 17.335 9.98893 17.4004C10.066 17.463 10.1498 17.5147 10.2377 17.5544C10.2676 17.5839 10.2985 17.6117 10.3304 17.6377C10.3827 17.6802 10.4377 17.7181 10.4944 17.7505Z" fill="#000072"/>
<path d="M10.714 18.16C10.5489 18.16 10.3817 18.1313 10.22 18.0756C10.2518 18.0765 10.2831 18.0769 10.3137 18.0769C10.5849 18.0769 10.8124 18.0445 11.0028 17.9872H11.0032C12.051 17.6709 11.9755 16.5965 11.8425 15.9975C11.9981 16.2934 12.0645 16.6215 12.0313 16.9437C11.9901 17.3448 11.7985 17.6885 11.4921 17.9117C11.2613 18.0797 10.9905 18.1601 10.714 18.16Z" fill="#C69A37"/>
<path d="M12.2249 17.3146C12.2591 17.205 12.2826 17.0899 12.2948 16.9708C12.3434 16.4993 12.2091 16.0183 11.9165 15.6166C11.8746 15.559 11.8302 15.5043 11.7837 15.4524L11.8968 15.2015C11.9858 15.2826 12.0676 15.3738 12.1407 15.4741C12.3947 15.8229 12.5115 16.2389 12.4696 16.6453C12.4439 16.8959 12.3594 17.1242 12.2249 17.3146Z" fill="#C69A37"/>
<path d="M12.0587 17.6818C12.1284 17.5683 12.1842 17.4452 12.2249 17.3146C12.3594 17.1242 12.4439 16.8959 12.4697 16.6453C12.5116 16.2389 12.3947 15.8229 12.1408 15.4741C12.0677 15.3738 11.9858 15.2826 11.8969 15.2014L11.9537 15.0751C11.9842 15.1017 12.0139 15.1294 12.0432 15.1583C12.1162 15.2306 12.1849 15.3102 12.2478 15.3962C12.799 16.153 12.7104 17.1615 12.0587 17.6818Z" fill="#000072"/>
<path d="M10.7139 18.293C10.4188 18.293 10.1188 18.2091 9.84875 18.0489C9.98027 18.0638 10.104 18.0725 10.22 18.0756C10.3816 18.1313 10.5488 18.16 10.714 18.16C10.9904 18.1601 11.2612 18.0797 11.4921 17.9117C11.7985 17.6885 11.99 17.3448 12.0313 16.9437C12.0645 16.6215 11.998 16.2934 11.8425 15.9975C11.788 15.7513 11.7236 15.5855 11.7236 15.5855L11.7836 15.4524C11.8301 15.5042 11.8745 15.5589 11.9164 15.6165C12.209 16.0183 12.3433 16.4993 12.2948 16.9708C12.2825 17.0899 12.259 17.2049 12.2248 17.3145C12.1841 17.4452 12.1283 17.5683 12.0586 17.6817C12.0422 17.6949 12.0254 17.7077 12.0084 17.7201C11.9232 17.7822 11.833 17.8333 11.7392 17.8736C11.6873 17.9259 11.6311 17.9743 11.5702 18.0189C11.3154 18.2043 11.0172 18.293 10.7139 18.293Z" fill="#000072"/>
<path d="M8.92893 7.9947C8.82949 7.97494 8.73445 7.94406 8.64477 7.9031C8.42157 7.80334 8.23053 7.64334 8.08197 7.44318L8.08173 7.44286C7.79932 7.0623 7.66994 6.5359 7.76978 5.99422C7.92813 5.13358 8.60869 4.53158 9.34461 4.55654C9.41533 4.55878 9.48621 4.5667 9.55717 4.5811C10.244 4.71846 10.7211 5.37846 10.7482 6.14774C10.7496 6.18814 10.7496 6.22878 10.7486 6.2699C10.7458 6.37254 10.735 6.47718 10.716 6.58182C10.5426 7.52454 9.74245 8.15694 8.92893 7.9947Z" fill="#F7C128"/>
<path d="M9.30266 4.68578C9.05602 4.68578 8.8093 4.76314 8.58978 4.91202C8.23474 5.15282 7.98242 5.55578 7.89742 6.01762C7.737 6.88946 8.21106 7.71938 8.95418 7.86762C9.27378 7.9313 9.60826 7.85898 9.89602 7.66386C10.251 7.42314 10.5034 7.02018 10.5883 6.55834C10.7488 5.6865 10.2747 4.85658 9.53162 4.70834C9.45586 4.69322 9.3793 4.68578 9.30266 4.68578ZM9.1837 8.14978C9.09002 8.14978 8.99626 8.14066 8.90338 8.1221C8.02202 7.94626 7.45621 6.98114 7.64219 5.97058C7.73965 5.4409 8.03194 4.97674 8.4441 4.69722C8.78978 4.46282 9.19394 4.37642 9.58242 4.45378C10.4638 4.62962 11.0295 5.59482 10.8436 6.6053C10.7461 7.13506 10.4539 7.59914 10.0417 7.87874C9.77866 8.05706 9.4817 8.14978 9.1837 8.14978Z" fill="#000072"/>
<path d="M8.64475 7.90312C8.57395 7.90088 8.50307 7.89296 8.43187 7.87888C7.84542 7.76184 7.41258 7.26416 7.28119 6.6424L7.28094 6.64208C7.22999 6.40136 7.2245 6.14144 7.27299 5.87816C7.44643 4.93536 8.24659 4.30248 9.06035 4.46496C9.15979 4.48472 9.25483 4.5156 9.34459 4.55656C9.95467 4.8308 10.3286 5.55216 10.2392 6.32848C10.2347 6.37424 10.2279 6.41984 10.2192 6.46568C10.0609 7.32584 9.38059 7.92808 8.64475 7.90312Z" fill="#F7C128"/>
<path d="M8.70735 7.24493C8.65583 7.24493 8.60414 7.23982 8.55246 7.2295C8.53654 7.22646 8.52087 7.22269 8.50351 7.21773C8.49495 7.21549 8.48639 7.21301 8.47791 7.21045L8.53278 5.49157C8.66398 5.42517 8.80735 5.38902 8.95455 5.38902C8.95503 5.38902 8.9555 5.38902 8.95598 5.38902C8.98262 5.3891 9.00934 5.39029 9.03622 5.39277L8.97831 7.19685C8.96583 7.20125 8.95342 7.20541 8.94086 7.20917C8.8639 7.23301 8.78583 7.24493 8.70735 7.24493Z" fill="#FCE6A9"/>
<path d="M9.18604 7.08966L9.23892 5.43534C9.28012 5.4491 9.32004 5.46566 9.35852 5.48486C9.35868 5.48502 9.35884 5.4851 9.359 5.48518C9.35916 5.48526 9.35932 5.48534 9.35948 5.48542C9.42764 5.51966 9.49108 5.56214 9.54932 5.61182C9.55484 5.62334 9.56028 5.63494 9.56548 5.6467L9.53228 6.68494C9.50348 6.74214 9.47044 6.79646 9.43332 6.84702C9.36372 6.94214 9.27916 7.02502 9.18604 7.08966Z" fill="#FCE6A9"/>
<path d="M7.3866 5.98822C7.39054 5.95934 7.39517 5.93046 7.40051 5.90142C7.48551 5.43958 7.73785 5.03662 8.09286 4.79582C8.31238 4.64694 8.5591 4.56958 8.80574 4.56958C8.8823 4.56958 8.95894 4.57702 9.0347 4.59214C9.31342 4.64774 9.55422 4.79918 9.73798 5.01286C9.5667 4.87086 9.3647 4.7703 9.1403 4.7255C9.05462 4.70838 8.96894 4.70014 8.88422 4.70014C8.20862 4.70014 7.58795 5.22542 7.3866 5.98822Z" fill="#FCE6A9"/>
<path d="M8.80571 4.56957C8.55907 4.56957 8.31235 4.64693 8.09283 4.79581C7.73782 5.03661 7.48548 5.43957 7.40048 5.90141C7.24005 6.77325 7.71411 7.60317 8.45723 7.75141C8.77675 7.81517 9.11131 7.74285 9.39907 7.54773C9.75403 7.30693 10.0064 6.90397 10.0914 6.44213C10.2519 5.57029 9.77779 4.74037 9.03467 4.59213C8.95891 4.57701 8.88227 4.56957 8.80571 4.56957ZM8.68675 8.03357C8.59307 8.03357 8.49931 8.02445 8.40643 8.00589C7.52505 7.83013 6.95927 6.86493 7.14524 5.85445C7.2427 5.32469 7.53501 4.86053 7.94716 4.58101C8.29283 4.34661 8.69707 4.26021 9.08547 4.33757C9.96683 4.51341 10.5326 5.47861 10.3467 6.48909C10.2492 7.01885 9.95691 7.48301 9.54475 7.76253C9.28171 7.94085 8.98475 8.03357 8.68675 8.03357Z" fill="#000072"/>
<path d="M8.78569 5.09889C8.71617 5.09889 8.64649 5.10825 8.57729 5.12681C8.26905 5.21025 8.01441 5.46561 7.89612 5.80993C7.87573 5.86873 7.85983 5.92937 7.84882 5.99065C7.82983 6.09385 7.82361 6.19849 7.83025 6.30209C7.84362 6.50097 7.90518 6.68945 8.00825 6.84689C8.13201 7.03585 8.30321 7.16417 8.50353 7.21777C8.52089 7.22273 8.53657 7.22649 8.55249 7.22953C8.68305 7.25553 8.81345 7.24865 8.94089 7.20921C9.00337 7.19025 9.06497 7.16329 9.12457 7.12897C9.24193 7.06025 9.34873 6.96273 9.43337 6.84705C9.53737 6.70529 9.60985 6.53433 9.64313 6.35257L9.64481 6.34433C9.64505 6.34073 9.64529 6.33905 9.64593 6.33545C9.68033 6.13497 9.66577 5.93137 9.60393 5.74649C9.57289 5.65281 9.53073 5.56601 9.47841 5.48825C9.44465 5.43809 9.40809 5.39273 9.36961 5.35329C9.31553 5.29721 9.25561 5.24953 9.19113 5.21121C9.13497 5.17785 9.07569 5.15153 9.01513 5.13329C8.99137 5.12593 8.96649 5.11969 8.93857 5.11409C8.88785 5.10393 8.83681 5.09889 8.78569 5.09889ZM8.70761 7.47217C8.64145 7.47217 8.57513 7.46561 8.50889 7.45241C8.48705 7.44817 8.46457 7.44289 8.44289 7.43665C8.19329 7.36977 7.97081 7.20433 7.81826 6.97129C7.69386 6.78129 7.61964 6.55505 7.60365 6.31697C7.59577 6.19441 7.60311 6.07105 7.62538 5.94993C7.63842 5.87745 7.65733 5.80529 7.68147 5.73577C7.82414 5.32049 8.13697 5.01073 8.51809 4.90761C8.67241 4.86609 8.82881 4.86057 8.98337 4.89137C9.01897 4.89865 9.05089 4.90673 9.08137 4.91601C9.15897 4.93953 9.23513 4.97313 9.30721 5.01601C9.38913 5.06473 9.46489 5.12497 9.53257 5.19513C9.58017 5.24385 9.62553 5.30001 9.66689 5.36153C9.73065 5.45649 9.78201 5.56185 9.81937 5.67473C9.89257 5.89337 9.91025 6.13369 9.87049 6.36969C9.86945 6.37889 9.86777 6.38785 9.86585 6.39681C9.82705 6.60881 9.74065 6.81209 9.61657 6.98121C9.51369 7.12185 9.38313 7.24081 9.23905 7.32513L9.23841 7.32545C9.16377 7.36857 9.08601 7.40249 9.00745 7.42641C8.90873 7.45689 8.80841 7.47217 8.70761 7.47217Z" fill="#000072"/>
<path d="M7.88331 6.58307C7.85468 6.49347 7.83672 6.39899 7.83021 6.30211C7.82357 6.19851 7.82979 6.09387 7.84877 5.99067C7.85979 5.92939 7.87568 5.86875 7.89607 5.80995C8.01436 5.46563 8.269 5.21027 8.57724 5.12683C8.64644 5.10827 8.71612 5.09891 8.78564 5.09891C8.83676 5.09891 8.8878 5.10395 8.93852 5.11411C8.96644 5.11971 8.99132 5.12595 9.01508 5.13331C9.07564 5.15155 9.13492 5.17787 9.19108 5.21123C9.25556 5.24955 9.31548 5.29723 9.36956 5.35331C9.40804 5.39275 9.4446 5.43811 9.47836 5.48827C9.50452 5.52723 9.5282 5.56843 9.54916 5.61163C9.49092 5.56195 9.42748 5.51955 9.35948 5.48547C9.35932 5.48539 9.35916 5.48531 9.359 5.48523C9.35884 5.48515 9.35868 5.48507 9.35852 5.48491C9.28708 5.44915 9.21052 5.42251 9.12972 5.40651C9.09852 5.40027 9.06724 5.39571 9.0362 5.39283V5.39275C9.00932 5.39035 8.9826 5.38907 8.95596 5.38907C8.95524 5.38907 8.95452 5.38907 8.9538 5.38907C8.51964 5.38907 8.11884 5.70579 7.95732 6.17683C7.9354 6.23987 7.91789 6.30611 7.90563 6.37419C7.89268 6.44467 7.8854 6.51435 7.88331 6.58307Z" fill="#C69A37"/>
<path d="M9.03629 5.39282C9.00941 5.39034 8.98269 5.38914 8.95605 5.38906C8.98269 5.38906 9.00941 5.39034 9.03629 5.39274V5.39282Z" fill="#CAB89E"/>
<path d="M9.54932 5.61182C9.49108 5.56214 9.42764 5.51966 9.35948 5.48542C9.42748 5.5195 9.49092 5.5619 9.54916 5.61158C9.54924 5.61166 9.54924 5.61174 9.54932 5.61182Z" fill="#CAB89E"/>
<path d="M7.91403 6.90991L7.91327 6.90903C7.80143 6.73831 7.73187 6.53167 7.71695 6.30935C7.70986 6.19911 7.71587 6.08575 7.73708 5.97047C7.74934 5.90239 7.76685 5.83607 7.78877 5.77303C7.9503 5.30215 8.35106 4.98527 8.7853 4.98527C8.84346 4.98527 8.90226 4.99095 8.96114 5.00279C9.15154 5.04031 9.31826 5.13727 9.45082 5.27391C9.5665 5.39287 9.65586 5.54271 9.71154 5.71039C9.72538 5.75151 9.7373 5.79391 9.74682 5.83703C9.70938 5.77935 9.6665 5.72591 9.61946 5.67767C9.59706 5.65455 9.57362 5.63255 9.54938 5.61183C9.5493 5.61175 9.5493 5.61167 9.54922 5.61159C9.52826 5.56839 9.50458 5.52719 9.47842 5.48823C9.44466 5.43807 9.4081 5.39271 9.36962 5.35327C9.31554 5.29719 9.25562 5.24951 9.19114 5.21119C9.13498 5.17783 9.0757 5.15151 9.01514 5.13327C8.99138 5.12591 8.9665 5.11967 8.93858 5.11407C8.88786 5.10391 8.83682 5.09887 8.7857 5.09887C8.71618 5.09887 8.6465 5.10823 8.5773 5.12679C8.26906 5.21023 8.01442 5.46559 7.89613 5.80991C7.87574 5.86871 7.85984 5.92935 7.84882 5.99063C7.82984 6.09383 7.82362 6.19847 7.83026 6.30207C7.83678 6.39895 7.85474 6.49343 7.88336 6.58303C7.88203 6.62679 7.88281 6.67015 7.88557 6.71303C7.89006 6.78031 7.89961 6.84647 7.91403 6.90991Z" fill="#000072"/>
<path d="M9.34351 7.87927C9.41239 7.84567 9.47959 7.80671 9.54479 7.76255C9.95695 7.48303 10.2492 7.01887 10.3467 6.48911C10.3595 6.41927 10.3688 6.34959 10.3746 6.28039L10.6193 6.19351C10.6209 6.31303 10.6109 6.43527 10.5883 6.55831C10.5033 7.02015 10.2509 7.42311 9.89599 7.66383C9.72415 7.78039 9.53559 7.85311 9.34351 7.87927Z" fill="#C69A37"/>
<path d="M9.18513 8.02008C9.11697 8.02008 9.04825 8.0148 8.97937 8.00376C9.10369 7.97832 9.22593 7.93656 9.34353 7.87928C9.53561 7.85312 9.72417 7.7804 9.89601 7.66384C10.251 7.42312 10.5034 7.02016 10.5883 6.55832C10.611 6.43528 10.621 6.31304 10.6194 6.19352L10.7482 6.14776C10.7495 6.18816 10.7496 6.2288 10.7486 6.26992C10.7458 6.37256 10.735 6.4772 10.716 6.58184C10.5608 7.42512 9.90417 8.02008 9.18513 8.02008Z" fill="#000072"/>
<path d="M8.68617 7.77399C8.60961 7.77399 8.53297 7.76655 8.45729 7.75143C8.02801 7.66583 7.68855 7.35271 7.50928 6.93543C7.70759 7.16751 7.89887 7.33231 8.08169 7.44287L8.08193 7.44319C8.30025 7.57495 8.50681 7.62967 8.69913 7.62967C9.30401 7.62967 9.76913 7.08887 10.0233 6.70447C9.90433 7.05479 9.68497 7.35383 9.39913 7.54775C9.17961 7.69663 8.93281 7.77399 8.68617 7.77399Z" fill="#C69A37"/>
<path d="M8.97933 8.00378C8.96253 8.00114 8.94573 7.99811 8.92885 7.99475C8.82941 7.97499 8.73437 7.94411 8.64469 7.90315C8.57389 7.90091 8.50301 7.89298 8.43181 7.8789C7.84535 7.76186 7.41251 7.26418 7.28113 6.64242C7.35811 6.75018 7.43418 6.84771 7.50923 6.93547C7.6885 7.35275 8.02797 7.66587 8.45725 7.75147C8.53293 7.76659 8.60957 7.77402 8.68613 7.77402C8.93277 7.77402 9.17957 7.69666 9.39909 7.54778C9.68493 7.35386 9.90429 7.05482 10.0232 6.7045C10.1632 6.49274 10.2392 6.3285 10.2392 6.3285L10.3746 6.28042C10.3688 6.34962 10.3595 6.41931 10.3467 6.48915C10.2492 7.01891 9.95693 7.48306 9.54477 7.76258C9.47957 7.80674 9.41237 7.8457 9.34349 7.8793C9.22589 7.93658 9.10365 7.97834 8.97933 8.00378Z" fill="#000072"/>
<path d="M14.0099 9.96254L14.1871 10.5955C14.3064 11.0216 13.4804 11.6246 12.3424 11.9432C12.0494 12.0252 11.7644 12.0802 11.5009 12.1094C10.74 12.1946 10.155 12.0652 10.0666 11.7489L9.88936 11.116C9.77024 10.6902 10.5961 10.0868 11.7337 9.76838C12.229 9.62974 12.7019 9.5679 13.0874 9.57758L13.0878 9.5775C13.5885 9.58982 13.9426 9.72222 14.0099 9.96254Z" fill="#F7C128"/>
<path d="M10.2825 11.832C10.2364 11.7966 10.2062 11.7567 10.1941 11.7132L10.139 11.5162C10.1588 11.5243 10.1793 11.532 10.2005 11.5392L10.2825 11.832ZM10.1059 11.1995C10.0599 11.1643 10.0296 11.1247 10.0172 11.0814L10.0169 11.0803C9.9764 10.9357 10.1265 10.7221 10.4184 10.5088C10.7542 10.2634 11.2341 10.0457 11.7694 9.89589C12.021 9.82541 12.2631 9.77661 12.488 9.74685C12.3153 9.77733 12.1364 9.81789 11.9544 9.86877C10.8318 10.183 10.0127 10.7749 10.1059 11.1995Z" fill="#FCE6A9"/>
<path d="M11.8464 10.9055L11.3004 10.2799L12.0006 10.0519L12.6078 10.6584L11.8464 10.9055Z" fill="#FCE6A9"/>
<path d="M13.0089 9.71038C12.6592 9.71038 12.2304 9.76686 11.7693 9.8959C11.2341 10.0457 10.7542 10.2634 10.4184 10.5089C10.1265 10.7221 9.97639 10.9357 10.0169 11.0803L10.1941 11.7132C10.2345 11.8579 10.4737 11.9625 10.8338 11.9933C11.2482 12.0285 11.7713 11.9655 12.3067 11.8157C12.8423 11.6657 13.3223 11.4481 13.6581 11.2027C13.95 10.9895 14.1001 10.7758 14.0596 10.6312L13.8825 9.99822C13.8328 9.8211 13.4985 9.71038 13.0089 9.71038ZM11.0679 12.2676C10.9791 12.2676 10.8933 12.2641 10.8113 12.2572C10.3225 12.2155 10.0126 12.0477 9.93903 11.7845L9.76191 11.1517C9.68823 10.8888 9.86591 10.5845 10.2621 10.295C10.6229 10.0313 11.1329 9.79902 11.698 9.64086C12.7587 9.3439 13.9741 9.34334 14.1374 9.92686L14.3145 10.5598C14.3882 10.8229 14.2106 11.1272 13.8143 11.4165C13.4535 11.6801 12.9434 11.9124 12.3781 12.0707C11.917 12.1997 11.4617 12.2676 11.0679 12.2676Z" fill="#000072"/>
<path d="M12.8377 10.0369C12.6066 10.0369 12.2737 10.0768 11.8533 10.1945C11.4945 10.2949 11.1692 10.4271 10.9369 10.5666C10.6816 10.7201 10.6481 10.8184 10.6531 10.8363C10.6581 10.854 10.7361 10.9193 11.0265 10.9193C11.0296 10.9193 11.0325 10.9193 11.0357 10.9193C11.3065 10.9181 11.6533 10.8621 12.012 10.7617C12.8561 10.5254 13.2358 10.2048 13.2121 10.12C13.2002 10.0774 13.0706 10.0369 12.8377 10.0369ZM11.0264 11.1146C10.6958 11.1146 10.507 11.0387 10.4651 10.8889C10.4227 10.7376 10.5476 10.5729 10.8364 10.3993C11.0831 10.251 11.4256 10.1115 11.8006 10.0065C12.5074 9.8087 13.3093 9.74326 13.4001 10.0673C13.4909 10.3914 12.7714 10.7519 12.0646 10.9497C11.6896 11.0547 11.3245 11.1133 11.0365 11.1146C11.0332 11.1146 11.0297 11.1146 11.0264 11.1146Z" fill="#000072"/>
<path d="M10.891 11.6346C10.8021 11.6346 10.7162 11.6311 10.6342 11.6242C10.1453 11.5824 9.83551 11.4146 9.76191 11.1517C9.74215 11.0813 9.78327 11.0082 9.85367 10.9885C9.92407 10.9687 9.99719 11.0098 10.0169 11.0803C10.0574 11.2249 10.2966 11.3295 10.6566 11.3602C11.0714 11.3957 11.5943 11.3326 12.1298 11.1827C13.2359 10.873 13.9674 10.302 13.8825 9.99824C13.8627 9.92784 13.9038 9.8548 13.9742 9.83504C14.0446 9.81536 14.1177 9.85648 14.1374 9.92688C14.3008 10.5105 13.2618 11.1409 12.2011 11.4378C11.7402 11.5668 11.2849 11.6346 10.891 11.6346Z" fill="#000072"/>
<path d="M11.4647 11.9807L11.3599 11.606C11.6291 11.5747 11.9139 11.5181 12.2011 11.4378C12.9543 11.2269 13.6966 10.8478 14.0051 10.4369L14.0595 10.6312C14.1 10.7758 13.9499 10.9895 13.6581 11.2027C13.3223 11.4481 12.8423 11.6658 12.3067 11.8157C12.0174 11.8966 11.7317 11.9523 11.4647 11.9807Z" fill="#C69A37"/>
<path d="M11.5009 12.1094L11.4648 11.9807C11.7318 11.9523 12.0175 11.8966 12.3068 11.8157C12.8424 11.6658 13.3224 11.4481 13.6582 11.2027C13.95 10.9895 14.1001 10.7758 14.0596 10.6312L14.0052 10.4369C14.0436 10.3857 14.0753 10.3341 14.0995 10.2822L14.1872 10.5955C14.3064 11.0216 13.4804 11.6246 12.3424 11.9432C12.0495 12.0252 11.7644 12.0802 11.5009 12.1094Z" fill="#000072"/>
<path d="M12.014 11.2137C13.8775 10.4484 13.7087 9.96903 13.4059 9.73943C13.6742 9.78319 13.8477 9.87455 13.8824 9.99823C13.9674 10.302 13.2359 10.873 12.1297 11.1827C12.0911 11.1935 12.0525 11.2038 12.014 11.2137Z" fill="#C69A37"/>
<path d="M13.8825 9.99823C13.8478 9.87455 13.6743 9.78319 13.406 9.73943C13.2669 9.63383 13.0993 9.58111 13.0879 9.57751C13.5001 9.58767 13.813 9.67919 13.9483 9.84535C13.8941 9.87383 13.8653 9.93703 13.8825 9.99823Z" fill="#000072"/>
<path d="M11.36 11.606L11.3237 11.4765C11.5801 11.3855 11.8093 11.2979 12.0141 11.2138C12.0526 11.2039 12.0912 11.1935 12.1298 11.1827C13.236 10.8731 13.9675 10.302 13.8825 9.99826C13.8653 9.93706 13.8941 9.87386 13.9483 9.84538C13.9773 9.88106 13.9981 9.92018 14.01 9.96258L14.0995 10.2823C14.0753 10.3341 14.0437 10.3857 14.0053 10.4369C13.6967 10.8479 12.9544 11.2269 12.2012 11.4378C11.9141 11.5181 11.6292 11.5747 11.36 11.606Z" fill="#000072"/>
<path d="M19.3511 8.74895L19.8102 9.21927C20.1193 9.53591 19.6839 10.4613 18.8383 11.2868C18.6206 11.4993 18.3969 11.6844 18.1797 11.8364C17.553 12.2762 16.9777 12.4433 16.7483 12.2082L16.2892 11.7379C15.9804 11.4216 16.4154 10.4959 17.2608 9.67071C17.6288 9.31143 18.0141 9.03031 18.357 8.85383L18.3573 8.85351C18.8025 8.62415 19.1768 8.57039 19.3511 8.74895Z" fill="#F7C128"/>
<path d="M16.9784 12.1784C16.9211 12.1694 16.8752 12.1487 16.8431 12.1158L16.7021 11.9714C16.7234 11.9688 16.7449 11.9656 16.7668 11.9617L16.9784 12.1784ZM16.52 11.7082C16.4624 11.6993 16.4163 11.6786 16.384 11.6454C16.2791 11.5381 16.3084 11.2786 16.4621 10.9515C16.6391 10.575 16.9556 10.1538 17.3533 9.76553C17.5403 9.58297 17.7292 9.42409 17.9122 9.29001C17.7753 9.39961 17.6378 9.52105 17.5027 9.65297C16.6678 10.4679 16.2332 11.3809 16.52 11.7082Z" fill="#FCE6A9"/>
<path d="M17.9053 10.6143L17.1261 10.3274L17.631 9.79144L18.4547 10.0322L17.9053 10.6143Z" fill="#FCE6A9"/>
<path d="M19.0512 8.77385C18.6914 8.77385 18.01 9.12441 17.3533 9.76553C16.9556 10.1538 16.6391 10.575 16.4621 10.9515C16.3084 11.2787 16.2791 11.5381 16.384 11.6455L16.8431 12.1158C17.0634 12.3415 17.924 11.9944 18.7459 11.192C19.568 10.3895 19.9358 9.53745 19.7155 9.31177L19.2564 8.84145C19.2121 8.79609 19.1419 8.77385 19.0512 8.77385ZM17.0484 12.4487C16.8891 12.4487 16.7535 12.4031 16.6536 12.3008L16.1944 11.8305C16.0038 11.6351 16.0137 11.283 16.2224 10.8389C16.4125 10.4344 16.7484 9.98585 17.1684 9.57601C17.9565 8.80657 19.0224 8.22289 19.4459 8.65649L19.905 9.12681C20.3283 9.56049 19.7191 10.6122 18.9308 11.3815C18.3288 11.9693 17.5643 12.4487 17.0484 12.4487Z" fill="#000072"/>
<path d="M18.6831 9.25754C18.5421 9.25754 18.1166 9.45378 17.5701 9.9873C17.3035 10.2475 17.0814 10.5196 16.9447 10.7535C16.7943 11.0107 16.8121 11.1129 16.8251 11.1262C16.838 11.1395 16.9398 11.1597 17.2006 11.0155C17.4376 10.8844 17.715 10.669 17.9815 10.4088C18.2481 10.1486 18.4702 9.8765 18.6069 9.64266C18.7573 9.38546 18.7395 9.28322 18.7266 9.26994C18.7186 9.26178 18.704 9.25754 18.6831 9.25754ZM16.8667 11.3313C16.7906 11.3313 16.7301 11.3084 16.6853 11.2626C16.5755 11.1502 16.6061 10.9457 16.7762 10.6549C16.9214 10.4064 17.155 10.1197 17.4337 9.84762C17.9588 9.3349 18.6312 8.89266 18.8662 9.13354C18.9761 9.24594 18.9455 9.45042 18.7754 9.74122C18.6302 9.98978 18.3966 10.2764 18.1179 10.5485C17.8392 10.8206 17.547 11.0471 17.2951 11.1864C17.1204 11.283 16.9772 11.3313 16.8667 11.3313Z" fill="#000072"/>
<path d="M16.5891 11.9784C16.4298 11.9784 16.2943 11.9327 16.1944 11.8305C16.1433 11.7782 16.1443 11.6943 16.1967 11.6432C16.249 11.5922 16.3328 11.5931 16.384 11.6454C16.6042 11.8711 17.4649 11.524 18.2869 10.7216C19.1089 9.91911 19.4766 9.06719 19.2563 8.84143C19.2053 8.78911 19.2062 8.70527 19.2586 8.65415C19.3109 8.60319 19.3948 8.60407 19.4458 8.65647C19.8691 9.09007 19.2599 10.1418 18.4718 10.911C17.8697 11.499 17.1052 11.9784 16.5891 11.9784Z" fill="#000072"/>
<path d="M18.0854 11.7397L17.8135 11.4613C18.041 11.3005 18.2659 11.1121 18.4718 10.911C19.0315 10.3647 19.5009 9.67599 19.5744 9.16735L19.7154 9.31175C19.9357 9.53743 19.5679 10.3895 18.7458 11.192C18.524 11.4085 18.2994 11.5919 18.0854 11.7397Z" fill="#C69A37"/>
<path d="M18.1797 11.8364L18.0854 11.7398C18.2994 11.5919 18.5241 11.4086 18.7458 11.192C19.5679 10.3895 19.9358 9.53747 19.7154 9.31179L19.5745 9.16739C19.5837 9.10411 19.5866 9.04363 19.583 8.98651L19.8102 9.21931C20.1193 9.53595 19.6839 10.4613 18.8383 11.2868C18.6206 11.4993 18.397 11.6844 18.1797 11.8364Z" fill="#000072"/>
<path d="M18.2004 10.8041C19.4682 9.23854 19.09 8.8991 18.7141 8.84294C18.844 8.79718 18.9584 8.77382 19.0512 8.77382C19.1419 8.77382 19.2121 8.79606 19.2564 8.84142C19.4767 9.06718 19.1089 9.9191 18.2869 10.7216C18.2581 10.7497 18.2293 10.7772 18.2004 10.8041Z" fill="#C69A37"/>
<path d="M18.3573 8.85352C18.6225 8.71688 18.8626 8.64255 19.0502 8.64255C19.1219 8.64255 19.1859 8.65343 19.2407 8.67575C19.2069 8.72663 19.212 8.796 19.2563 8.84144C19.2121 8.79608 19.1419 8.77384 19.0512 8.77384C18.9583 8.77384 18.8439 8.79719 18.7141 8.84295C18.6671 8.83591 18.62 8.83335 18.5763 8.83335C18.4594 8.83335 18.3659 8.85184 18.3573 8.85352Z" fill="#000072"/>
<path d="M17.8135 11.4613L17.7206 11.3661C17.9018 11.1632 18.0611 10.9763 18.2003 10.8042C18.2292 10.7772 18.258 10.7497 18.2868 10.7216C19.1088 9.91914 19.4766 9.06722 19.2563 8.84146C19.2119 8.79602 19.2068 8.72666 19.2407 8.67578C19.2832 8.69314 19.3203 8.71746 19.3511 8.74898L19.5829 8.9865C19.5866 9.04362 19.5836 9.1041 19.5744 9.16738C19.5009 9.67602 19.0315 10.3647 18.4718 10.9111C18.2659 11.1121 18.041 11.3005 17.8135 11.4613Z" fill="#000072"/>
<path d="M10.1294 9.8891C10.0907 9.8891 10.0541 9.86598 10.0387 9.8279L9.47561 8.4287C9.45545 8.3787 9.47969 8.32182 9.52969 8.30166C9.57985 8.28158 9.63657 8.30582 9.65673 8.35582L10.2199 9.75502C10.24 9.80502 10.2158 9.8619 10.1658 9.88198C10.1538 9.88678 10.1414 9.8891 10.1294 9.8891Z" fill="#000072"/>
<path d="M13.4963 14.2985C13.4576 14.2985 13.4211 14.2753 13.4057 14.2373L12.8425 12.8381C12.8224 12.7881 12.8467 12.7312 12.8967 12.711C12.9468 12.6909 13.0035 12.7152 13.0237 12.7652L13.5869 14.1644C13.607 14.2144 13.5827 14.2713 13.5327 14.2913C13.5208 14.2961 13.5084 14.2985 13.4963 14.2985Z" fill="#000072"/>
<path d="M15.97 9.8891C15.9313 9.8891 15.8947 9.86598 15.8793 9.8279L15.3161 8.4287C15.2961 8.3787 15.3203 8.32182 15.3703 8.30166C15.4205 8.28158 15.4772 8.30582 15.4973 8.35582L16.0605 9.75502C16.0806 9.80502 16.0564 9.8619 16.0064 9.88198C15.9944 9.88678 15.9821 9.8891 15.97 9.8891Z" fill="#000072"/>
<path d="M19.4561 13.9048C19.4175 13.9048 19.3808 13.8817 19.3656 13.8436L18.8024 12.4444C18.7823 12.3944 18.8064 12.3375 18.8565 12.3173C18.9067 12.2973 18.9634 12.3215 18.9836 12.3715L19.5467 13.7707C19.5668 13.8207 19.5426 13.8776 19.4925 13.8977C19.4806 13.9025 19.4683 13.9048 19.4561 13.9048Z" fill="#000072"/>
<path d="M10.4938 9.284C10.4548 9.284 10.4181 9.26056 10.4029 9.22216L10.1615 8.6104C10.1417 8.56024 10.1664 8.50352 10.2165 8.48368C10.2668 8.464 10.3233 8.48856 10.3432 8.53872L10.5846 9.15048C10.6044 9.20064 10.5797 9.25736 10.5296 9.27712C10.5178 9.28176 10.5057 9.284 10.4938 9.284Z" fill="#000072"/>
<path d="M13.7376 13.5111C13.6987 13.5111 13.6619 13.4877 13.6468 13.4493L13.4054 12.8374C13.3856 12.7873 13.4103 12.7306 13.4604 12.7108C13.5107 12.6911 13.5673 12.7157 13.5871 12.7657L13.8284 13.3776C13.8483 13.4277 13.8236 13.4845 13.7735 13.5042C13.7617 13.5089 13.7495 13.5111 13.7376 13.5111Z" fill="#000072"/>
<path d="M16.2632 9.284C16.2243 9.284 16.1875 9.26056 16.1724 9.22216L15.9309 8.6104C15.9111 8.56024 15.9358 8.50352 15.9859 8.48368C16.0361 8.464 16.0927 8.48856 16.1126 8.53872L16.354 9.15048C16.3739 9.20064 16.3492 9.25736 16.2991 9.27712C16.2873 9.28176 16.2751 9.284 16.2632 9.284Z" fill="#000072"/>
<path d="M12.2052 19.1287C12.1663 19.1287 12.1295 19.1054 12.1143 19.067L11.8729 18.4551C11.8531 18.405 11.8778 18.3482 11.9279 18.3285C11.9782 18.3087 12.0348 18.3333 12.0546 18.3834L12.296 18.9953C12.3158 19.0454 12.2911 19.1021 12.241 19.1219C12.2292 19.1266 12.2171 19.1287 12.2052 19.1287Z" fill="#000072"/>
</svg>
