<svg width="32" height="32" viewBox="0 0 32 32" fill="none" xmlns="http://www.w3.org/2000/svg">
<path d="M20.5 24.1427C20.9944 25.3699 21.5554 25.6821 22.2512 24.1427H20.5Z" fill="#5DCBED"/>
<path d="M21.349 25.2034C21.3462 25.2034 21.3436 25.2034 21.3409 25.2034C21.0456 25.1973 20.7645 24.8527 20.4814 24.1502L20.5186 24.1353C20.795 24.8213 21.0642 25.1576 21.3417 25.1634C21.6227 25.1693 21.9218 24.823 22.233 24.1345L22.2694 24.151C21.9494 24.859 21.6482 25.2034 21.349 25.2034Z" fill="#000072"/>
<path d="M21.3494 25.3234C21.3457 25.3234 21.3421 25.3234 21.3384 25.3233C20.985 25.316 20.6773 24.9575 20.3702 24.195C20.3413 24.1233 20.376 24.0417 20.4477 24.0129C20.5193 23.984 20.601 24.0187 20.6298 24.0904C20.9449 24.8723 21.1922 25.0402 21.3442 25.0433C21.4706 25.0469 21.744 24.9251 22.1237 24.085C22.1555 24.0145 22.2385 23.9834 22.3089 24.0151C22.3794 24.0469 22.4106 24.1299 22.3788 24.2004C22.0327 24.966 21.7053 25.3234 21.3494 25.3234Z" fill="#000072"/>
<path d="M22.7175 24.1427H10.3302C9.87845 24.1427 9.51221 23.7765 9.51221 23.3247V10.9375C9.51221 10.4857 9.87845 10.1195 10.3302 10.1195H22.7175C23.1692 10.1195 23.5354 10.4857 23.5354 10.9375V23.3247C23.5354 23.7765 23.1692 24.1427 22.7175 24.1427Z" fill="#10CDF9"/>
<path d="M10.3302 10.1395C9.89023 10.1395 9.53231 10.4975 9.53231 10.9375V23.3247C9.53231 23.7647 9.89023 24.1227 10.3302 24.1227H22.7174C23.1574 24.1227 23.5154 23.7647 23.5154 23.3247V10.9375C23.5154 10.4975 23.1574 10.1395 22.7174 10.1395H10.3302ZM22.7174 24.1627H10.3302C9.86815 24.1627 9.49231 23.7868 9.49231 23.3247V10.9375C9.49231 10.4754 9.86815 10.0995 10.3302 10.0995H22.7174C23.1795 10.0995 23.5554 10.4754 23.5554 10.9375V23.3247C23.5554 23.7868 23.1795 24.1627 22.7174 24.1627Z" fill="#000072"/>
<path d="M21.8449 24.0027H19.0406L21.7884 23.1451C21.8815 23.1161 21.9678 23.0744 22.0456 23.0224H22.273C22.0099 23.2651 21.8449 23.6124 21.8449 23.9976C21.8449 23.9994 21.8449 24.0011 21.8449 24.0027ZM15.2816 24.0027H10.7937C10.7928 24.0027 10.7919 24.0027 10.7909 24.0027C10.79 24.0027 10.789 24.0027 10.7881 24.0027H10.3302C10.1131 24.0027 9.91949 23.9002 9.79533 23.7409C9.79141 23.719 9.78837 23.6968 9.78613 23.6743C9.80157 23.6751 9.81717 23.6756 9.83277 23.6756H15.2816V24.0027ZM23.3954 22.6897C23.3227 22.6773 23.2479 22.6708 23.1717 22.6708C23.1265 22.6708 23.082 22.6731 23.038 22.6775V10.4704C23.038 10.4436 23.0367 10.4171 23.0341 10.3909C23.0679 10.3928 23.101 10.3967 23.1335 10.4026C23.2928 10.5267 23.3954 10.7203 23.3954 10.9375V22.6897Z" fill="#0B8FD0"/>
<path d="M9.78618 23.6743C9.7733 23.6735 9.76042 23.6726 9.7477 23.6712C9.68714 23.5698 9.65234 23.4513 9.65234 23.3247V10.9375C9.65234 10.5637 9.95642 10.2595 10.3303 10.2595H15.2816V10.3896H10.6004C10.1484 10.3896 9.78242 10.7556 9.78242 11.2076V23.5948C9.78242 23.6216 9.7837 23.6482 9.78618 23.6743ZM23.0342 10.3909C23.0187 10.3901 23.0032 10.3896 22.9876 10.3896H19.4234L19.015 10.2595H22.7175C22.8288 10.2595 22.9339 10.2865 23.0267 10.3342C23.0299 10.3529 23.0323 10.3718 23.0342 10.3909Z" fill="#93E8FC"/>
<path d="M9.79536 23.7409C9.77808 23.7187 9.76216 23.6955 9.74768 23.6712C9.7604 23.6726 9.77328 23.6735 9.78616 23.6743C9.7884 23.6968 9.79144 23.719 9.79536 23.7409Z" fill="#91CCEA"/>
<path d="M23.1335 10.4026C23.1011 10.3967 23.0679 10.3928 23.0342 10.3909C23.0323 10.3719 23.0299 10.3529 23.0267 10.3343C23.0645 10.3537 23.1003 10.3767 23.1335 10.4026Z" fill="#91CCEA"/>
<path d="M21.6792 22.9673H11.3685C10.9925 22.9673 10.6877 22.6624 10.6877 22.2864V11.9758C10.6877 11.5998 10.9925 11.295 11.3685 11.295H21.6792C22.0552 11.295 22.36 11.5998 22.36 11.9758V22.2864C22.36 22.6624 22.0552 22.9673 21.6792 22.9673Z" fill="#DAD6FC"/>
<path d="M11.3686 11.315C11.0042 11.315 10.7077 11.6115 10.7077 11.9759V22.2864C10.7077 22.6508 11.0042 22.9473 11.3686 22.9473H21.6792C22.0436 22.9473 22.34 22.6508 22.34 22.2864V11.9759C22.34 11.6115 22.0436 11.315 21.6792 11.315H11.3686ZM21.6792 22.9873H11.3686C10.9822 22.9873 10.6677 22.6729 10.6677 22.2864V11.9759C10.6677 11.5894 10.9822 11.275 11.3686 11.275H21.6792C22.0656 11.275 22.38 11.5894 22.38 11.9759V22.2864C22.38 22.6729 22.0656 22.9873 21.6792 22.9873Z" fill="#000072"/>
<path d="M21.6792 22.9673H11.3685C10.9925 22.9673 10.6877 22.6624 10.6877 22.2864V11.9758C10.6877 11.5998 10.9925 11.295 11.3685 11.295H21.6792C22.0552 11.295 22.36 11.5998 22.36 11.9758V22.2864C22.36 22.6624 22.0552 22.9673 21.6792 22.9673Z" fill="#B59BF0"/>
<path d="M10.7909 24.1427C11.2854 25.3699 11.8463 25.6821 12.5422 24.1427H10.7909Z" fill="#5DCBED"/>
<path d="M11.6399 25.2034C11.6373 25.2034 11.6345 25.2034 11.6318 25.2034C11.3365 25.1973 11.0555 24.8527 10.7725 24.1502L10.8095 24.1353C11.0859 24.8213 11.3552 25.1576 11.6326 25.1634C11.9144 25.1693 12.2128 24.823 12.524 24.1345L12.5605 24.151C12.2404 24.859 11.9392 25.2034 11.6399 25.2034Z" fill="#000072"/>
<path d="M21.3493 25.0435C21.3475 25.0435 21.3459 25.0435 21.3441 25.0434C21.2055 25.0406 20.9876 24.9007 20.7113 24.2827H21.8757C21.8897 24.3466 21.9083 24.4086 21.9312 24.4687C21.6559 24.9563 21.4547 25.0435 21.3493 25.0435Z" fill="#418EC8"/>
<path d="M21.6713 25.0436H21.0337C20.8677 24.8947 20.7098 24.6323 20.5583 24.2827H20.7113C20.9876 24.9006 21.2055 25.0405 21.3441 25.0433C21.3459 25.0434 21.3475 25.0434 21.3493 25.0434C21.4547 25.0434 21.6559 24.9563 21.9312 24.4686C21.9517 24.5224 21.9756 24.5745 22.0027 24.6247C21.8886 24.8141 21.7783 24.9521 21.6713 25.0436Z" fill="#000072"/>
<path d="M11.6403 25.0435C11.6385 25.0435 11.6368 25.0435 11.6351 25.0434C11.4964 25.0406 11.2785 24.9007 11.0022 24.2827H12.3208C11.9948 24.9351 11.7592 25.0435 11.6403 25.0435Z" fill="#418EC8"/>
<path d="M11.3812 16.8305L11.3891 18.5905C11.3896 18.6929 11.3069 18.7763 11.2045 18.7768L10.8487 18.7784C10.7463 18.7789 10.6628 18.6961 10.6623 18.5937L10.6544 16.8338C10.654 16.7313 10.7367 16.6479 10.8391 16.6475L11.1949 16.6459C11.2974 16.6454 11.3807 16.7281 11.3812 16.8305Z" fill="#F9C710"/>
<path d="M11.1958 16.6658H11.1951L10.8392 16.6674C10.7951 16.6677 10.7536 16.6851 10.7224 16.7165C10.6914 16.7478 10.6744 16.7895 10.6745 16.8338L10.6825 18.5937C10.6827 18.6378 10.7 18.6793 10.7315 18.7105C10.7627 18.7414 10.804 18.7584 10.8479 18.7584H10.8487L11.2045 18.7568C11.2487 18.7566 11.2902 18.7392 11.3213 18.7078C11.3524 18.6764 11.3694 18.6348 11.3692 18.5906L11.3613 16.8306C11.3609 16.7396 11.2868 16.6658 11.1958 16.6658ZM10.8479 18.7984C10.7934 18.7984 10.742 18.7773 10.7033 18.7389C10.6643 18.7002 10.6427 18.6487 10.6424 18.5938L10.6345 16.8339C10.6343 16.779 10.6555 16.7274 10.6941 16.6883C10.7327 16.6494 10.7842 16.6277 10.8391 16.6274L11.1949 16.6258H11.1958C11.3088 16.6258 11.4008 16.7175 11.4013 16.8305L11.4092 18.5904C11.4095 18.6453 11.3884 18.697 11.3497 18.7359C11.3111 18.775 11.2596 18.7966 11.2047 18.7968L10.8488 18.7984H10.8479Z" fill="#000072"/>
<path d="M11.3649 18.1889L11.3675 18.7536L10.6707 18.7567L10.6681 18.192L11.3649 18.1889Z" fill="#F89F1D"/>
<path d="M10.6881 18.2119L10.6905 18.7366L11.3472 18.7337L11.3449 18.209L10.6881 18.2119ZM10.6507 18.7768L10.6479 18.1721L11.3847 18.1688L11.3874 18.7735L10.6507 18.7768Z" fill="#000072"/>
<path d="M11.1957 16.7658H11.1955L10.8396 16.7674C10.8222 16.7675 10.8057 16.7744 10.7935 16.7869C10.7811 16.7993 10.7743 16.8157 10.7744 16.8333L10.7824 18.5932C10.7824 18.6107 10.7893 18.6271 10.8018 18.6394C10.8141 18.6517 10.8304 18.6584 10.8478 18.6584H10.8481L11.2039 18.6568C11.2215 18.6567 11.2379 18.6498 11.2502 18.6374C11.2625 18.6249 11.2692 18.6085 11.2691 18.591L11.2612 16.831C11.2611 16.8136 11.2543 16.7972 11.2419 16.7849C11.2295 16.7725 11.2131 16.7658 11.1957 16.7658ZM10.8478 18.8984C10.7667 18.8984 10.6904 18.8669 10.6328 18.8099C10.5748 18.7525 10.5427 18.6758 10.5423 18.5942L10.5344 16.8343C10.534 16.7527 10.5655 16.6759 10.6229 16.6179C10.6804 16.56 10.757 16.5278 10.8386 16.5275L11.1943 16.5258H11.1957C11.2768 16.5258 11.3531 16.5573 11.4107 16.6144C11.4687 16.6718 11.5008 16.7484 11.5012 16.83L11.5091 18.5899C11.5095 18.6715 11.4781 18.7484 11.4207 18.8063C11.3632 18.8643 11.2866 18.8964 11.205 18.8968L10.8492 18.8984H10.8478Z" fill="#000072"/>
<path d="M11.3812 18.7547L11.3891 20.5147C11.3896 20.6171 11.3069 20.7005 11.2045 20.701L10.8487 20.7026C10.7463 20.703 10.6628 20.6203 10.6623 20.5179L10.6544 18.7579C10.654 18.6555 10.7367 18.5721 10.8391 18.5716L11.1949 18.57C11.2974 18.5696 11.3807 18.6523 11.3812 18.7547Z" fill="#F9C710"/>
<path d="M11.1958 18.59H11.1951L10.8392 18.5916C10.7951 18.5918 10.7536 18.6092 10.7224 18.6406C10.6914 18.672 10.6744 18.7137 10.6745 18.7578L10.6825 20.5178C10.6828 20.6088 10.7571 20.6825 10.848 20.6825H10.8487L11.2045 20.6809C11.2487 20.6808 11.2902 20.6633 11.3213 20.6319C11.3524 20.6005 11.3694 20.5589 11.3692 20.5147L11.3613 18.7547C11.3609 18.6637 11.2868 18.59 11.1958 18.59ZM10.848 20.7225C10.7351 20.7225 10.6429 20.6309 10.6424 20.518L10.6345 18.758C10.6343 18.7031 10.6555 18.6514 10.6941 18.6125C10.7327 18.5735 10.7842 18.5518 10.8391 18.5516L11.1949 18.55H11.1958C11.3088 18.55 11.4008 18.6416 11.4013 18.7545L11.4092 20.5145C11.4095 20.5694 11.3884 20.6211 11.3497 20.6601C11.3111 20.6991 11.2596 20.7207 11.2047 20.7209L10.8488 20.7225H10.848Z" fill="#000072"/>
<path d="M10.8276 19.3721V19.3129C10.842 19.333 10.8568 19.3526 10.8722 19.3719L10.8276 19.3721Z" fill="#FCE693"/>
<path d="M10.8276 19.4121V19.3721L10.8722 19.372C10.8829 19.3855 10.894 19.3987 10.9052 19.4118L10.8276 19.4121Z" fill="#705A46"/>
<path d="M11.3649 20.1131L11.3675 20.6777L10.6707 20.6809L10.6681 20.1162L11.3649 20.1131Z" fill="#F89F1D"/>
<path d="M10.6881 20.1361L10.6905 20.6607L11.3472 20.6577L11.3449 20.1331L10.6881 20.1361ZM10.6507 20.7009L10.6479 20.0962L11.3847 20.0929L11.3874 20.6977L10.6507 20.7009Z" fill="#000072"/>
<path d="M11.1957 18.69H11.1955L10.8396 18.6916C10.8222 18.6917 10.8057 18.6986 10.7935 18.7111C10.7811 18.7235 10.7743 18.7399 10.7744 18.7575L10.7824 20.5174C10.7824 20.5349 10.7893 20.5513 10.8018 20.5636C10.8141 20.5759 10.8305 20.5826 10.8479 20.5826H10.8482L11.2039 20.581C11.2215 20.5809 11.2379 20.574 11.2502 20.5615C11.2625 20.5491 11.2692 20.5327 11.2691 20.5152L11.2612 18.7552C11.2611 18.7377 11.2543 18.7213 11.2419 18.7091C11.2295 18.6967 11.2131 18.69 11.1957 18.69ZM10.8479 20.8226C10.7667 20.8226 10.6904 20.7911 10.6328 20.7341C10.5748 20.6766 10.5427 20.6 10.5423 20.5184L10.5344 18.7585C10.534 18.6769 10.5655 18.6001 10.6229 18.5421C10.6804 18.4841 10.757 18.452 10.8386 18.4516L11.1943 18.45H11.1957C11.2768 18.45 11.3531 18.4815 11.4107 18.5386C11.4687 18.596 11.5008 18.6726 11.5012 18.7542L11.5091 20.5141C11.5095 20.5957 11.4781 20.6725 11.4207 20.7305C11.3632 20.7885 11.2867 20.8206 11.2051 20.821L10.8492 20.8226H10.8479Z" fill="#000072"/>
<path d="M11.3812 19.8606L11.3891 21.6206C11.3896 21.723 11.3069 21.8064 11.2045 21.8069L10.8487 21.8085C10.7463 21.8089 10.6628 21.7262 10.6623 21.6238L10.6544 19.8638C10.654 19.7614 10.7367 19.678 10.8391 19.6775L11.1949 19.6759C11.2974 19.6754 11.3807 19.7582 11.3812 19.8606Z" fill="#F9C710"/>
<path d="M11.1959 19.6959H11.1951L10.8392 19.6975C10.7951 19.6978 10.7536 19.7151 10.7224 19.7466C10.6914 19.7779 10.6744 19.8195 10.6745 19.8638L10.6825 21.6238C10.6827 21.6679 10.7 21.7094 10.7315 21.7406C10.7627 21.7715 10.804 21.7885 10.8479 21.7885H10.8487L11.2045 21.7869C11.2487 21.7867 11.2902 21.7692 11.3213 21.7379C11.3524 21.7065 11.3694 21.6648 11.3692 21.6207L11.3613 19.8607C11.3611 19.8165 11.3437 19.7751 11.3123 19.7439C11.2811 19.713 11.2398 19.6959 11.1959 19.6959ZM10.8479 21.8285C10.7934 21.8285 10.742 21.8074 10.7033 21.769C10.6643 21.7303 10.6427 21.6788 10.6424 21.6239L10.6345 19.8639C10.6343 19.8091 10.6555 19.7574 10.6941 19.7184C10.7327 19.6794 10.7842 19.6578 10.8391 19.6575L11.1949 19.6559C11.25 19.6575 11.3016 19.6769 11.3405 19.7155C11.3795 19.7541 11.4011 19.8057 11.4013 19.8606L11.4092 21.6205C11.4095 21.6754 11.3884 21.7271 11.3497 21.766C11.3111 21.805 11.2596 21.8267 11.2047 21.8269L10.8488 21.8285H10.8479Z" fill="#000072"/>
<path d="M11.3649 21.219L11.3675 21.7836L10.6707 21.7867L10.6681 21.2221L11.3649 21.219Z" fill="#F89F1D"/>
<path d="M10.6881 21.242L10.6905 21.7667L11.3472 21.7637L11.3449 21.2391L10.6881 21.242ZM10.6507 21.8068L10.6479 21.2022L11.3847 21.1989L11.3874 21.8035L10.6507 21.8068Z" fill="#000072"/>
<path d="M11.1958 19.7959H11.1955L10.8396 19.7975C10.8221 19.7976 10.8057 19.8045 10.7934 19.8169C10.7811 19.8293 10.7743 19.8457 10.7744 19.8633L10.7824 21.6233C10.7824 21.6407 10.7893 21.6572 10.8018 21.6694C10.8142 21.6818 10.8307 21.6899 10.8481 21.6885L11.2039 21.6869C11.2215 21.6868 11.2379 21.6799 11.2502 21.6674C11.2625 21.655 11.2692 21.6385 11.2691 21.621L11.2612 19.8611C11.2611 19.8436 11.2543 19.8272 11.2419 19.8149C11.2295 19.8026 11.2131 19.7959 11.1958 19.7959ZM10.8478 21.9285C10.7667 21.9285 10.6904 21.897 10.6328 21.8399C10.5748 21.7825 10.5427 21.7059 10.5423 21.6243L10.5344 19.8644C10.534 19.7828 10.5655 19.7059 10.6229 19.648C10.6804 19.59 10.757 19.5579 10.8386 19.5575L11.1943 19.5559H11.1958C11.2769 19.5559 11.3531 19.5873 11.4107 19.6444C11.4687 19.7019 11.5008 19.7785 11.5012 19.8601L11.5091 21.62C11.5095 21.7016 11.4781 21.7784 11.4207 21.8364C11.3632 21.8943 11.2867 21.9265 11.2051 21.9269L10.8492 21.9285H10.8478Z" fill="#000072"/>
<path d="M14.8286 16.5054C14.8286 17.1718 14.2883 17.7122 13.6218 17.7122C12.9552 17.7122 12.4149 17.1718 12.4149 16.5054C12.4149 15.8388 12.9552 15.2985 13.6218 15.2985C14.2883 15.2985 14.8286 15.8388 14.8286 16.5054Z" fill="#F9C710"/>
<path d="M13.6219 15.3185C12.9674 15.3185 12.435 15.8509 12.435 16.5054C12.435 17.1598 12.9674 17.6922 13.6219 17.6922C14.2763 17.6922 14.8087 17.1598 14.8087 16.5054C14.8087 15.8509 14.2763 15.3185 13.6219 15.3185ZM13.6219 17.7322C12.9454 17.7322 12.395 17.1818 12.395 16.5054C12.395 15.8289 12.9454 15.2785 13.6219 15.2785C14.2983 15.2785 14.8487 15.8289 14.8487 16.5054C14.8487 17.1818 14.2983 17.7322 13.6219 17.7322Z" fill="#000072"/>
<path d="M14.3118 16.0736C14.1479 16.0737 14.0106 15.8745 14.1198 15.7195C13.9261 15.5867 13.6917 15.5086 13.4389 15.5086C13.3146 15.5086 13.1948 15.5274 13.0822 15.5622C13.2413 15.4708 13.4255 15.4185 13.6218 15.4185C13.8882 15.4185 14.1323 15.5148 14.3215 15.6744V16.0734C14.3182 16.0736 14.315 16.0736 14.3118 16.0736Z" fill="#FCE693"/>
<path d="M14.2545 16.5054C14.2545 16.8548 13.9712 17.138 13.6219 17.138C13.2724 17.138 12.9891 16.8548 12.9891 16.5054C12.9891 16.1559 13.2724 15.8726 13.6219 15.8726C13.9712 15.8726 14.2545 16.1559 14.2545 16.5054Z" fill="#F89F1D"/>
<path d="M12.9487 16.6931C12.94 16.6514 12.9355 16.6081 12.9355 16.5638C12.9355 16.3869 13.0085 16.2262 13.1261 16.1121C13.1211 16.1183 13.1162 16.1247 13.1115 16.1312C13.1115 16.1311 13.1116 16.1311 13.1117 16.1311C13.0767 16.1786 13.0483 16.2312 13.0276 16.2876C13.0026 16.3555 12.9889 16.429 12.9889 16.5054C12.9889 16.5595 12.9957 16.612 13.0085 16.6623C12.9883 16.672 12.9683 16.6823 12.9487 16.6931Z" fill="#FCE693"/>
<path d="M13.0276 16.2876C13.0482 16.2312 13.0767 16.1786 13.1117 16.131C13.1121 16.1306 13.1125 16.1302 13.113 16.1298C13.0775 16.1775 13.0485 16.2306 13.0276 16.2876Z" fill="#FCD499"/>
<path d="M14.2256 16.6954C14.2256 16.6954 14.2255 16.6954 14.2255 16.6954C14.2443 16.6354 14.2545 16.5715 14.2545 16.5054C14.2545 16.2235 14.0703 15.9847 13.8156 15.9029C14.0703 15.9846 14.2547 16.2234 14.2547 16.5054C14.2547 16.5716 14.2446 16.6354 14.2256 16.6954ZM13.1261 16.1121C13.1801 16.044 13.2479 15.9874 13.3253 15.9463C13.2482 15.9873 13.1805 16.0438 13.1265 16.1116C13.1263 16.1118 13.1262 16.1119 13.1261 16.1121Z" fill="#AE8B2E"/>
<path d="M14.2254 16.6954C14.2046 16.6839 14.1834 16.6728 14.1618 16.6623C14.1636 16.6429 14.1646 16.6231 14.1646 16.6031C14.1646 16.2539 13.8813 15.9705 13.5319 15.9705C13.3714 15.9705 13.2246 16.0309 13.113 16.1298C13.1183 16.1227 13.1237 16.1158 13.1292 16.109C13.1283 16.1099 13.1274 16.1107 13.1265 16.1116C13.1805 16.0438 13.2482 15.9873 13.3253 15.9463C13.4138 15.8993 13.5149 15.8727 13.6221 15.8727C13.6896 15.8727 13.7546 15.8833 13.8156 15.9029C14.0702 15.9847 14.2545 16.2235 14.2545 16.5054C14.2545 16.5715 14.2443 16.6354 14.2254 16.6954Z" fill="#AD6F37"/>
<path d="M13.1115 16.1312C13.1162 16.1247 13.121 16.1183 13.1261 16.1121C13.1262 16.1119 13.1263 16.1118 13.1265 16.1116C13.1214 16.118 13.1165 16.1244 13.1117 16.1311C13.1116 16.1311 13.1115 16.1311 13.1115 16.1312Z" fill="#B0A189"/>
<path d="M13.1117 16.131C13.1165 16.1244 13.1215 16.118 13.1265 16.1116C13.1275 16.1107 13.1283 16.1098 13.1292 16.109C13.1237 16.1158 13.1183 16.1227 13.1131 16.1298C13.1126 16.1302 13.1122 16.1306 13.1117 16.131Z" fill="#B0948D"/>
<path d="M13.6218 15.4185C13.0224 15.4185 12.5349 15.9061 12.5349 16.5054C12.5349 17.1046 13.0224 17.5922 13.6218 17.5922C14.221 17.5922 14.7086 17.1046 14.7086 16.5054C14.7086 15.9061 14.221 15.4185 13.6218 15.4185ZM13.6218 17.8322C12.8902 17.8322 12.2949 17.237 12.2949 16.5054C12.2949 15.7738 12.8902 15.1785 13.6218 15.1785C14.3534 15.1785 14.9486 15.7738 14.9486 16.5054C14.9486 17.237 14.3534 17.8322 13.6218 17.8322Z" fill="#000072"/>
<path d="M10.8276 13.7219V11.9759C10.8276 11.6776 11.0703 11.435 11.3685 11.435H14.3223C14.3218 11.4426 14.3215 11.4503 14.3215 11.458V13.4548H11.3684C11.148 13.4548 10.9521 13.5595 10.8276 13.7219Z" fill="#7E6CCA"/>
<path d="M10.3302 10.2595C9.95635 10.2595 9.65227 10.5637 9.65227 10.9375V23.3247C9.65227 23.6986 9.95635 24.0027 10.3302 24.0027H22.7174C23.0912 24.0027 23.3954 23.6986 23.3954 23.3247V10.9375C23.3954 10.5637 23.0912 10.2595 22.7174 10.2595H10.3302ZM22.7174 24.2827H10.3302C9.80195 24.2827 9.37219 23.853 9.37219 23.3247V10.9375C9.37219 10.4093 9.80195 9.97952 10.3302 9.97952H22.7174C23.2457 9.97952 23.6754 10.4093 23.6754 10.9375V23.3247C23.6754 23.853 23.2457 24.2827 22.7174 24.2827Z" fill="#000072"/>
<path d="M14.7918 17.8571C14.7918 18.5236 14.2515 19.0639 13.585 19.0639C12.9185 19.0639 12.3782 18.5236 12.3782 17.8571C12.3782 17.1905 12.9185 16.6503 13.585 16.6503C14.2515 16.6503 14.7918 17.1905 14.7918 17.8571Z" fill="#F9C710"/>
<path d="M14.2749 17.4254C14.111 17.4254 13.9738 17.2262 14.083 17.0713C13.8892 16.9385 13.6548 16.8604 13.4021 16.8604C13.2777 16.8604 13.1579 16.8791 13.0453 16.914C13.2044 16.8225 13.3887 16.7703 13.585 16.7703C13.8689 16.7703 14.1278 16.8797 14.3215 17.0586V17.4199C14.3059 17.4237 14.2903 17.4254 14.2749 17.4254Z" fill="#FCE693"/>
<path d="M14.2177 17.8571C14.2177 18.2066 13.9344 18.4899 13.585 18.4899C13.2356 18.4899 12.9523 18.2066 12.9523 17.8571C12.9523 17.5077 13.2356 17.2244 13.585 17.2244C13.9344 17.2244 14.2177 17.5077 14.2177 17.8571Z" fill="#F89F1D"/>
<path d="M13.532 18.5482C13.4245 18.5482 13.3231 18.5214 13.2345 18.4742C13.2327 18.4418 13.2298 18.4098 13.2258 18.378C13.2265 18.3786 13.2273 18.379 13.2281 18.3796C13.3297 18.4491 13.4526 18.4898 13.585 18.4898C13.7553 18.4898 13.9098 18.4226 14.0236 18.3132C13.9079 18.4568 13.7305 18.5482 13.532 18.5482ZM12.963 17.7397C12.9538 17.7277 12.9445 17.7159 12.9349 17.7043C12.9676 17.6123 13.0209 17.5302 13.0893 17.4638C13.0843 17.4701 13.0794 17.4765 13.0746 17.483C13.0747 17.483 13.0748 17.4829 13.0749 17.4828C13.0394 17.531 13.0107 17.5843 12.99 17.6415C12.9785 17.6731 12.9694 17.706 12.963 17.7397Z" fill="#FCE693"/>
<path d="M13.5849 18.4899C13.4525 18.4899 13.3295 18.4491 13.2279 18.3796C13.3296 18.4491 13.4526 18.4898 13.5852 18.4898C13.7567 18.4898 13.9123 18.4211 14.026 18.31C14.0251 18.3111 14.0243 18.3121 14.0235 18.3132C13.9097 18.4226 13.7551 18.4899 13.5849 18.4899ZM12.9899 17.6415C13.0106 17.5843 13.0393 17.531 13.0747 17.4828C13.0752 17.4824 13.0757 17.482 13.0762 17.4815C13.0402 17.5299 13.0109 17.5838 12.9899 17.6415Z" fill="#FCD499"/>
<path d="M14.1234 18.1896C14.1832 18.093 14.2177 17.9791 14.2177 17.8571C14.2177 17.5753 14.0335 17.3365 13.7789 17.2546C14.0336 17.3365 14.218 17.5753 14.218 17.8571C14.218 17.9791 14.1834 18.0932 14.1234 18.1896ZM13.0892 17.4637C13.1424 17.3967 13.2091 17.3408 13.285 17.2999C13.2093 17.3407 13.1428 17.3965 13.0896 17.4634C13.0896 17.4635 13.0894 17.4637 13.0892 17.4637Z" fill="#AE8B2E"/>
<path d="M14.0039 18.3303C14.0821 18.2255 14.1277 18.0953 14.1277 17.9549C14.1277 17.6056 13.8445 17.3223 13.4951 17.3223C13.3345 17.3223 13.1879 17.3827 13.0763 17.4815C13.0815 17.4745 13.0869 17.4676 13.0925 17.4608C13.0915 17.4617 13.0906 17.4625 13.0897 17.4634C13.1429 17.3966 13.2093 17.3407 13.285 17.2999C13.2851 17.2998 13.2852 17.2998 13.2853 17.2998C13.2853 17.2997 13.2854 17.2997 13.2856 17.2996C13.3748 17.2517 13.4769 17.2245 13.5853 17.2245C13.6529 17.2245 13.7179 17.235 13.7789 17.2546C14.0335 17.3366 14.2177 17.5753 14.2177 17.8571C14.2177 17.9791 14.1833 18.093 14.1234 18.1896C14.0906 18.2423 14.0503 18.2897 14.0039 18.3303Z" fill="#AD6F37"/>
<path d="M13.0746 17.483C13.0794 17.4765 13.0843 17.4701 13.0892 17.4638C13.0894 17.4637 13.0895 17.4635 13.0896 17.4635C13.0846 17.4698 13.0796 17.4763 13.0748 17.4828C13.0747 17.4829 13.0747 17.483 13.0746 17.483Z" fill="#B0A189"/>
<path d="M13.0748 17.4828C13.0796 17.4762 13.0846 17.4697 13.0896 17.4634C13.0906 17.4625 13.0915 17.4617 13.0924 17.4608C13.0869 17.4676 13.0815 17.4745 13.0763 17.4815C13.0758 17.482 13.0753 17.4824 13.0748 17.4828Z" fill="#B0948D"/>
<path d="M13.585 16.7703C12.9857 16.7703 12.4982 17.2578 12.4982 17.8571C12.4982 18.4564 12.9857 18.9439 13.585 18.9439C14.1843 18.9439 14.6718 18.4564 14.6718 17.8571C14.6718 17.2578 14.1843 16.7703 13.585 16.7703ZM13.585 19.1839C12.8534 19.1839 12.2582 18.5887 12.2582 17.8571C12.2582 17.1255 12.8534 16.5303 13.585 16.5303C14.3166 16.5303 14.9118 17.1255 14.9118 17.8571C14.9118 18.5887 14.3166 19.1839 13.585 19.1839Z" fill="#000072"/>
<path d="M13.1162 18.5453C13.1162 19.2119 12.5759 19.7521 11.9094 19.7521C11.243 19.7521 10.7026 19.2119 10.7026 18.5453C10.7026 17.8789 11.243 17.3385 11.9094 17.3385C12.5759 17.3385 13.1162 17.8789 13.1162 18.5453Z" fill="#F9C710"/>
<path d="M12.9173 18.952C12.9278 18.8881 12.9332 18.8224 12.9332 18.7555C12.9332 18.5027 12.8551 18.2677 12.7218 18.0739C12.6815 18.1017 12.6396 18.1137 12.5993 18.1137C12.5017 18.1137 12.4135 18.043 12.3812 17.9531L12.4934 17.6292C12.7955 17.8224 12.9962 18.1609 12.9962 18.5454C12.9962 18.6891 12.9682 18.8263 12.9173 18.952Z" fill="#FCE693"/>
<path d="M12.5422 18.5454C12.5422 18.8948 12.2589 19.1781 11.9095 19.1781C11.56 19.1781 11.2767 18.8948 11.2767 18.5454C11.2767 18.1959 11.56 17.9127 11.9095 17.9127C12.2589 17.9127 12.5422 18.1959 12.5422 18.5454Z" fill="#F89F1D"/>
<path d="M11.3425 19.1155C11.2682 19.0772 11.2266 18.9725 11.2955 18.8973C11.2492 18.8096 11.2231 18.7099 11.2231 18.6039C11.2231 18.4269 11.2962 18.2663 11.4137 18.1521C11.4087 18.1584 11.4039 18.1648 11.3991 18.1713C11.3991 18.1712 11.3992 18.1711 11.3993 18.1711C11.3643 18.2187 11.3359 18.2713 11.3152 18.3276C11.2902 18.3956 11.2765 18.469 11.2765 18.5454C11.2765 18.743 11.3671 18.9194 11.5091 19.0354C11.4515 19.0583 11.3959 19.0851 11.3425 19.1155Z" fill="#FCE693"/>
<path d="M11.3152 18.3276C11.3358 18.2713 11.3643 18.2186 11.3993 18.1711C11.3997 18.1706 11.4002 18.1702 11.4007 18.1698C11.3651 18.2176 11.3361 18.2706 11.3152 18.3276Z" fill="#FCD499"/>
<path d="M12.4471 18.8792C12.5074 18.7823 12.5422 18.6679 12.5422 18.5454C12.5422 18.3611 12.4633 18.1952 12.3375 18.0795V18.0794C12.4635 18.1951 12.5423 18.3611 12.5423 18.5454C12.5423 18.6679 12.5075 18.7824 12.4471 18.8792ZM11.4137 18.1521C11.4521 18.1037 11.4975 18.0612 11.5482 18.0259H11.5483C11.4977 18.0611 11.4525 18.1035 11.4142 18.1517C11.414 18.1518 11.4139 18.1519 11.4137 18.1521Z" fill="#AE8B2E"/>
<path d="M12.3572 18.9917C12.3544 18.9909 12.3516 18.9901 12.3488 18.9894C12.4144 18.89 12.4522 18.7708 12.4522 18.6432C12.4522 18.4802 12.3904 18.3315 12.2892 18.2193L12.3376 18.0795C12.4633 18.1951 12.5422 18.3611 12.5422 18.5454C12.5422 18.6679 12.5074 18.7823 12.4471 18.8791C12.4215 18.9201 12.3913 18.9579 12.3572 18.9917ZM11.4008 18.1699C11.406 18.1628 11.4113 18.1559 11.4169 18.1491C11.416 18.1499 11.4151 18.1508 11.4142 18.1517C11.4525 18.1035 11.4977 18.0611 11.5483 18.0259L11.6011 18.0496C11.5268 18.0771 11.4589 18.1183 11.4008 18.1699Z" fill="#AD6F37"/>
<path d="M11.399 18.1713C11.4038 18.1648 11.4087 18.1584 11.4137 18.1521C11.4138 18.1519 11.414 18.1517 11.4142 18.1517C11.409 18.158 11.4041 18.1645 11.3993 18.1711C11.3992 18.1711 11.3991 18.1712 11.399 18.1713Z" fill="#B0A189"/>
<path d="M11.3993 18.1711C11.4041 18.1645 11.4091 18.158 11.4142 18.1517C11.4151 18.1508 11.4159 18.1499 11.4169 18.1491C11.4113 18.1559 11.4059 18.1628 11.4007 18.1699C11.4003 18.1703 11.3998 18.1707 11.3993 18.1711Z" fill="#B0948D"/>
<path d="M11.9094 17.4586C11.3102 17.4586 10.8226 17.9461 10.8226 18.5454C10.8226 19.1447 11.3102 19.6323 11.9094 19.6323C12.5087 19.6323 12.9962 19.1447 12.9962 18.5454C12.9962 17.9461 12.5087 17.4586 11.9094 17.4586ZM11.9094 19.8723C11.1778 19.8723 10.5826 19.277 10.5826 18.5454C10.5826 17.8138 11.1778 17.2186 11.9094 17.2186C12.641 17.2186 13.2362 17.8138 13.2362 18.5454C13.2362 19.277 12.641 19.8723 11.9094 19.8723Z" fill="#000072"/>
<path d="M13.2046 20.269C13.2046 20.9355 12.6643 21.4758 11.9978 21.4758C11.3312 21.4758 10.7909 20.9355 10.7909 20.269C10.7909 19.6025 11.3312 19.0622 11.9978 19.0622C12.6643 19.0622 13.2046 19.6025 13.2046 20.269Z" fill="#F9C710"/>
<path d="M11.458 19.3259C11.6171 19.2345 11.8014 19.1822 11.9977 19.1822C12.0466 19.1822 12.0948 19.1855 12.1421 19.1917C12.093 19.2204 12.0458 19.2521 12.0009 19.2867C11.9402 19.2772 11.8781 19.2723 11.8148 19.2723C11.6904 19.2723 11.5706 19.2911 11.458 19.3259Z" fill="#FCE693"/>
<path d="M12.6304 20.269C12.6304 20.6184 12.3471 20.9017 11.9977 20.9017C11.6483 20.9017 11.365 20.6184 11.365 20.269C11.365 19.9196 11.6483 19.6363 11.9977 19.6363C12.3471 19.6363 12.6304 19.9196 12.6304 20.269Z" fill="#F89F1D"/>
<path d="M11.3538 20.7448C11.3424 20.7042 11.349 20.6588 11.3838 20.6209C11.3374 20.5332 11.3114 20.4336 11.3114 20.3275C11.3114 20.1506 11.3844 19.9899 11.502 19.8757C11.4969 19.882 11.492 19.8884 11.4873 19.8949C11.4874 19.8948 11.4875 19.8948 11.4876 19.8947C11.4526 19.9423 11.4241 19.9949 11.4035 20.0513C11.3784 20.1192 11.3647 20.1926 11.3647 20.269C11.3647 20.4224 11.4193 20.5629 11.5101 20.6724C11.4573 20.6933 11.4051 20.7174 11.3538 20.7448Z" fill="#FCE693"/>
<path d="M11.4036 20.0513C11.4242 19.9949 11.4527 19.9422 11.4876 19.8946C11.488 19.8942 11.4885 19.8938 11.489 19.8934C11.4535 19.9412 11.4245 19.9943 11.4036 20.0513Z" fill="#FCD499"/>
<path d="M11.502 19.8757C11.5336 19.8358 11.57 19.7998 11.6104 19.7686C11.6104 19.7686 11.6104 19.7686 11.6104 19.7686C11.5702 19.7998 11.534 19.8356 11.5024 19.8753C11.5022 19.8754 11.502 19.8755 11.502 19.8757Z" fill="#AE8B2E"/>
<path d="M11.489 19.8934C11.4943 19.8864 11.4997 19.8794 11.5052 19.8726C11.5043 19.8735 11.5033 19.8744 11.5025 19.8753C11.5341 19.8356 11.5703 19.7998 11.6105 19.7686C11.602 19.7864 11.5939 19.8043 11.5861 19.8225C11.5515 19.8431 11.519 19.8669 11.489 19.8934Z" fill="#AD6F37"/>
<path d="M11.4873 19.8949C11.492 19.8884 11.4969 19.882 11.5019 19.8757C11.502 19.8755 11.5022 19.8755 11.5023 19.8753C11.4973 19.8817 11.4923 19.8881 11.4875 19.8947C11.4875 19.8947 11.4874 19.8948 11.4873 19.8949Z" fill="#B0A189"/>
<path d="M11.4875 19.8947C11.4923 19.8881 11.4973 19.8817 11.5023 19.8753C11.5032 19.8744 11.5042 19.8735 11.5051 19.8727C11.4995 19.8795 11.4942 19.8864 11.4889 19.8935C11.4884 19.8939 11.4879 19.8943 11.4875 19.8947Z" fill="#B0948D"/>
<path d="M11.9977 19.1821C11.3985 19.1821 10.9109 19.6697 10.9109 20.269C10.9109 20.8682 11.3985 21.3557 11.9977 21.3557C12.5971 21.3557 13.0846 20.8682 13.0846 20.269C13.0846 19.6697 12.5971 19.1821 11.9977 19.1821ZM11.9977 21.5958C11.2661 21.5958 10.6709 21.0006 10.6709 20.269C10.6709 19.5374 11.2661 18.9421 11.9977 18.9421C12.7293 18.9421 13.3246 19.5374 13.3246 20.269C13.3246 21.0006 12.7293 21.5958 11.9977 21.5958Z" fill="#000072"/>
<path d="M11.3686 11.435C11.0704 11.435 10.8277 11.6776 10.8277 11.9759V22.2864C10.8277 22.5847 11.0704 22.8273 11.3686 22.8273H21.6792C21.9775 22.8273 22.22 22.5847 22.22 22.2864V11.9759C22.22 11.6776 21.9775 11.435 21.6792 11.435H11.3686ZM21.6792 23.1073H11.3686C10.916 23.1073 10.5477 22.7391 10.5477 22.2864V11.9759C10.5477 11.5232 10.916 11.155 11.3686 11.155H21.6792C22.1318 11.155 22.5 11.5232 22.5 11.9759V22.2864C22.5 22.7391 22.1318 23.1073 21.6792 23.1073Z" fill="#000072"/>
<path d="M11.2958 20.9187C11.8775 20.5353 12.6238 20.6413 12.9627 21.1555C13.3016 21.6696 13.1048 22.3973 12.523 22.7807C11.9412 23.1641 11.195 23.0581 10.8561 22.5439C10.5172 22.0298 10.714 21.3021 11.2958 20.9187Z" fill="#F9C710"/>
<path d="M11.3651 22.8119C11.2002 22.7435 11.0574 22.6312 10.9563 22.4779C10.6544 22.0197 10.8363 21.3652 11.3619 21.0188C11.4397 20.9676 11.5206 20.9259 11.6032 20.8936C11.6062 20.9002 11.6093 20.9068 11.6125 20.9133C11.5989 20.9216 11.5855 20.9301 11.5722 20.9389C11.3516 21.0844 11.1861 21.2798 11.0849 21.4941C11.3111 21.5707 11.208 21.9113 10.9703 21.9176C10.9529 22.1434 11.004 22.3692 11.1325 22.5641C11.1968 22.6617 11.2756 22.7444 11.3651 22.8119Z" fill="#FCE693"/>
<path d="M11.5878 21.3616C11.8928 21.1605 12.284 21.2161 12.4617 21.4857C12.6394 21.7553 12.5362 22.1368 12.2312 22.3377C11.9262 22.5388 11.5349 22.4832 11.3572 22.2137C11.1796 21.9441 11.2828 21.5626 11.5878 21.3616Z" fill="#F89F1D"/>
<path d="M11.9172 22.466C11.8836 22.466 11.8505 22.4634 11.8181 22.4584C11.8244 22.4586 11.8308 22.4586 11.8371 22.4586C11.8388 22.4586 11.8406 22.4586 11.8424 22.4586C11.8423 22.4586 11.8422 22.4586 11.8421 22.4586C11.8999 22.4582 11.9587 22.4503 12.0168 22.4346C12.017 22.4346 12.0172 22.4346 12.0172 22.4346C12.0721 22.4198 12.1264 22.3982 12.1788 22.3696C12.186 22.3814 12.1932 22.3932 12.2008 22.4049C12.1082 22.4459 12.0112 22.466 11.9172 22.466Z" fill="#FCE693"/>
<path d="M11.8422 22.4586C11.8415 22.4585 11.841 22.4583 11.8403 22.4582C11.8986 22.4582 11.958 22.4504 12.0169 22.4346C11.9587 22.4503 11.8999 22.4582 11.8422 22.4586Z" fill="#FCD499"/>
<path d="M11.8182 22.4584C11.7301 22.4558 11.6452 22.4356 11.5692 22.3985C11.6449 22.4354 11.7298 22.4556 11.8177 22.4583C11.8178 22.4583 11.8181 22.4583 11.8182 22.4584ZM11.2847 22.0449C11.2276 21.8018 11.3423 21.5232 11.5877 21.3614C11.6702 21.307 11.7592 21.2713 11.8485 21.2538C11.8485 21.2538 11.8485 21.2538 11.8485 21.2539C11.7593 21.2715 11.6704 21.3072 11.5878 21.3616C11.3424 21.5233 11.2277 21.8018 11.2847 22.0449Z" fill="#AE8B2E"/>
<path d="M11.8176 22.4583C11.7298 22.4556 11.6449 22.4354 11.5691 22.3986C11.4844 22.3572 11.411 22.2951 11.3571 22.2134C11.3225 22.1608 11.2985 22.1039 11.2847 22.045C11.2276 21.8018 11.3423 21.5233 11.5878 21.3616C11.6703 21.3072 11.7592 21.2715 11.8485 21.2539C11.8609 21.2669 11.8735 21.2797 11.8865 21.2922C11.829 21.3118 11.7726 21.3394 11.7189 21.3747C11.4139 21.5757 11.3107 21.9572 11.4883 22.2267C11.57 22.3506 11.6973 22.429 11.8403 22.4582C11.8402 22.4582 11.84 22.4582 11.8398 22.4582C11.8311 22.4582 11.8226 22.458 11.814 22.4577C11.8152 22.4579 11.8164 22.4581 11.8176 22.4583Z" fill="#AD6F37"/>
<path d="M11.8371 22.4586C11.8308 22.4586 11.8245 22.4585 11.8182 22.4584C11.818 22.4583 11.8178 22.4583 11.8176 22.4583C11.8243 22.4585 11.831 22.4585 11.8377 22.4585C11.8392 22.4585 11.8407 22.4585 11.8422 22.4585C11.8423 22.4585 11.8423 22.4586 11.8424 22.4586C11.8407 22.4586 11.8389 22.4586 11.8371 22.4586Z" fill="#B0A189"/>
<path d="M11.8376 22.4586C11.8309 22.4586 11.8242 22.4585 11.8176 22.4583C11.8164 22.4581 11.8152 22.4579 11.814 22.4577C11.8225 22.458 11.8311 22.4582 11.8397 22.4582C11.84 22.4582 11.8401 22.4582 11.8403 22.4582C11.8409 22.4583 11.8415 22.4585 11.8421 22.4586C11.8406 22.4586 11.8392 22.4586 11.8376 22.4586Z" fill="#B0948D"/>
<path d="M11.362 21.0189C10.8364 21.3653 10.6544 22.0197 10.9564 22.4779C11.2583 22.9359 11.9315 23.0268 12.4571 22.6805C12.714 22.5112 12.8969 22.2645 12.9724 21.9857C13.0463 21.7125 13.0073 21.441 12.8626 21.2215C12.5607 20.7634 11.8875 20.6724 11.362 21.0189ZM11.7737 23.1304C11.3648 23.1304 10.9802 22.9502 10.756 22.61C10.3812 22.0413 10.5938 21.2377 11.2298 20.8185C11.866 20.3993 12.6882 20.5208 13.063 21.0893C13.246 21.3672 13.2962 21.7077 13.204 22.0485C13.1133 22.3837 12.8949 22.6793 12.5892 22.8809C12.3337 23.0492 12.0482 23.1304 11.7737 23.1304Z" fill="#000072"/>
<path d="M14.0152 20.3388C14.0152 21.0053 13.4749 21.5456 12.8084 21.5456C12.1419 21.5456 11.6016 21.0053 11.6016 20.3388C11.6016 19.6723 12.1419 19.132 12.8084 19.132C13.4749 19.132 14.0152 19.6723 14.0152 20.3388Z" fill="#F9C710"/>
<path d="M13.8462 20.6457C13.8404 20.6438 13.8346 20.6419 13.8288 20.64C13.83 20.6231 13.831 20.6061 13.8316 20.589L13.8462 20.6457ZM13.6617 19.9312C13.6487 19.9095 13.635 19.8882 13.6207 19.8674C13.5804 19.8951 13.5385 19.9071 13.4983 19.9071C13.3344 19.9071 13.1972 19.7079 13.3063 19.553C13.1125 19.4202 12.8782 19.3421 12.6254 19.3421C12.501 19.3421 12.3812 19.3608 12.2687 19.3957C12.4277 19.3043 12.612 19.252 12.8083 19.252C13.1027 19.252 13.3701 19.3697 13.566 19.5604L13.6617 19.9312Z" fill="#FCE693"/>
<path d="M13.4411 20.3388C13.4411 20.6882 13.1578 20.9715 12.8084 20.9715C12.4589 20.9715 12.1757 20.6882 12.1757 20.3388C12.1757 19.9893 12.4589 19.7061 12.8084 19.7061C13.1578 19.7061 13.4411 19.9893 13.4411 20.3388Z" fill="#F89F1D"/>
<path d="M12.3009 20.9238C12.1941 20.9238 12.1085 20.7844 12.1943 20.6906C12.148 20.603 12.1219 20.5033 12.1219 20.3972C12.1219 20.2203 12.195 20.0596 12.3126 19.9454C12.3075 19.9518 12.3027 19.9582 12.2979 19.9646C12.2979 19.9646 12.298 19.9646 12.2981 19.9645C12.2631 20.0121 12.2347 20.0648 12.2139 20.1213C12.189 20.1891 12.1753 20.2625 12.1753 20.3388C12.1753 20.5544 12.2832 20.7449 12.4482 20.859C12.4529 20.8624 12.4577 20.8656 12.4625 20.8687C12.4411 20.8858 12.4203 20.9032 12.4003 20.9212C12.3909 20.9149 12.3818 20.9083 12.3728 20.9015C12.3489 20.917 12.3244 20.9238 12.3009 20.9238Z" fill="#FCE693"/>
<path d="M12.214 20.1213C12.2347 20.0648 12.2632 20.0121 12.2981 19.9645C12.2986 19.9641 12.2991 19.9637 12.2996 19.9632C12.264 20.011 12.235 20.0642 12.214 20.1213Z" fill="#FCD499"/>
<path d="M13.3986 20.5674C13.3986 20.5674 13.3985 20.5674 13.3985 20.5674C13.426 20.4965 13.441 20.4195 13.441 20.3388C13.441 20.057 13.2568 19.8183 13.0022 19.7363C13.2569 19.8182 13.4413 20.057 13.4413 20.3388C13.4413 20.4195 13.4261 20.4966 13.3986 20.5674ZM12.3126 19.9455C12.3673 19.8765 12.4363 19.8192 12.515 19.778C12.4365 19.8192 12.3678 19.8763 12.313 19.9451C12.3129 19.9452 12.3127 19.9454 12.3126 19.9455Z" fill="#AE8B2E"/>
<path d="M13.3984 20.5674C13.3841 20.567 13.3698 20.5668 13.3555 20.5668C13.3496 20.5668 13.3436 20.5668 13.3376 20.5669C13.3464 20.5248 13.351 20.4812 13.351 20.4367C13.351 20.0873 13.0677 19.804 12.7184 19.804C12.5579 19.804 12.4112 19.8644 12.2996 19.9632C12.3048 19.9562 12.3102 19.9493 12.3157 19.9425C12.3148 19.9433 12.3139 19.9442 12.313 19.9451C12.3678 19.8763 12.4365 19.8192 12.515 19.778C12.6028 19.7322 12.7027 19.7062 12.8086 19.7062C12.8761 19.7062 12.9412 19.7167 13.0022 19.7363C13.2568 19.8183 13.441 20.057 13.441 20.3388C13.441 20.4195 13.426 20.4965 13.3984 20.5674Z" fill="#AD6F37"/>
<path d="M12.298 19.9647C12.3028 19.9582 12.3077 19.9518 12.3127 19.9455C12.3128 19.9454 12.3129 19.9452 12.3131 19.9451C12.3081 19.9515 12.3031 19.9579 12.2982 19.9645C12.2981 19.9646 12.2981 19.9647 12.298 19.9647Z" fill="#B0A189"/>
<path d="M12.2982 19.9645C12.3031 19.9579 12.3081 19.9514 12.3131 19.945C12.314 19.9442 12.3149 19.9433 12.3158 19.9425C12.3103 19.9493 12.3049 19.9562 12.2997 19.9632C12.2992 19.9637 12.2987 19.9641 12.2982 19.9645Z" fill="#B0948D"/>
<path d="M12.8084 19.252C12.2091 19.252 11.7216 19.7395 11.7216 20.3388C11.7216 20.9381 12.2091 21.4256 12.8084 21.4256C13.4076 21.4256 13.8952 20.9381 13.8952 20.3388C13.8952 19.7395 13.4076 19.252 12.8084 19.252ZM12.8084 21.6656C12.0768 21.6656 11.4816 21.0704 11.4816 20.3388C11.4816 19.6072 12.0768 19.012 12.8084 19.012C13.54 19.012 14.1352 19.6072 14.1352 20.3388C14.1352 21.0704 13.54 21.6656 12.8084 21.6656Z" fill="#000072"/>
<path d="M16.0664 20.4899L14.0945 21.1918L13.5714 19.1652L14.2984 18.9463L15.8403 19.7648L16.0664 20.4899Z" fill="#FF3E84"/>
<path d="M14.053 20.6152L13.697 19.236L14.1865 19.0885L14.3215 19.1602V19.3819L14.1773 19.48L14.053 20.6152Z" fill="#D23374"/>
<path d="M14.3216 19.1602L14.1865 19.0885L14.2876 19.0581L14.3216 19.0761V19.1602Z" fill="#D27DA3"/>
<path d="M13.6971 19.236L14.1668 21.0557L15.9373 20.4254L15.7539 19.8366L14.2876 19.0581L13.6971 19.236ZM14.0224 21.3278L13.4458 19.0945L14.3095 18.8343L15.927 19.6931L16.1952 20.5542L14.0224 21.3278Z" fill="#000072"/>
<path d="M16.0175 20.5816L13.5226 19.2571L13.6201 19.0735L16.115 20.398L16.0175 20.5816Z" fill="#000072"/>
<path d="M14.1618 21.2711L14.0272 21.1126L15.2584 20.0679L15.2597 19.5115L15.4675 19.512L15.4661 20.1643L14.1618 21.2711Z" fill="#000072"/>
<path d="M14.1979 21.2031L13.9912 21.1806L14.1773 19.48L14.7167 19.1134L14.8336 19.2853L14.3735 19.598L14.1979 21.2031Z" fill="#000072"/>
<path d="M15.1501 20.8927L15.8175 22.5213C15.8563 22.6161 15.8109 22.7244 15.7161 22.7633L15.3869 22.8982C15.2921 22.9371 15.1838 22.8917 15.1449 22.7969L14.4777 21.1683C14.4388 21.0735 14.4841 20.9652 14.5789 20.9264L14.9081 20.7915C15.0029 20.7527 15.1113 20.7979 15.1501 20.8927Z" fill="#F9C710"/>
<path d="M14.9786 20.7975C14.9573 20.7975 14.936 20.8017 14.9158 20.81L14.5866 20.9449C14.5022 20.9794 14.4616 21.0763 14.4962 21.1608L15.1636 22.7893C15.1981 22.8737 15.2949 22.9143 15.3794 22.8797L15.7087 22.7447C15.7931 22.7102 15.8336 22.6133 15.799 22.5289L15.1317 20.9003C15.1149 20.8594 15.0832 20.8275 15.0424 20.8105C15.0219 20.8018 15.0003 20.7975 14.9786 20.7975ZM15.317 22.932C15.236 22.932 15.1591 22.8839 15.1265 22.8044L14.4592 21.1759C14.4384 21.1251 14.4386 21.0693 14.4598 21.0186C14.481 20.968 14.5206 20.9287 14.5714 20.9078L14.9007 20.773C14.9514 20.7522 15.0072 20.7523 15.0579 20.7735C15.1085 20.7947 15.1479 20.8343 15.1688 20.8852L15.836 22.5137C15.879 22.6186 15.8287 22.7388 15.7238 22.7818L15.3946 22.9167C15.3692 22.9271 15.3428 22.932 15.317 22.932Z" fill="#000072"/>
<path d="M15.6444 22.1581L15.8585 22.6807L15.2138 22.9448L14.9996 22.4223L15.6444 22.1581Z" fill="#F89F1D"/>
<path d="M15.0257 22.4333L15.2246 22.9187L15.8324 22.6697L15.6334 22.1842L15.0257 22.4333ZM15.2028 22.9709L14.9735 22.4114L15.6553 22.132L15.8845 22.6916L15.2028 22.9709Z" fill="#000072"/>
<path d="M14.9785 20.8976C14.9702 20.8976 14.9618 20.8992 14.9537 20.9025L14.6245 21.0374C14.591 21.0511 14.575 21.0894 14.5887 21.1229L15.256 22.7513C15.2697 22.7848 15.3081 22.8008 15.3415 22.7871L15.6706 22.6522C15.7041 22.6385 15.7202 22.6001 15.7065 22.5667L15.0391 20.9382C15.0288 20.9129 15.0042 20.8976 14.9785 20.8976ZM15.317 23.032C15.1967 23.032 15.0824 22.9605 15.0339 22.8424L14.3665 21.2138C14.3357 21.1383 14.336 21.0553 14.3675 20.98C14.399 20.9047 14.4579 20.8462 14.5335 20.8153L14.8626 20.6804C15.0185 20.6165 15.1973 20.6913 15.2612 20.8473L15.9285 22.4757C15.9924 22.6316 15.9175 22.8104 15.7617 22.8742L15.4325 23.0092C15.3947 23.0247 15.3556 23.032 15.317 23.032Z" fill="#000072"/>
<path d="M13.5064 20.6947C14.1993 20.7672 14.7091 21.3225 14.645 21.9349C14.581 22.5473 13.9673 22.9851 13.2743 22.9126C12.5814 22.8401 12.0716 22.2849 12.1357 21.6724C12.1998 21.0599 12.8134 20.6222 13.5064 20.6947Z" fill="#F9C710"/>
<path d="M13.3556 20.7068C13.0783 20.7068 12.8133 20.7886 12.5968 20.943C12.3426 21.1242 12.1859 21.3841 12.1555 21.6745C12.0927 22.275 12.5956 22.8215 13.2764 22.8927C13.6065 22.9272 13.9289 22.8462 14.1839 22.6643C14.4381 22.483 14.5947 22.2233 14.6251 21.9329C14.6555 21.6424 14.556 21.3558 14.3449 21.1258C14.1331 20.8952 13.8345 20.7491 13.5043 20.7146C13.4545 20.7094 13.4048 20.7068 13.3556 20.7068ZM13.4251 22.9406C13.3745 22.9406 13.3235 22.9378 13.2723 22.9325C12.5694 22.859 12.0506 22.2927 12.1157 21.6703C12.1473 21.3683 12.31 21.0985 12.5736 20.9104C12.8365 20.7229 13.1685 20.6393 13.5085 20.6748C13.8485 20.7104 14.1559 20.861 14.3743 21.0988C14.5933 21.3374 14.6965 21.635 14.6649 21.937C14.6333 22.239 14.4707 22.5089 14.2071 22.697C13.9838 22.8562 13.7107 22.9406 13.4251 22.9406Z" fill="#000072"/>
<path d="M12.3592 22.2026C12.2751 22.0451 12.2359 21.8677 12.255 21.6849C12.2824 21.4234 12.4244 21.1888 12.6548 21.0244C12.8543 20.8822 13.099 20.8068 13.3556 20.8068C13.4013 20.8068 13.4475 20.8092 13.4939 20.8141C13.6279 20.8281 13.7561 20.8619 13.8744 20.9132C13.82 20.9009 13.7643 20.8916 13.7072 20.8857C13.657 20.8804 13.6072 20.8779 13.558 20.8779C13.3495 20.8779 13.1516 20.9238 12.9783 21.0059C13.0742 21.1598 12.9268 21.3109 12.7681 21.3109C12.7178 21.311 12.6664 21.2958 12.6212 21.2607C12.4645 21.4242 12.3608 21.6311 12.3365 21.8634C12.3244 21.9796 12.3328 22.0936 12.3592 22.2026Z" fill="#FCE693"/>
<path d="M13.4512 21.2222C13.8145 21.2602 14.0818 21.5513 14.0482 21.8725C14.0146 22.1936 13.6928 22.4231 13.3295 22.3851C12.9663 22.347 12.699 22.0559 12.7326 21.7349C12.7662 21.4137 13.0879 21.1842 13.4512 21.2222Z" fill="#F89F1D"/>
<path d="M13.8007 22.4487C13.7641 22.4487 13.7271 22.436 13.6972 22.4061C13.6244 22.4312 13.5456 22.4448 13.4636 22.4448C13.4377 22.4448 13.4116 22.4435 13.3851 22.4407C13.2012 22.4215 13.0412 22.3369 12.9337 22.2164C12.9398 22.2217 12.946 22.2269 12.9523 22.232C12.9523 22.2319 12.9522 22.2319 12.9521 22.2318C12.9984 22.2692 13.0506 22.3012 13.1075 22.3263C13.1756 22.3566 13.2504 22.377 13.3295 22.3853C13.3559 22.3881 13.3821 22.3895 13.408 22.3895C13.6111 22.3895 13.7948 22.3065 13.9133 22.1732C13.9875 22.0899 14.0361 21.987 14.0481 21.8725C14.0645 21.716 14.0094 21.5667 13.9066 21.4503C14.0448 21.5722 14.1228 21.7451 14.1037 21.9276C14.0899 22.0595 14.0276 22.1763 13.9336 22.265C13.9889 22.3603 13.8969 22.4487 13.8007 22.4487Z" fill="#FCE693"/>
<path d="M13.1075 22.3263C13.0507 22.3012 12.9985 22.2692 12.9522 22.2317C12.9518 22.2313 12.9514 22.2308 12.951 22.2303C12.9974 22.2683 13.0501 22.3008 13.1075 22.3263ZM13.9134 22.1732C13.9874 22.0898 14.0361 21.9869 14.0481 21.8722C14.0646 21.7146 14.0082 21.5641 13.9036 21.4476C13.9046 21.4485 13.9056 21.4493 13.9067 21.4502C14.0095 21.5666 14.0646 21.716 14.0482 21.8725C14.0362 21.987 13.9875 22.0899 13.9134 22.1732Z" fill="#FCD499"/>
<path d="M12.9338 22.2164C12.8674 22.1587 12.8146 22.0892 12.7793 22.0125C12.8145 22.089 12.8672 22.1583 12.9334 22.216C12.9335 22.2162 12.9337 22.2163 12.9338 22.2164ZM12.7867 21.5521C12.7868 21.5516 12.7871 21.5513 12.7872 21.5508C12.7871 21.5512 12.7868 21.5517 12.7867 21.5521ZM12.7873 21.5508C12.8892 21.3511 13.1155 21.218 13.3727 21.218C13.3986 21.218 13.4247 21.2193 13.4512 21.2221C13.5788 21.2355 13.6947 21.28 13.7895 21.3463C13.6945 21.2802 13.5787 21.2356 13.4512 21.2223C13.4247 21.2196 13.3986 21.2182 13.3727 21.2182C13.1155 21.2182 12.8893 21.3512 12.7873 21.5508Z" fill="#AE8B2E"/>
<path d="M12.9511 22.2303C12.9442 22.2247 12.9376 22.2191 12.931 22.2132C12.9318 22.2142 12.9326 22.2151 12.9334 22.216C12.8673 22.1583 12.8145 22.089 12.7793 22.0125C12.74 21.9267 12.7225 21.832 12.7327 21.7346C12.7396 21.6695 12.7582 21.6082 12.7867 21.5521C12.7869 21.5517 12.7871 21.5512 12.7873 21.5508C12.7873 21.5508 12.7873 21.5507 12.7873 21.5507C12.8893 21.3511 13.1155 21.2182 13.3727 21.2182C13.3986 21.2182 13.4248 21.2195 13.4513 21.2223C13.5788 21.2356 13.6945 21.2802 13.7895 21.3463C13.8405 21.3819 13.8853 21.4237 13.9226 21.4703C13.8212 21.3871 13.6902 21.3309 13.5443 21.3156C13.5179 21.3128 13.4917 21.3115 13.4657 21.3115C13.1358 21.3115 12.8569 21.5305 12.8257 21.8281C12.8103 21.9757 12.859 22.1171 12.9511 22.2303Z" fill="#AD6F37"/>
<path d="M12.9523 22.232C12.9461 22.2269 12.9398 22.2217 12.9337 22.2164C12.9337 22.2162 12.9335 22.2162 12.9333 22.216C12.9395 22.2214 12.9458 22.2266 12.9521 22.2318C12.9522 22.2318 12.9523 22.2319 12.9523 22.232Z" fill="#B0A189"/>
<path d="M12.9521 22.2318C12.9458 22.2266 12.9395 22.2214 12.9333 22.216C12.9325 22.215 12.9317 22.2142 12.9309 22.2132C12.9375 22.219 12.9441 22.2247 12.951 22.2303C12.9514 22.2308 12.9517 22.2313 12.9521 22.2318Z" fill="#B0948D"/>
<path d="M13.3556 20.8068C13.099 20.8068 12.8543 20.8822 12.6549 21.0244C12.4244 21.1888 12.2824 21.4234 12.255 21.6849C12.1979 22.2306 12.6608 22.7278 13.2869 22.7933C13.5927 22.8253 13.8907 22.7507 14.1258 22.583C14.3563 22.4186 14.4983 22.184 14.5257 21.9224C14.553 21.6609 14.4626 21.4021 14.2712 21.1935C14.0759 20.9808 13.7999 20.8461 13.4939 20.8141C13.4475 20.8092 13.4013 20.8068 13.3556 20.8068ZM13.4251 23.0406C13.371 23.0406 13.3165 23.0377 13.2618 23.032C12.5042 22.9527 11.9455 22.3372 12.0163 21.6599C12.0509 21.3291 12.2282 21.0339 12.5155 20.8291C12.7983 20.6274 13.1549 20.5372 13.5189 20.5754C13.8831 20.6135 14.2131 20.7754 14.448 21.0311C14.6866 21.2911 14.799 21.6165 14.7643 21.9475C14.7297 22.2783 14.5525 22.5735 14.2652 22.7783C14.0249 22.9498 13.7314 23.0406 13.4251 23.0406Z" fill="#000072"/>
<path d="M22.3415 12.0855V22.2027C22.3415 22.5735 22.1007 22.9011 21.7467 23.0115L16.6819 24.5923C16.6335 24.6075 16.5847 24.6143 16.5375 24.6143C16.2831 24.6135 16.0615 24.4075 16.0615 24.1363V10.1195C16.0615 9.84826 16.2827 9.64266 16.5363 9.64146H16.5427C16.5895 9.64186 16.6367 9.64906 16.6843 9.66426L21.7511 11.2779C22.1027 11.3899 22.3415 11.7163 22.3415 12.0855Z" fill="#10CDF9"/>
<path d="M16.5425 9.66142H16.5363C16.2856 9.66262 16.0815 9.86806 16.0815 10.1194V24.1362C16.0815 24.3879 16.2861 24.5934 16.5376 24.5942C16.5848 24.5942 16.6313 24.5871 16.6759 24.5731L21.7407 22.9923C22.0881 22.884 22.3215 22.5666 22.3215 22.2026V12.0854C22.3215 11.7236 22.0898 11.4067 21.7451 11.2969L16.6782 9.68326C16.6341 9.66918 16.5884 9.66182 16.5425 9.66142ZM16.5375 24.6342C16.264 24.6333 16.0415 24.4099 16.0415 24.1362V10.1194C16.0415 9.84614 16.2634 9.6227 16.5362 9.62142H16.5427C16.5927 9.62182 16.6423 9.62982 16.6904 9.64518L21.7572 11.2588C22.1187 11.3739 22.3615 11.7061 22.3615 12.0854V22.2026C22.3615 22.5842 22.1169 22.9169 21.7526 23.0305L16.6879 24.6113C16.6395 24.6265 16.5889 24.6342 16.5375 24.6342Z" fill="#000072"/>
<path d="M16.538 24.4742C16.3525 24.4737 16.2015 24.322 16.2015 24.1362V24.0102C16.289 24.0973 16.4091 24.15 16.5376 24.1504C16.5848 24.1504 16.6336 24.1436 16.682 24.1284L21.7468 22.548C21.9382 22.4881 22.0965 22.3648 22.2015 22.2056C22.2003 22.5156 22.0011 22.7854 21.7051 22.8778L16.64 24.4587C16.6071 24.469 16.5727 24.4742 16.538 24.4742Z" fill="#0B8FD0"/>
<path d="M22.1939 11.9807C22.0897 11.8283 21.936 11.7101 21.7512 11.6512L16.6844 10.0376C16.6368 10.0224 16.5896 10.0152 16.5428 10.0148H16.5364C16.4085 10.0155 16.2887 10.0681 16.2015 10.1549V10.1195C16.2015 9.93393 16.3521 9.78233 16.5363 9.78145H16.5416C16.5758 9.78169 16.6086 9.78705 16.6419 9.79761L21.7087 11.4112C21.9696 11.4943 22.1548 11.7163 22.1939 11.9807Z" fill="#93E8FC"/>
<path d="M16.5376 24.6144L15.8652 24.606L15.68 24.6036C15.4692 24.5588 15.3016 24.3724 15.3016 24.1364V10.1196C15.3016 10.1152 15.3016 10.1112 15.302 10.1068C15.308 9.86598 15.4896 9.67958 15.71 9.64678L15.8412 9.64598L16.5364 9.64158C16.2868 9.64278 16.0688 9.84198 16.062 10.1068C16.0616 10.1112 16.0616 10.1152 16.0616 10.1196V24.1364C16.0616 24.4076 16.2832 24.6136 16.5376 24.6144Z" fill="#10CDF9"/>
<path d="M16.3424 9.6628L15.7102 9.6668C15.4919 9.69944 15.3275 9.8848 15.322 10.1073C15.3216 10.1124 15.3216 10.1158 15.3216 10.1196V24.1364C15.3216 24.3511 15.4741 24.5394 15.6842 24.584L16.3383 24.5919C16.1638 24.5144 16.0416 24.3392 16.0416 24.1364V10.1196C16.0416 10.1146 16.0417 10.11 16.0421 10.105C16.0471 9.90856 16.1705 9.73816 16.3424 9.6628ZM16.5375 24.6344C16.5344 24.6344 16.5313 24.6343 16.5281 24.6342L15.6798 24.6236C15.4475 24.5746 15.2816 24.3699 15.2816 24.1364V10.1196C15.2816 10.1146 15.2817 10.11 15.2821 10.105C15.288 9.86432 15.4668 9.6628 15.7071 9.62704L16.5351 9.6216H16.536H16.5363H16.5363L16.5365 9.6616C16.2922 9.6628 16.0883 9.86272 16.082 10.1073C16.0816 10.1124 16.0816 10.1158 16.0816 10.1196V24.1364C16.0816 24.3853 16.2815 24.5889 16.529 24.5942L16.5379 24.5944L16.5375 24.6344Z" fill="#000072"/>
<path d="M14.6538 23.2902H15.3016V11.1458H14.6538C14.4813 11.1458 14.3416 11.2856 14.3416 11.458V22.978C14.3416 23.1505 14.4813 23.2902 14.6538 23.2902Z" fill="#10CDF9"/>
<path d="M14.6538 11.1658C14.4927 11.1658 14.3615 11.2969 14.3615 11.458V22.978C14.3615 23.1392 14.4927 23.2702 14.6538 23.2702H15.2815V11.1658H14.6538ZM15.3215 23.3102H14.6538C14.4706 23.3102 14.3215 23.1612 14.3215 22.978V11.458C14.3215 11.2749 14.4706 11.1258 14.6538 11.1258H15.3215V23.3102Z" fill="#000072"/>
<path d="M15.2816 23.2703H14.6538C14.4927 23.2703 14.3616 23.1392 14.3616 22.978V22.2137C14.4061 22.3317 14.52 22.4156 14.6537 22.4156H15.2816V23.2703Z" fill="#0B8FD0"/>
<path d="M15.3016 23.2904H14.6536C14.4812 23.2904 14.3416 23.1504 14.3416 22.978V22.1036C14.3416 22.1423 14.3486 22.1794 14.3615 22.2137V22.978C14.3615 23.1392 14.4926 23.2702 14.6537 23.2702H15.2815V22.4156H15.3016V23.2904Z" fill="#000072"/>
<path d="M14.3616 11.9871V11.458C14.3616 11.2969 14.4927 11.1659 14.6538 11.1659H15.2816V11.7848H14.6537C14.52 11.7848 14.4061 11.869 14.3616 11.9871Z" fill="#93E8FC"/>
<path d="M14.3416 12.0972V11.458C14.3416 11.2856 14.4812 11.146 14.6536 11.146H15.3016V11.7848H15.2815V11.1658H14.6537C14.4926 11.1658 14.3615 11.2968 14.3615 11.458V11.987C14.3486 12.0213 14.3416 12.0584 14.3416 12.0972Z" fill="#8C8CBF"/>
<path d="M16.5416 9.78141H16.5363C16.3521 9.78229 16.2015 9.93389 16.2015 10.1194V24.1362C16.2015 24.322 16.3525 24.4737 16.538 24.4742C16.5726 24.4742 16.6071 24.469 16.64 24.4587L21.705 22.8777C22.002 22.7852 22.2015 22.5138 22.2015 22.2026V12.0854C22.2015 11.7761 22.0034 11.5051 21.7086 11.4112L16.6418 9.79757C16.6085 9.78701 16.5757 9.78165 16.5416 9.78141ZM16.5375 24.7542C16.1977 24.7531 15.9215 24.4759 15.9215 24.1362V10.1194C15.9215 9.78021 16.197 9.50301 16.5357 9.50141H16.5427C16.6058 9.50197 16.6673 9.51181 16.7269 9.53085L21.7937 11.1444C22.2051 11.2755 22.4815 11.6537 22.4815 12.0854V22.2026C22.4815 22.637 22.2029 23.0158 21.7884 23.1451L16.7237 24.7258C16.6638 24.7446 16.6011 24.7542 16.5375 24.7542Z" fill="#000072"/>
<path d="M21.6483 12.8328V21.4492C21.6483 21.7507 21.4717 22.0171 21.2123 22.1069L17.5001 23.2723C17.4647 23.2847 17.4289 23.2902 17.3943 23.2902C17.2079 23.2896 17.0454 23.1221 17.0454 22.9015V11.3541C17.0454 11.1336 17.2076 10.9664 17.3934 10.9654H17.3981C17.4325 10.9657 17.467 10.9716 17.5019 10.984L21.2155 12.1761C21.4733 12.2672 21.6483 12.5325 21.6483 12.8328Z" fill="#10CDF9"/>
<path d="M17.3933 10.9854C17.2125 10.9864 17.0654 11.1518 17.0654 11.3541V22.9015C17.0654 23.1042 17.2129 23.2696 17.3943 23.2702C17.4281 23.2702 17.4615 23.2646 17.4935 23.2534L21.2062 22.0878C21.4584 22.0006 21.6281 21.7438 21.6281 21.4492V12.8328C21.6281 12.5399 21.4596 12.2836 21.2087 12.195L17.4957 11.003C17.4634 10.9916 17.4307 10.9858 17.3978 10.9854H17.3933ZM17.3942 23.3102C17.1908 23.3095 17.0254 23.1262 17.0254 22.9015V11.3541C17.0254 11.1298 17.1904 10.9465 17.3932 10.9454H17.398C17.4355 10.9458 17.4726 10.9524 17.5085 10.9651L21.2215 12.157C21.4889 12.2515 21.6681 12.523 21.6681 12.8328V21.4492C21.6681 21.7609 21.4875 22.0328 21.2187 22.1258L17.506 23.2914C17.4704 23.3038 17.4326 23.3102 17.3942 23.3102Z" fill="#000072"/>
<path d="M17.3947 23.1702C17.2682 23.1698 17.1654 23.0493 17.1654 22.9015V22.6498C17.2276 22.7098 17.3085 22.7456 17.3944 22.746C17.4288 22.746 17.4648 22.7404 17.5 22.728L21.2124 21.5628C21.3424 21.5177 21.4516 21.4281 21.5281 21.3119V21.4492C21.5281 21.7013 21.3854 21.92 21.1763 21.9924L17.4606 23.159C17.4392 23.1665 17.4169 23.1702 17.3947 23.1702Z" fill="#0B8FD0"/>
<path d="M21.5225 12.7468C21.4469 12.6358 21.3411 12.55 21.2156 12.5056L17.502 11.3136C17.4668 11.3012 17.4324 11.2952 17.398 11.2948H17.3932C17.3078 11.2954 17.2274 11.3311 17.1654 11.3908V11.3541C17.1654 11.2067 17.2679 11.0861 17.3933 11.0855H17.3968C17.419 11.0857 17.4402 11.0895 17.4652 11.0983L21.1755 12.2892C21.3619 12.3551 21.4942 12.5334 21.5225 12.7468Z" fill="#93E8FC"/>
<path d="M17.3969 11.0854H17.3933C17.2679 11.0861 17.1654 11.2066 17.1654 11.3541V22.9015C17.1654 23.0493 17.2682 23.1698 17.3947 23.1702C17.4169 23.1702 17.4392 23.1665 17.4606 23.159L21.1763 21.9924C21.3854 21.92 21.5281 21.7013 21.5281 21.4492V12.8328C21.5281 12.5822 21.3865 12.3637 21.1755 12.2892L17.4652 11.0982C17.4402 11.0894 17.419 11.0857 17.3969 11.0854ZM17.3942 23.4102C17.1356 23.4093 16.9254 23.1811 16.9254 22.9015V11.3541C16.9254 11.0749 17.135 10.8468 17.3927 10.8454H17.3981C17.4475 10.8459 17.4956 10.8545 17.5419 10.8708L21.2521 12.0618C21.5621 12.1713 21.7681 12.4807 21.7681 12.8328V21.4492C21.7681 21.8035 21.5605 22.1133 21.2514 22.2203L17.536 23.3869C17.4927 23.402 17.4438 23.4102 17.3942 23.4102Z" fill="#000072"/>
<path d="M15.7778 24.7539C15.7349 24.7539 15.6923 24.7493 15.6503 24.7402L15.7095 24.4665C15.7518 24.4757 15.7955 24.4763 15.8398 24.4681L15.8903 24.7435C15.8527 24.7505 15.8151 24.7539 15.7778 24.7539Z" fill="#000072"/>
<path d="M20.7704 17.0278C20.7704 18.0165 20.3025 18.8181 19.7253 18.8181C19.1481 18.8181 18.6803 18.0165 18.6803 17.0278C18.6803 16.0391 19.1481 15.2376 19.7253 15.2376C20.3025 15.2376 20.7704 16.0391 20.7704 17.0278Z" fill="white"/>
<path d="M19.7253 18.6981C19.2437 18.6981 18.8338 17.9925 18.8022 17.1345C18.9407 17.5453 19.169 17.8465 19.439 17.9724C19.5469 18.0798 19.6755 18.1414 19.8148 18.1414H20.408C20.2373 18.4811 19.9923 18.6981 19.7253 18.6981Z" fill="#BDC0D2"/>
<path d="M19.439 17.9724C19.1691 17.8465 18.9408 17.5454 18.8023 17.1345C18.8009 17.0992 18.8003 17.0636 18.8003 17.0279C18.8003 17.0147 18.8004 17.0016 18.8005 16.9885C18.9141 17.396 19.1158 17.7143 19.3575 17.8774C19.3831 17.9121 19.4103 17.9439 19.439 17.9724Z" fill="#B2B2D4"/>
<path d="M20.408 15.9142H20.312C20.1296 15.6482 19.8931 15.4876 19.6348 15.4876C19.4905 15.4876 19.3529 15.5378 19.2277 15.6287C19.3724 15.4578 19.5437 15.3576 19.7253 15.3576C19.9923 15.3576 20.2373 15.5746 20.408 15.9142Z" fill="white"/>
<path d="M15.9217 10.1068H15.322C15.3278 9.88457 15.4921 9.69945 15.7102 9.66681L16.1221 9.66425C16.0019 9.77473 15.9252 9.93209 15.9217 10.1068Z" fill="#93E8FC"/>
<path d="M15.322 10.1068H15.302C15.308 9.86601 15.4896 9.67961 15.71 9.64681L15.8412 9.64601L16.145 9.64409C16.1372 9.65065 16.1296 9.65729 16.1221 9.66425L15.7102 9.66681C15.4921 9.69945 15.3278 9.88457 15.322 10.1068Z" fill="#8C8CBF"/>
<path d="M16.062 10.1068H15.9216C15.9252 9.93209 16.0018 9.77473 16.122 9.66425C16.1296 9.65729 16.1372 9.65065 16.145 9.64409L16.5364 9.64161C16.2868 9.64281 16.0688 9.84201 16.062 10.1068Z" fill="#8C8CBF"/>
<path d="M19.7252 15.3576C19.2238 15.3576 18.8002 16.1225 18.8002 17.0279C18.8002 17.9332 19.2238 18.6981 19.7252 18.6981C20.2266 18.6981 20.6503 17.9332 20.6503 17.0279C20.6503 16.1225 20.2266 15.3576 19.7252 15.3576ZM19.7252 18.9381C19.0719 18.9381 18.5602 18.0991 18.5602 17.0279C18.5602 15.9567 19.0719 15.1176 19.7252 15.1176C20.3785 15.1176 20.8903 15.9567 20.8903 17.0279C20.8903 18.0991 20.3785 18.9381 19.7252 18.9381Z" fill="#000072"/>
<path d="M15.7309 9.78503L15.6891 9.50823C15.747 9.49943 15.8048 9.49919 15.8612 9.50727L15.8212 9.78439C15.7921 9.78015 15.7616 9.78047 15.7309 9.78503Z" fill="#000072"/>
<path d="M15.6967 24.4636L16.0182 24.4677C15.957 24.3718 15.9215 24.2581 15.9215 24.1362V10.1194C15.9215 9.99629 15.9578 9.88125 16.0203 9.78469L15.7215 9.78653C15.5587 9.81493 15.4415 9.95349 15.4415 10.1194V24.1362C15.4415 24.2929 15.5458 24.4258 15.6967 24.4636ZM16.537 24.7542C16.5335 24.7542 16.5299 24.7541 16.5263 24.7541L15.6643 24.7432L15.6509 24.7404C15.3673 24.6801 15.1615 24.4261 15.1615 24.1362V10.1194C15.1615 9.81541 15.3885 9.55261 15.6894 9.50813L15.709 9.50661L16.5354 9.50141H16.5357L16.5373 9.78141H16.5353C16.3511 9.78317 16.2015 9.93445 16.2015 10.1194V24.1362C16.2015 24.3197 16.3488 24.4699 16.5311 24.4741L16.5393 24.4742L16.537 24.7542Z" fill="#000072"/>
<path d="M21.26 17.0278C21.26 17.5766 21.0004 18.0214 20.68 18.0214C20.508 18.0214 20.3532 17.893 20.2476 17.6894C20.1556 17.5138 20.1 17.2818 20.1 17.0278C20.1 16.7738 20.1556 16.5418 20.2476 16.3662C20.3532 16.1626 20.508 16.0342 20.68 16.0342C21.0004 16.0342 21.26 16.479 21.26 17.0278Z" fill="#F9C710"/>
<path d="M20.68 16.0542C20.5224 16.0542 20.3712 16.1713 20.2653 16.3754C20.1716 16.5543 20.12 16.786 20.12 17.0278C20.12 17.2696 20.1716 17.5013 20.2653 17.6802C20.3712 17.8843 20.5224 18.0014 20.68 18.0014C20.9888 18.0014 21.24 17.5646 21.24 17.0278C21.24 16.491 20.9888 16.0542 20.68 16.0542ZM20.68 18.0414C20.5069 18.0414 20.3428 17.9165 20.2298 17.6986C20.1332 17.5142 20.08 17.2759 20.08 17.0278C20.08 16.7797 20.1332 16.5414 20.2298 16.357C20.3428 16.1392 20.5069 16.0142 20.68 16.0142C21.0108 16.0142 21.28 16.469 21.28 17.0278C21.28 17.5867 21.0108 18.0414 20.68 18.0414Z" fill="#F9C710"/>
<path d="M21.1341 16.8879C21.0471 16.5275 20.8399 16.274 20.598 16.274C20.5329 16.274 20.4704 16.2924 20.412 16.3263C20.491 16.2158 20.5854 16.1543 20.68 16.1543C20.8817 16.1543 21.0963 16.4435 21.1341 16.8879Z" fill="#FCE693"/>
<path d="M20.6799 18.0216H19.8147C19.5523 18.0216 19.3307 17.7228 19.2591 17.3132C19.2431 17.2228 19.2347 17.1272 19.2347 17.028C19.2347 16.7988 19.2803 16.588 19.3563 16.42C19.4623 16.1852 19.6283 16.0344 19.8147 16.0344H20.6799C20.5079 16.0344 20.3531 16.1628 20.2475 16.3664C20.2383 16.3836 20.2299 16.4016 20.2215 16.42C20.1451 16.588 20.0999 16.7988 20.0999 17.028C20.0999 17.1272 20.1083 17.2228 20.1243 17.3132C20.1487 17.4544 20.1915 17.5824 20.2475 17.6896C20.3531 17.8932 20.5079 18.0216 20.6799 18.0216Z" fill="#F9C710"/>
<path d="M19.8148 16.0544C19.6424 16.0544 19.482 16.1907 19.3747 16.4283C19.2963 16.6016 19.2548 16.809 19.2548 17.028C19.2548 17.1244 19.2629 17.2192 19.2789 17.3097C19.3501 17.7171 19.5705 18.0016 19.8148 18.0016H20.5124C20.4039 17.9486 20.3055 17.8444 20.2299 17.6988C20.1721 17.5882 20.1288 17.456 20.1047 17.3166C20.0884 17.224 20.08 17.1269 20.08 17.028C20.08 16.8023 20.1227 16.5892 20.2035 16.4118C20.212 16.3929 20.2206 16.3746 20.23 16.357C20.3055 16.2115 20.4039 16.1074 20.5124 16.0544H19.8148ZM20.68 18.0416H19.8148C19.5465 18.0416 19.3153 17.7503 19.2396 17.3167C19.2232 17.2239 19.2148 17.1267 19.2148 17.028C19.2148 16.8033 19.2575 16.5903 19.3382 16.4118C19.4522 16.1592 19.626 16.0144 19.8148 16.0144H20.68V16.0544C20.5224 16.0544 20.3713 16.1715 20.2654 16.3756C20.2563 16.3927 20.248 16.4103 20.2399 16.4283C20.1615 16.6007 20.12 16.808 20.12 17.028C20.12 17.1246 20.1281 17.2194 20.1441 17.3097C20.1676 17.4452 20.2095 17.5733 20.2654 17.6803C20.3713 17.8845 20.5224 18.0016 20.68 18.0016V18.0416Z" fill="#F9C710"/>
<path d="M20.0909 16.42H19.4911C19.5756 16.2577 19.6914 16.1542 19.8148 16.1542H20.2413C20.2389 16.1573 20.2366 16.1603 20.2342 16.1633C20.2341 16.1635 20.234 16.1636 20.234 16.1637C20.2338 16.1639 20.2336 16.1641 20.2335 16.1644C20.2333 16.1646 20.2331 16.1648 20.2329 16.165C20.2328 16.1651 20.2328 16.1652 20.2328 16.1653C20.2216 16.1799 20.2107 16.1952 20.2 16.211C20.2 16.2111 20.2 16.2112 20.1999 16.2113C20.1997 16.2116 20.1995 16.2118 20.1992 16.2121C20.1788 16.2429 20.1594 16.2757 20.1413 16.3105C20.1231 16.3453 20.1063 16.3819 20.0909 16.42Z" fill="#FCE693"/>
<path d="M16.5428 9.78143H16.5364V9.50143H16.5428V9.78143Z" fill="#000072"/>
<path d="M20.68 16.1542C20.561 16.1542 20.4422 16.2517 20.3541 16.4215C20.2675 16.5867 20.22 16.8019 20.22 17.0278C20.22 17.2537 20.2675 17.4689 20.3539 17.6337C20.4422 17.804 20.561 17.9014 20.68 17.9014C20.9021 17.9014 21.14 17.5504 21.14 17.0278C21.14 16.5053 20.9021 16.1542 20.68 16.1542ZM20.68 18.1414C20.4683 18.1414 20.2719 17.9968 20.141 17.7447C20.0373 17.5465 19.98 17.2918 19.98 17.0278C19.98 16.7638 20.0373 16.509 20.1413 16.3105C20.2719 16.0589 20.4683 15.9142 20.68 15.9142C21.0725 15.9142 21.38 16.4033 21.38 17.0278C21.38 17.6523 21.0725 18.1414 20.68 18.1414Z" fill="#000072"/>
<path d="M19.8147 16.1542C19.5697 16.1542 19.3547 16.5624 19.3547 17.0278C19.3547 17.4932 19.5697 17.9014 19.8147 17.9014H20.2413C20.2048 17.8552 20.1711 17.8028 20.141 17.7447C20.0372 17.5465 19.9799 17.2918 19.9799 17.0278C19.9799 16.7638 20.0372 16.509 20.1412 16.3105C20.1713 16.2525 20.2048 16.2004 20.2412 16.1542H19.8147ZM20.6799 18.1414H19.8147C19.4222 18.1414 19.1147 17.6523 19.1147 17.0278C19.1147 16.4033 19.4222 15.9142 19.8147 15.9142H20.6799V16.1542C20.561 16.1542 20.4422 16.2517 20.354 16.4215C20.2675 16.5867 20.2199 16.8019 20.2199 17.0278C20.2199 17.2537 20.2675 17.4689 20.3539 17.6337C20.4422 17.804 20.561 17.9014 20.6799 17.9014V18.1414Z" fill="#000072"/>
<path d="M14.6538 11.2858C14.5588 11.2858 14.4815 11.3631 14.4815 11.458V22.978C14.4815 23.073 14.5588 23.1502 14.6538 23.1502H15.1615V11.2858H14.6538ZM15.4415 23.4302H14.6538C14.4044 23.4302 14.2015 23.2274 14.2015 22.978V11.458C14.2015 11.2087 14.4044 11.0058 14.6538 11.0058H15.4415V23.4302Z" fill="#000072"/>
<path d="M15.3015 13.6125C15.3015 13.7966 15.1523 13.9459 14.9682 13.9459C14.7841 13.9459 14.6349 13.7966 14.6349 13.6125C14.6349 13.4284 14.7841 13.2792 14.9682 13.2792C15.1523 13.2792 15.3015 13.4284 15.3015 13.6125Z" fill="#000072"/>
<path d="M15.3015 21.1892C15.3015 21.3734 15.1523 21.5226 14.9682 21.5226C14.7841 21.5226 14.6349 21.3734 14.6349 21.1892C14.6349 21.0051 14.7841 20.8559 14.9682 20.8559C15.1523 20.8559 15.3015 21.0051 15.3015 21.1892Z" fill="#000072"/>
<path d="M20.2414 17.9014H19.8148C19.6218 17.9014 19.4474 17.6481 19.3821 17.3132H20.0027C20.0285 17.4717 20.0754 17.6194 20.141 17.7447C20.1681 17.7967 20.1978 17.8441 20.2299 17.8866C20.2337 17.8916 20.2375 17.8965 20.2414 17.9014Z" fill="#AE8B2E"/>
<path d="M20.2299 17.8867C20.1978 17.8442 20.168 17.7967 20.141 17.7447C20.168 17.7967 20.1978 17.8441 20.2299 17.8867Z" fill="#000072"/>
<path d="M20.68 18.0216H19.8148C19.5524 18.0216 19.3308 17.7228 19.2592 17.3132H19.382C19.4474 17.6482 19.6217 17.9014 19.8148 17.9014H20.2413C20.2375 17.8966 20.2336 17.8916 20.2299 17.8866C20.1978 17.8441 20.168 17.7967 20.141 17.7447C20.0754 17.6194 20.0284 17.4717 20.0027 17.3132H20.1244C20.1488 17.4544 20.1916 17.5824 20.2476 17.6896C20.3532 17.8932 20.508 18.0216 20.68 18.0216Z" fill="#000072"/>
<path d="M11.6403 25.3234C11.6367 25.3234 11.633 25.3234 11.6293 25.3233C11.2758 25.316 10.9682 24.9575 10.661 24.195C10.6322 24.1233 10.6669 24.0417 10.7386 24.0129C10.8104 23.984 10.8919 24.0187 10.9207 24.0904C11.2358 24.8723 11.4831 25.0402 11.6351 25.0433C11.7631 25.0469 12.0349 24.9251 12.4146 24.085C12.4464 24.0145 12.5294 23.9834 12.5998 24.0151C12.6702 24.0469 12.7015 24.1299 12.6697 24.2004C12.3237 24.966 11.9962 25.3234 11.6403 25.3234Z" fill="#000072"/>
<path d="M22.6108 14.9539C22.4621 14.9539 22.3416 14.8334 22.3416 14.6847V12.9965C22.3416 12.8478 22.4621 12.7273 22.6108 12.7273C22.7595 12.7273 22.88 12.8478 22.88 12.9965V14.6847C22.88 14.8334 22.7595 14.9539 22.6108 14.9539Z" fill="white"/>
<path d="M22.88 13.4316V12.9965C22.88 12.905 22.8344 12.8242 22.7647 12.7756C22.7778 12.7846 22.79 12.7949 22.8012 12.806C22.85 12.8548 22.88 12.9224 22.88 12.9964V13.4316ZM22.5 12.751V12.7509C22.5338 12.7357 22.5713 12.7272 22.6108 12.7272C22.6424 12.7272 22.6727 12.7327 22.7009 12.7427C22.6726 12.7327 22.6423 12.7273 22.6108 12.7273C22.5713 12.7273 22.5338 12.7357 22.5 12.751Z" fill="#93E8FC"/>
<path d="M22.4816 12.7603C22.4876 12.757 22.4938 12.7539 22.5 12.751V12.7511C22.4938 12.7539 22.4876 12.757 22.4816 12.7603Z" fill="#8C8CBF"/>
<path d="M22.88 13.4316C22.88 13.3572 22.85 13.29 22.8012 13.2412C22.7524 13.1924 22.6852 13.1624 22.6108 13.1624C22.462 13.1624 22.3416 13.2828 22.3416 13.4316V12.9964C22.3416 12.9024 22.3899 12.8194 22.4632 12.7713C22.4692 12.7673 22.4752 12.7637 22.4815 12.7602C22.4876 12.7569 22.4937 12.7538 22.5 12.751C22.5337 12.7357 22.5712 12.7273 22.6108 12.7273C22.6423 12.7273 22.6726 12.7327 22.7008 12.7427C22.7236 12.7509 22.7451 12.762 22.7647 12.7756C22.8344 12.8242 22.88 12.905 22.88 12.9965V13.4316Z" fill="white"/>
<path d="M22.6108 21.6715C22.4621 21.6715 22.3416 21.5509 22.3416 21.4023V19.7141C22.3416 19.5654 22.4621 19.4449 22.6108 19.4449C22.7595 19.4449 22.88 19.5654 22.88 19.7141V21.4023C22.88 21.5509 22.7595 21.6715 22.6108 21.6715Z" fill="white"/>
<path d="M22.88 20.324V19.7141C22.88 19.6209 22.8326 19.5387 22.7606 19.4904C22.7752 19.5001 22.7888 19.5113 22.8012 19.5236C22.85 19.5724 22.88 19.64 22.88 19.714V20.324ZM22.5 19.4686V19.4685C22.5338 19.4533 22.5713 19.4448 22.6108 19.4448C22.6454 19.4448 22.6785 19.4513 22.7089 19.4633C22.6785 19.4514 22.6454 19.4449 22.6108 19.4449C22.5713 19.4449 22.5338 19.4533 22.5 19.4686Z" fill="#93E8FC"/>
<path d="M22.4816 19.4778C22.4876 19.4746 22.4938 19.4714 22.5 19.4686V19.4686C22.4938 19.4714 22.4876 19.4746 22.4816 19.4778Z" fill="#8C8CBF"/>
<path d="M22.88 20.324C22.88 20.2496 22.85 20.1824 22.8012 20.1336C22.7524 20.0848 22.6852 20.0548 22.6108 20.0548C22.462 20.0548 22.3416 20.1756 22.3416 20.324V19.714C22.3416 19.6237 22.3862 19.5436 22.4546 19.4947C22.4632 19.4885 22.4722 19.4829 22.4815 19.4778C22.4876 19.4745 22.4937 19.4714 22.5 19.4686C22.5337 19.4533 22.5712 19.4449 22.6108 19.4449C22.6453 19.4449 22.6784 19.4514 22.7088 19.4633C22.7272 19.4705 22.7444 19.4796 22.7606 19.4904C22.8326 19.5387 22.88 19.6209 22.88 19.7141V20.324Z" fill="white"/>
<path d="M22.6107 12.8673C22.5395 12.8673 22.4815 12.9252 22.4815 12.9965V14.6847C22.4815 14.7559 22.5395 14.8139 22.6107 14.8139C22.6821 14.8139 22.74 14.7559 22.74 14.6847V12.9965C22.74 12.9252 22.6821 12.8673 22.6107 12.8673ZM22.6107 15.0939C22.3851 15.0939 22.2015 14.9103 22.2015 14.6847V12.9965C22.2015 12.7708 22.3851 12.5873 22.6107 12.5873C22.8364 12.5873 23.02 12.7708 23.02 12.9965V14.6847C23.02 14.9103 22.8364 15.0939 22.6107 15.0939Z" fill="#000072"/>
<path d="M22.6107 19.5849C22.5395 19.5849 22.4815 19.6428 22.4815 19.7141V21.4023C22.4815 21.4736 22.5395 21.5315 22.6107 21.5315C22.6821 21.5315 22.74 21.4736 22.74 21.4023V19.7141C22.74 19.6428 22.6821 19.5849 22.6107 19.5849ZM22.6107 21.8115C22.3851 21.8115 22.2015 21.6279 22.2015 21.4023V19.7141C22.2015 19.4885 22.3851 19.3049 22.6107 19.3049C22.8364 19.3049 23.02 19.4885 23.02 19.7141V21.4023C23.02 21.6279 22.8364 21.8115 22.6107 21.8115Z" fill="#000072"/>
<path d="M27.4532 25.2302C26.9838 25.3027 26.5143 25.3201 26.0449 25.329C25.5755 25.339 25.106 25.3337 24.6366 25.3282L23.9324 25.3238L23.2283 25.3236H21.8199H16.1867H10.5533H7.73666L7.0325 25.3238L6.68044 25.3272L6.32834 25.333C6.09364 25.336 5.85891 25.3314 5.62417 25.3196C5.38945 25.3045 5.15475 25.2832 4.92002 25.2302C4.89424 25.2245 4.87807 25.1989 4.88387 25.1731C4.88807 25.1545 4.9026 25.1409 4.92002 25.137C5.15475 25.084 5.38945 25.0627 5.62417 25.0476C5.85891 25.0358 6.09364 25.0311 6.32834 25.0342L6.68044 25.04L7.0325 25.0434L7.73666 25.0436H10.5533H16.1867H21.8199H23.2283L23.9324 25.0433L24.6366 25.039C25.106 25.0334 25.5755 25.0282 26.0449 25.0382C26.5143 25.0471 26.9838 25.0645 27.4532 25.137C27.479 25.1409 27.4967 25.165 27.4927 25.1908C27.4895 25.2117 27.473 25.2272 27.4532 25.2302Z" fill="#000072"/>
<path d="M12.9388 16.3434L12.2537 18.3214L10.3451 17.4625L10.6286 16.7582L12.2316 16.0666L12.9388 16.3434Z" fill="#FF3E84"/>
<path d="M12.261 18.3003L12.2528 18.2922L12.2067 16.6592L11.8931 16.4068L12.2023 16.2733L12.8721 16.5357L12.5738 17.3972L12.4934 17.6292L12.3812 17.953L12.3375 18.0794L12.2891 18.2193L12.261 18.3003Z" fill="#FFA8C8"/>
<path d="M12.8724 16.5358H12.8722L12.9388 16.3434L12.8724 16.5358Z" fill="#FCE693"/>
<path d="M11.1294 16.7363L11.1452 16.5354L12.2316 16.0667L11.7361 16.2804L11.8932 16.4068L11.1294 16.7363Z" fill="#FFA8C8"/>
<path d="M12.8722 16.5358L12.2024 16.2733L11.8931 16.4068L11.7361 16.2804L12.2316 16.0666L12.9388 16.3434L12.8722 16.5358Z" fill="#FFD8E6"/>
<path d="M12.1622 18.2582L10.3982 17.4645L10.5995 16.965L11.0879 16.7542L11.0564 17.1543L12.1622 18.2582Z" fill="#D23374"/>
<path d="M10.3982 17.4645L10.3708 17.4522L10.6441 16.7734L11.102 16.5758L11.0879 16.7542L10.5995 16.965L10.3982 17.4645Z" fill="#D27DA3"/>
<path d="M10.5378 17.5712L10.3193 17.4729L10.5349 16.9374L10.5352 16.9903L10.3451 17.4625L10.5377 17.5492L10.5378 17.5712Z" fill="#0B8FD0"/>
<path d="M11.1158 16.5262L11.147 16.5128L11.1459 16.5261L11.1158 16.5262Z" fill="#7E6CCA"/>
<path d="M10.8705 17.7209L10.8276 17.7016V17.6797L10.8836 17.7048C10.8792 17.7102 10.8748 17.7154 10.8705 17.7209Z" fill="#AE8B2E"/>
<path d="M10.5476 17.5756L10.5378 17.5712L10.5377 17.5492L10.5476 17.5537V17.5756ZM10.5352 16.9903L10.5349 16.9374L10.5476 16.9057V16.9593L10.5352 16.9903ZM10.8276 16.6723V16.6506L11.1158 16.5263L11.1459 16.5261L11.1452 16.5354L10.8276 16.6723Z" fill="#000072"/>
<path d="M11.5481 18.0258L11.0979 17.8232C11.1025 17.818 11.1073 17.8128 11.1121 17.8076L11.5678 18.0127C11.5612 18.0169 11.5546 18.0213 11.5481 18.0258Z" fill="#AE8B2E"/>
<path d="M12.3453 18.3845L11.6011 18.0496C11.6102 18.0462 11.6194 18.043 11.6287 18.0401L12.2538 18.3213L12.2611 18.3003L12.3453 18.3845Z" fill="#AD6F37"/>
<path d="M11.5483 18.0258H11.5482C11.5547 18.0213 11.5613 18.0169 11.5679 18.0127C11.5613 18.0169 11.5548 18.0213 11.5483 18.0258Z" fill="#796143"/>
<path d="M11.601 18.0496L11.5482 18.0259C11.5547 18.0214 11.5612 18.017 11.5678 18.0127L11.6286 18.0401C11.6193 18.0431 11.6101 18.0463 11.601 18.0496Z" fill="#794D49"/>
<path d="M11.098 17.8232L10.8706 17.7209C10.8749 17.7154 10.8792 17.7101 10.8836 17.7048L11.1121 17.8076C11.1074 17.8128 11.1026 17.818 11.098 17.8232Z" fill="#000072"/>
<path d="M10.8277 17.7016L10.5477 17.5756V17.5537L10.8277 17.6797V17.7016ZM10.5477 16.9593V16.9057L10.6132 16.7431L10.8277 16.6506V16.6723L10.6287 16.7582L10.5477 16.9593Z" fill="#000072"/>
<path d="M12.2537 18.3214L11.6286 18.0401L11.5678 18.0127L11.1121 17.8076L10.8836 17.7048L10.8277 17.6797L10.5477 17.5537L10.5377 17.5492L10.3451 17.4625L10.3908 17.4829L10.3981 17.4645L12.1621 18.2582L11.0563 17.1543L11.0878 16.7542L11.1293 16.7362L11.0977 17.139L12.2529 18.2922L12.2537 18.3214Z" fill="#B22B7F"/>
<path d="M12.2538 18.3214L12.2529 18.2922L12.2611 18.3003L12.2538 18.3214Z" fill="#B275AE"/>
<path d="M10.3908 17.4828L10.3451 17.4624L10.6286 16.7582L11.1452 16.5353L11.1293 16.7362L11.0878 16.7541L11.1019 16.5758L10.6441 16.7733L10.3708 17.4521L10.3981 17.4644L10.3908 17.4828Z" fill="#B275AE"/>
<path d="M10.4789 17.4088L12.1928 18.1798L12.8077 16.4039L12.2336 16.179L10.7092 16.8367L10.4789 17.4088ZM12.3148 18.4627L10.2114 17.5164L10.5482 16.6797L12.2297 15.9542L13.0696 16.2832L12.3148 18.4627Z" fill="#000072"/>
<path d="M10.3863 17.558L10.304 17.3672L12.8975 16.2481L12.9798 16.439L10.3863 17.558Z" fill="#000072"/>
<path d="M12.1499 18.3242L12.1043 16.7102L11.6709 16.3613L11.8013 16.1994L12.3094 16.6084L12.3577 18.3184L12.1499 18.3242Z" fill="#000072"/>
<path d="M12.1804 18.3949L10.9695 17.1865L11.0206 16.5363L11.2279 16.5526L11.1843 17.1071L12.3272 18.2477L12.1804 18.3949Z" fill="#000072"/>
<path d="M24.3786 23.9977C24.3786 24.6641 23.8382 25.2045 23.1718 25.2045C22.5052 25.2045 21.965 24.6641 21.965 23.9977C21.965 23.3311 22.5052 22.7908 23.1718 22.7908C23.8382 22.7908 24.3786 23.3311 24.3786 23.9977Z" fill="#F9C710"/>
<path d="M23.1717 22.8109C22.5173 22.8109 21.9849 23.3432 21.9849 23.9976C21.9849 24.6521 22.5173 25.1845 23.1717 25.1845C23.8261 25.1845 24.3585 24.6521 24.3585 23.9976C24.3585 23.3432 23.8261 22.8109 23.1717 22.8109ZM23.1717 25.2245C22.4953 25.2245 21.9449 24.6742 21.9449 23.9976C21.9449 23.3212 22.4953 22.7708 23.1717 22.7708C23.8482 22.7708 24.3985 23.3212 24.3985 23.9976C24.3985 24.6742 23.8482 25.2245 23.1717 25.2245Z" fill="#000072"/>
<path d="M23.8897 23.4469H23.6633C23.6222 23.3778 23.6152 23.2893 23.6697 23.2119C23.476 23.0791 23.2416 23.001 22.9888 23.001C22.8645 23.001 22.7448 23.0197 22.6322 23.0545C22.7912 22.9631 22.9755 22.9109 23.1718 22.9109C23.4348 22.9109 23.6763 23.0047 23.8644 23.1608V23.3479C23.8644 23.3839 23.8736 23.4175 23.8897 23.4469Z" fill="#FCE693"/>
<path d="M23.8045 23.9977C23.8045 24.347 23.5212 24.6303 23.1718 24.6303C22.8223 24.6303 22.5391 24.347 22.5391 23.9977C22.5391 23.6482 22.8223 23.365 23.1718 23.365C23.5212 23.365 23.8045 23.6482 23.8045 23.9977Z" fill="#F89F1D"/>
<path d="M23.1188 24.6887C22.9752 24.6887 22.8424 24.641 22.7364 24.5604C22.7124 24.5758 22.6879 24.5826 22.6644 24.5826C22.5576 24.5826 22.472 24.4432 22.5579 24.3495C22.5115 24.2618 22.4855 24.1622 22.4855 24.0561C22.4855 23.8792 22.5584 23.7186 22.676 23.6044C22.671 23.6106 22.6661 23.617 22.6614 23.6235C22.6615 23.6234 22.6616 23.6234 22.6616 23.6234C22.6266 23.671 22.5981 23.7237 22.5775 23.7802C22.5524 23.848 22.5388 23.9214 22.5388 23.9977C22.5388 24.212 22.6454 24.4014 22.8087 24.5158C22.9115 24.588 23.0367 24.6303 23.1718 24.6303C23.3193 24.6303 23.4551 24.5798 23.5627 24.4952H23.5738C23.459 24.6146 23.2975 24.6887 23.1188 24.6887Z" fill="#FCE693"/>
<path d="M23.1717 24.6303C23.0366 24.6303 22.9114 24.588 22.8086 24.5158C22.9114 24.5879 23.0368 24.6302 23.172 24.6302C23.3192 24.6302 23.4546 24.5797 23.562 24.4952H23.5626C23.455 24.5798 23.3192 24.6303 23.1717 24.6303ZM22.5774 23.7801C22.598 23.7237 22.6265 23.6709 22.6616 23.6233C22.662 23.6229 22.6625 23.6225 22.663 23.6221C22.6274 23.6699 22.5984 23.7231 22.5774 23.7801Z" fill="#FCD499"/>
<path d="M22.6759 23.6044C22.7295 23.5368 22.7968 23.4805 22.8734 23.4395C22.797 23.4805 22.73 23.5366 22.6764 23.6039C22.6762 23.6041 22.6761 23.6042 22.6759 23.6044ZM23.4835 23.4468H23.4834C23.4457 23.4255 23.4056 23.4079 23.3636 23.3945C23.4057 23.4079 23.4457 23.4255 23.4835 23.4468ZM22.8738 23.4393C22.874 23.4393 22.8741 23.4392 22.8742 23.4391C22.8741 23.4392 22.8739 23.4393 22.8738 23.4393Z" fill="#AE8B2E"/>
<path d="M22.6631 23.6221C22.6683 23.615 22.6736 23.6081 22.6792 23.6013C22.6783 23.6022 22.6774 23.603 22.6764 23.6039C22.73 23.5366 22.7971 23.4805 22.8735 23.4395C22.8736 23.4394 22.8737 23.4394 22.8739 23.4394C22.874 23.4393 22.8741 23.4392 22.8743 23.4391C22.9631 23.3918 23.0644 23.365 23.172 23.365C23.2388 23.365 23.3032 23.3754 23.3636 23.3946C23.4056 23.4079 23.4458 23.4255 23.4835 23.4469H23.4592C23.3957 23.4469 23.3364 23.4651 23.2863 23.4966C23.2222 23.4747 23.1534 23.4628 23.0819 23.4628C22.9213 23.4628 22.7747 23.5232 22.6631 23.6221Z" fill="#AD6F37"/>
<path d="M22.6614 23.6235C22.6661 23.6171 22.671 23.6107 22.6759 23.6044C22.6761 23.6043 22.6763 23.6041 22.6764 23.6039C22.6714 23.6103 22.6664 23.6168 22.6616 23.6234C22.6615 23.6234 22.6615 23.6235 22.6614 23.6235Z" fill="#B0A189"/>
<path d="M22.6616 23.6234C22.6664 23.6168 22.6714 23.6103 22.6764 23.6039C22.6774 23.603 22.6783 23.6022 22.6791 23.6013C22.6736 23.6081 22.6683 23.615 22.6631 23.6221C22.6626 23.6225 22.6621 23.6229 22.6616 23.6234Z" fill="#B0948D"/>
<path d="M23.1718 22.9109C22.5725 22.9109 22.085 23.3984 22.085 23.9976C22.085 24.5969 22.5725 25.0845 23.1718 25.0845C23.7711 25.0845 24.2586 24.5969 24.2586 23.9976C24.2586 23.3984 23.7711 22.9109 23.1718 22.9109ZM23.1718 25.3245C22.4402 25.3245 21.845 24.7292 21.845 23.9976C21.845 23.266 22.4402 22.6708 23.1718 22.6708C23.9034 22.6708 24.4986 23.266 24.4986 23.9976C24.4986 24.7292 23.9034 25.3245 23.1718 25.3245Z" fill="#000072"/>
<path d="M26.028 25.1834H24.0707C23.9568 25.1834 23.8644 25.0911 23.8644 24.9772V24.5814C23.8644 24.4675 23.9568 24.3752 24.0707 24.3752H26.028C26.1419 24.3752 26.2343 24.4675 26.2343 24.5814V24.9772C26.2343 25.0911 26.1419 25.1834 26.028 25.1834Z" fill="#F9C710"/>
<path d="M25.6616 25.0634H25.3219V24.4952H25.4165H25.6616V25.0634Z" fill="#FCE693"/>
<path d="M24.5174 25.1584H23.8894V24.3835H24.5174V25.1584Z" fill="#F89F1D"/>
<path d="M25.8037 25.0634H26.0012V24.4952H25.8037V25.0634Z" fill="#FCE693"/>
<path d="M24.0707 24.4952C24.0231 24.4952 23.9844 24.5339 23.9844 24.5815V24.9772C23.9844 25.0247 24.0231 25.0635 24.0707 25.0635H26.028C26.0756 25.0635 26.1143 25.0247 26.1143 24.9772V24.5815C26.1143 24.5339 26.0756 24.4952 26.028 24.4952H24.0707ZM26.028 25.3035H24.0707C23.8908 25.3035 23.7444 25.1571 23.7444 24.9772V24.5815C23.7444 24.4015 23.8908 24.2552 24.0707 24.2552H26.028C26.2079 24.2552 26.3543 24.4015 26.3543 24.5815V24.9772C26.3543 25.1571 26.2079 25.3035 26.028 25.3035Z" fill="#000072"/>
<path d="M9.70427 25.1834H7.74694C7.63301 25.1834 7.54065 25.0911 7.54065 24.9772V24.5814C7.54065 24.4675 7.63301 24.3752 7.74694 24.3752H9.70427C9.81819 24.3752 9.91051 24.4675 9.91051 24.5814V24.9772C9.91051 25.0911 9.81819 25.1834 9.70427 25.1834Z" fill="#F9C710"/>
<path d="M8.99817 25.0634H9.33785V24.4952H8.99817V25.0634Z" fill="#FCE693"/>
<path d="M7.56567 25.1584H8.19371V24.3835H7.56567V25.1584Z" fill="#F89F1D"/>
<path d="M9.4801 25.0634H9.67754V24.4952H9.4801V25.0634Z" fill="#FCE693"/>
<path d="M7.74706 24.4952C7.69948 24.4952 7.66078 24.5339 7.66078 24.5815V24.9772C7.66078 25.0247 7.69948 25.0635 7.74706 25.0635H9.7043C9.7519 25.0635 9.79062 25.0247 9.79062 24.9772V24.5815C9.79062 24.5339 9.7519 24.4952 9.7043 24.4952H7.74706ZM9.7043 25.3035H7.74706C7.56714 25.3035 7.42078 25.1571 7.42078 24.9772V24.5815C7.42078 24.4015 7.56714 24.2552 7.74706 24.2552H9.7043C9.88422 24.2552 10.0306 24.4015 10.0306 24.5815V24.9772C10.0306 25.1571 9.88422 25.3035 9.7043 25.3035Z" fill="#000072"/>
<path d="M8.11957 24.2115L6.38264 25.1138C6.28154 25.1663 6.15701 25.1269 6.10449 25.0258L5.92207 24.6747C5.86955 24.5735 5.90894 24.4491 6.01003 24.3965L7.74694 23.4943C7.84805 23.4417 7.97258 23.4811 8.02509 23.5822L8.20749 23.9334C8.26005 24.0344 8.22061 24.159 8.11957 24.2115Z" fill="#F9C710"/>
<path d="M7.43764 24.4305L7.17566 23.9262L7.47709 23.7696L7.73907 24.2739L7.43764 24.4305Z" fill="#FCE693"/>
<path d="M6.76754 24.8856L6.21024 25.1751L5.85303 24.4874L6.41033 24.1979L6.76754 24.8856Z" fill="#F89F1D"/>
<path d="M7.86525 24.2084L7.60327 23.7041L7.77852 23.613L8.04054 24.1173L7.86525 24.2084Z" fill="#FCE693"/>
<path d="M7.84187 23.591C7.8285 23.591 7.81491 23.5942 7.80225 23.6007L6.06534 24.503C6.02311 24.5249 6.00663 24.5771 6.02854 24.6193L6.21096 24.9705C6.23292 25.0126 6.28519 25.0292 6.32733 25.0073L8.06421 24.105C8.10645 24.083 8.12293 24.0309 8.10101 23.9886L7.91862 23.6375C7.90327 23.6079 7.87308 23.591 7.84187 23.591ZM6.28811 25.257C6.17014 25.257 6.05604 25.1928 5.998 25.0811L5.81557 24.7299C5.77541 24.6526 5.76776 24.5642 5.79401 24.4811C5.8203 24.3981 5.87736 24.3302 5.95472 24.29L7.69163 23.3877C7.85132 23.3048 8.04869 23.3673 8.13157 23.5268L8.31397 23.878C8.35413 23.9554 8.36181 24.0438 8.33557 24.1268C8.30925 24.2099 8.25221 24.2778 8.17485 24.3179L6.43796 25.2202C6.39002 25.2451 6.3387 25.257 6.28811 25.257Z" fill="#000072"/>
<path d="M25.4165 24.3752H23.4592C23.3452 24.3752 23.2529 24.2828 23.2529 24.1689V23.7732C23.2529 23.6593 23.3452 23.5669 23.4592 23.5669H25.4165C25.5304 23.5669 25.6228 23.6593 25.6228 23.7732V24.1689C25.6228 24.2828 25.5304 24.3752 25.4165 24.3752Z" fill="#F9C710"/>
<path d="M24.7103 24.2552H25.05V23.6869H24.7103V24.2552Z" fill="#FCE693"/>
<path d="M23.906 24.3502H23.278V23.5753H23.906V24.3502Z" fill="#F89F1D"/>
<path d="M25.1923 24.2552H25.3897V23.6869H25.1923V24.2552Z" fill="#FCE693"/>
<path d="M23.4592 23.6869C23.4117 23.6869 23.3729 23.7256 23.3729 23.7732V24.1689C23.3729 24.2165 23.4117 24.2552 23.4592 24.2552H25.4165C25.4641 24.2552 25.5028 24.2165 25.5028 24.1689V23.7732C25.5028 23.7256 25.4641 23.6869 25.4165 23.6869H23.4592ZM25.4165 24.4952H23.4592C23.2793 24.4952 23.1329 24.3488 23.1329 24.1689V23.7732C23.1329 23.5933 23.2793 23.4469 23.4592 23.4469H25.4165C25.5965 23.4469 25.7428 23.5933 25.7428 23.7732V24.1689C25.7428 24.3488 25.5965 24.4952 25.4165 24.4952Z" fill="#000072"/>
<path d="M26.028 23.5543H24.0707C23.9568 23.5543 23.8644 23.4619 23.8644 23.3479V22.9523C23.8644 22.8383 23.9568 22.7459 24.0707 22.7459H26.028C26.1419 22.7459 26.2343 22.8383 26.2343 22.9523V23.3479C26.2343 23.4619 26.1419 23.5543 26.028 23.5543Z" fill="#F9C710"/>
<path d="M25.3219 23.5292H25.6616V22.7543H25.3219V23.5292Z" fill="#FCE693"/>
<path d="M24.5174 23.5292H23.8894V22.7543H24.5174V23.5292Z" fill="#F89F1D"/>
<path d="M25.8037 23.5459H26.0012V22.7709H25.8037V23.5459Z" fill="#FCE693"/>
<path d="M24.0707 22.8659C24.0231 22.8659 23.9844 22.9047 23.9844 22.9523V23.3479C23.9844 23.3955 24.0231 23.4343 24.0707 23.4343H26.028C26.0756 23.4343 26.1143 23.3955 26.1143 23.3479V22.9523C26.1143 22.9047 26.0756 22.8659 26.028 22.8659H24.0707ZM26.028 23.6743H24.0707C23.8908 23.6743 23.7444 23.5279 23.7444 23.3479V22.9523C23.7444 22.7723 23.8908 22.6259 24.0707 22.6259H26.028C26.2079 22.6259 26.3543 22.7723 26.3543 22.9523V23.3479C26.3543 23.5279 26.2079 23.6743 26.028 23.6743Z" fill="#000072"/>
<path d="M25.4672 25.3347C25.1903 25.3347 24.9134 25.3315 24.6365 25.3283L23.9324 25.3239L23.2282 25.3236H23.2204C23.416 25.3165 23.601 25.2668 23.7664 25.1836H23.8182C23.878 25.2567 23.969 25.3035 24.0707 25.3035H26.028C26.1296 25.3035 26.2206 25.2567 26.2805 25.1836H26.6772C26.9064 25.2052 27.118 25.2276 27.3105 25.2507C26.8886 25.3062 26.4667 25.321 26.0448 25.3291C25.8523 25.3331 25.6597 25.3347 25.4672 25.3347ZM6.18914 25.3339C6.00079 25.3339 5.81247 25.3291 5.62411 25.3196C5.40635 25.3055 5.18859 25.2863 4.97083 25.2413C5.14152 25.2215 5.3263 25.2023 5.52435 25.1836H6.08137C6.1398 25.2311 6.21316 25.257 6.28809 25.257C6.33868 25.257 6.39 25.2451 6.43794 25.2203L6.50851 25.1836H7.49445C7.55434 25.2567 7.6453 25.3035 7.74696 25.3035H9.70419C9.80587 25.3035 9.89683 25.2567 9.95675 25.1836H22.577C22.7424 25.2668 22.9273 25.3165 23.123 25.3236H21.8199H16.1866H10.5532H7.73659L7.03243 25.3239L6.68037 25.3272L6.32827 25.3331C6.28191 25.3336 6.23551 25.3339 6.18914 25.3339Z" fill="#000072"/>
<path d="M23.1717 25.3245C23.1554 25.3245 23.1392 25.3241 23.123 25.3236C22.9273 25.3165 22.7424 25.2668 22.577 25.1836H23.7664C23.601 25.2668 23.4161 25.3165 23.2204 25.3236C23.2042 25.3241 23.188 25.3245 23.1717 25.3245Z" fill="#000072"/>
<path d="M26.028 25.3035H24.0707C23.969 25.3035 23.8781 25.2567 23.8182 25.1836H26.2806C26.2206 25.2567 26.1297 25.3035 26.028 25.3035Z" fill="#000072"/>
<path d="M9.70425 25.3035H7.74702C7.64535 25.3035 7.55439 25.2567 7.49451 25.1836H9.95681C9.89689 25.2567 9.80593 25.3035 9.70425 25.3035Z" fill="#000072"/>
<path d="M6.28814 25.257C6.21321 25.257 6.13985 25.2311 6.08142 25.1836H6.50856L6.43799 25.2202C6.39005 25.2451 6.33873 25.257 6.28814 25.257Z" fill="#000072"/>
</svg>
