<svg width="32" height="32" viewBox="0 0 32 32" fill="none" xmlns="http://www.w3.org/2000/svg">
<mask id="mask0_42223_1107" style="mask-type:luminance" maskUnits="userSpaceOnUse" x="18" y="10" width="3" height="2">
<path d="M20.9897 10.1862L19.084 11.3937C19.0471 11.4171 19.0037 11.4315 18.9558 11.434L20.8615 10.2266C20.9094 10.2239 20.9528 10.2095 20.9897 10.1862Z" fill="white"/>
</mask>
<g mask="url(#mask0_42223_1107)">
<path d="M20.9897 10.1862L19.084 11.3937C19.0471 11.4171 19.0037 11.4315 18.9558 11.434L20.8615 10.2266C20.9094 10.2239 20.9528 10.2095 20.9897 10.1862Z" fill="#254017"/>
</g>
<path d="M16.1027 5.27406L14.197 6.4815C14.1307 6.52358 14.0887 6.60102 14.0918 6.69334L14.1175 7.4411L16.0233 6.23366L15.9976 5.4859C15.9944 5.39358 16.0364 5.31606 16.1027 5.27406Z" fill="#253F17"/>
<path d="M15.8217 5.66747L14.2944 6.63523C14.2806 6.64395 14.2729 6.66339 14.2737 6.68715L14.2884 7.11755L15.8379 6.13579L15.8217 5.66747ZM14.1175 7.62299C14.0884 7.62299 14.0593 7.61611 14.0326 7.60203C13.9749 7.57155 13.938 7.51259 13.9357 7.44739L13.9101 6.69963C13.9048 6.54547 13.9757 6.40651 14.0997 6.32795L16.005 5.12067L16.0053 5.12051C16.0902 5.06667 16.2025 5.09187 16.2564 5.17675C16.3101 5.26155 16.2849 5.37395 16.2001 5.42779H16.2C16.1863 5.43659 16.1785 5.45603 16.1793 5.47971L16.205 6.22747C16.2072 6.29195 16.1751 6.35283 16.1205 6.38731L14.2149 7.59475C14.1853 7.61355 14.1514 7.62299 14.1175 7.62299Z" fill="#0E260C"/>
<path d="M19.0047 10.3302C18.8332 10.3189 18.997 9.7675 18.9558 9.62862C18.7524 8.9499 18.2678 8.56694 17.6999 8.26638L15.6058 9.81902C16.1736 10.1196 16.5584 10.6096 16.7618 11.2883C16.803 11.4272 16.9275 11.5263 17.099 11.5377L18.9558 11.434L20.8614 10.2265L19.0047 10.3302Z" fill="#254017"/>
<path d="M15.9321 9.80354C16.4118 10.1308 16.7489 10.6115 16.936 11.2361C16.9562 11.304 17.0162 11.347 17.1013 11.3554L18.8984 11.2551L20.1734 10.4471L19.0149 10.5119C19.0074 10.5123 19.0001 10.5123 18.9926 10.5117C18.9242 10.5072 18.8623 10.4757 18.8184 10.423C18.7155 10.2995 18.7394 10.0951 18.7646 9.8789C18.7724 9.81114 18.7842 9.70954 18.7802 9.67642C18.6293 9.17642 18.308 8.8145 17.715 8.48178L15.9321 9.80354ZM17.099 11.7195C17.095 11.7195 17.091 11.7195 17.087 11.7192C16.8435 11.7031 16.6521 11.5578 16.5874 11.3401C16.3968 10.7039 16.0478 10.2588 15.5208 9.97978C15.4655 9.95058 15.4292 9.89506 15.4245 9.83282C15.4198 9.7705 15.4474 9.7101 15.4975 9.6729L17.5916 8.12034C17.6478 8.07866 17.7231 8.0729 17.785 8.1057C18.2854 8.37058 18.8905 8.77706 19.13 9.57642C19.1546 9.65922 19.1445 9.76122 19.1258 9.92098C19.119 9.98018 19.108 10.0747 19.1064 10.1424L20.8513 10.045C20.9338 10.0402 21.0094 10.0922 21.0346 10.1711C21.0599 10.2499 21.0287 10.3359 20.9588 10.3802L19.0531 11.5877C19.0269 11.6043 18.9969 11.6139 18.9659 11.6156L17.1092 11.7193C17.1058 11.7195 17.1024 11.7195 17.099 11.7195Z" fill="#0E260C"/>
<path d="M16.0999 8.46537C16.0254 8.48617 15.945 8.47097 15.8668 8.45577C15.7715 8.43721 15.6796 8.41865 15.6059 8.46537L13.745 9.86961C13.8792 9.78457 14.0289 9.71905 14.1942 9.67281L14.3159 13.215L16.2216 12.0075L16.0999 8.46537Z" fill="#253F17"/>
<path d="M19.1629 19.1282L17.141 20.067C17.4332 19.7127 17.5701 19.2803 17.5525 18.7683C17.5368 18.311 17.3947 17.9062 17.1279 17.5542C16.8603 17.2021 16.4313 16.9137 15.8417 16.6883L17.7969 15.3642C18.3865 15.5896 18.8236 15.8964 19.0912 16.2485C19.3581 16.6005 19.5415 17.1176 19.5572 17.5749C19.5748 18.0869 19.3389 18.5053 19.0467 18.8596L19.1629 19.1282Z" fill="#254017"/>
<path d="M16.4689 19.2147L14.5632 20.4219L14.4271 16.4458L14.4161 16.133C13.1325 15.6465 12.181 14.9917 11.5604 14.1685C11.4128 13.9721 11.2814 13.7679 11.1665 13.5553C10.8001 12.8776 10.6027 12.1173 10.5736 11.2759C10.5351 10.156 10.8386 9.24346 11.4836 8.53722C11.68 8.32202 11.8977 8.13914 12.1373 7.98738L14.043 6.77962C13.8034 6.93138 13.5856 7.11482 13.3892 7.33002C12.7443 8.0357 12.4408 8.94882 12.4792 10.0682C12.5073 10.8836 12.6939 11.6226 13.039 12.2847H13.0395C13.1616 12.5201 13.304 12.7456 13.4661 12.9613C14.0867 13.7839 15.0382 14.4387 16.3218 14.9257L16.3634 16.133L16.4689 19.2147Z" fill="#253F17"/>
<path d="M11.0165 9.61816C11.1594 9.26208 11.36 8.94209 11.6178 8.65985C11.8022 8.45793 12.0097 8.28328 12.2345 8.14088L12.8438 7.7548C12.7935 7.83744 12.7467 7.92208 12.7034 8.00896C12.7031 8.00944 12.703 8.00977 12.7027 8.01025C12.7023 8.01113 12.7018 8.01192 12.7014 8.0128C12.701 8.0136 12.7007 8.01424 12.7004 8.01496C12.7001 8.01552 12.6999 8.01592 12.6997 8.0164C12.6991 8.01752 12.6986 8.01856 12.6981 8.01968H12.698C12.6974 8.02088 12.6968 8.02216 12.6962 8.02336C12.6962 8.02352 12.696 8.02376 12.6959 8.024C12.687 8.04216 12.6781 8.06048 12.6694 8.07888L12.1373 8.41608C11.8977 8.56784 11.6799 8.75081 11.4835 8.96593C11.3002 9.16665 11.1446 9.38408 11.0165 9.61816Z" fill="#A8B2A2"/>
<path d="M12.8438 7.75482L12.2345 8.1409C12.0097 8.2833 11.8022 8.45794 11.6178 8.65986C11.0088 9.32658 10.7186 10.2046 10.7552 11.2695C10.7916 12.3313 11.1115 13.2699 11.7058 14.0593C12.302 14.8504 13.2356 15.4909 14.4805 15.963C14.549 15.9889 14.5953 16.0535 14.5978 16.1267L14.7342 20.0985L16.2836 19.1167L16.144 15.0519C14.8902 14.5592 13.9408 13.8931 13.3209 13.0707C12.6807 12.2204 12.3364 11.2124 12.2973 10.0745C12.2666 9.17978 12.4501 8.4025 12.8438 7.75482ZM14.5633 20.6039C14.5342 20.6039 14.505 20.597 14.4783 20.583C14.4207 20.5525 14.3838 20.4935 14.3815 20.4283L14.2383 16.2595C12.9844 15.7667 12.035 15.1005 11.4152 14.2782C10.775 13.4279 10.4307 12.4199 10.3916 11.2819C10.3517 10.1187 10.6738 9.15394 11.3491 8.41458C11.5554 8.18874 11.7878 7.9933 12.0398 7.83362L13.9454 6.6261C14.0302 6.57242 14.1427 6.59754 14.1965 6.68242C14.2502 6.7673 14.225 6.8797 14.1402 6.93338L14.1397 6.9337C13.915 7.07618 13.7077 7.25066 13.5234 7.45242C12.9146 8.11914 12.6243 8.99714 12.6609 10.062C12.6973 11.1239 13.0171 12.0625 13.6114 12.8518C14.2078 13.643 15.1414 14.2835 16.3862 14.7555C16.4547 14.7814 16.501 14.846 16.5034 14.9193L16.6508 19.2083C16.653 19.2728 16.6209 19.3337 16.5663 19.3682L14.6606 20.5757C14.631 20.5945 14.5972 20.6039 14.5633 20.6039Z" fill="#0E260C"/>
<path d="M20.0898 21.0963L18.1841 22.3039C17.6028 22.6722 16.8936 22.8855 16.0565 22.9435L17.9622 21.7361C18.7992 21.6779 19.5084 21.4647 20.0898 21.0963Z" fill="#254017"/>
<path d="M18.021 21.9142L16.8719 22.6422C17.3281 22.5378 17.7347 22.3733 18.0868 22.1502L18.5636 21.848C18.3885 21.8778 18.2076 21.8998 18.021 21.9142ZM16.0565 23.1254C15.9784 23.1254 15.9084 23.0753 15.8837 23.0002C15.8577 22.9211 15.8889 22.8345 15.9592 22.7898L17.8649 21.5824C17.8904 21.5662 17.9195 21.5566 17.9497 21.5546C18.7522 21.4989 19.4396 21.293 19.9925 20.9427C20.0772 20.889 20.1897 20.9142 20.2434 20.999C20.2972 21.0838 20.272 21.1962 20.1871 21.25L18.2815 22.4574C17.677 22.8405 16.9327 23.065 16.0691 23.125C16.0649 23.1253 16.0606 23.1254 16.0565 23.1254Z" fill="#0E260C"/>
<path d="M20.0898 21.0963L18.1841 22.3039C17.6028 22.6722 16.8936 22.8855 16.0565 22.9435L17.9622 21.7361C18.7992 21.6779 19.5084 21.4647 20.0898 21.0963Z" fill="#0E260C"/>
<path d="M17.7967 23.632L15.891 24.8393L14.9436 24.7619C14.8158 24.7515 14.7082 24.634 14.7035 24.4994L14.6713 23.5535L14.6479 22.8795C13.621 22.6649 12.7599 22.2179 12.0661 21.5387C11.9991 21.4732 11.9336 21.4057 11.8696 21.3355C11.2076 20.61 10.7472 19.6497 10.4888 18.4523C10.4597 18.3183 10.5123 18.1951 10.6094 18.1338L12.5151 16.926C12.418 16.9879 12.3655 17.111 12.3945 17.2451C12.6414 18.3889 13.0728 19.3171 13.6886 20.0301H13.6891C13.7172 20.0633 13.7463 20.0955 13.7754 20.1278C14.5008 20.9224 15.4275 21.4369 16.5536 21.6718L16.5754 22.311L16.6092 23.2922C16.6139 23.4263 16.7215 23.5437 16.8493 23.5541L17.7967 23.632Z" fill="#254017"/>
<path d="M15.9097 25.0219C15.8986 25.0219 15.8875 25.0214 15.8764 25.0206C15.7985 25.0142 15.7334 24.9587 15.7147 24.8828C15.6959 24.8068 15.7279 24.7274 15.7939 24.6856L17.6996 23.4782C17.733 23.457 17.7725 23.4473 17.8117 23.4505C17.8179 23.4512 17.8228 23.4502 17.8262 23.448C17.911 23.3943 18.0234 23.4195 18.0771 23.5044C18.1309 23.5893 18.1056 23.7016 18.0208 23.7554L18.0207 23.7554H18.0207L16.1151 24.9628C16.0537 25.0018 15.9832 25.0219 15.9097 25.0219Z" fill="#0E260C"/>
<path d="M15.8914 25.0212C15.8865 25.0212 15.8814 25.0209 15.8764 25.0205L14.9286 24.9429C14.7082 24.9249 14.5293 24.7329 14.5215 24.5057L14.4707 23.0266C13.3726 22.7711 12.453 22.2438 11.7351 21.4579C11.0536 20.711 10.5746 19.7126 10.311 18.4906C10.2664 18.2862 10.3452 18.0856 10.512 17.9799L12.4173 16.7727L12.4176 16.7725H12.4177C12.5024 16.7187 12.6149 16.7438 12.6686 16.8288C12.7224 16.9136 12.6972 17.026 12.6124 17.0797H12.6123L12.6122 17.0799C12.5762 17.1029 12.5605 17.1523 12.5722 17.2061C12.822 18.3648 13.2719 19.3064 13.9095 20.0053C14.6049 20.7665 15.5069 21.2675 16.5906 21.494C16.6726 21.5111 16.7322 21.5821 16.7351 21.6657L16.7908 23.2857C16.7923 23.3316 16.8314 23.3702 16.8639 23.3729L17.8118 23.4505C17.9118 23.4587 17.9864 23.5465 17.9782 23.6466C17.97 23.7467 17.8822 23.8204 17.7821 23.813L16.8343 23.7354C16.6138 23.7174 16.435 23.5254 16.4272 23.2982L16.3764 21.8192C15.2783 21.5637 14.3586 21.0363 13.6408 20.2505C12.967 19.512 12.4911 18.5278 12.2258 17.3247L10.7067 18.2873C10.6706 18.3101 10.6548 18.3597 10.6666 18.4134C10.9164 19.5723 11.3663 20.5139 12.0038 21.2127C12.6992 21.9741 13.6013 22.4749 14.6849 22.7013C14.7669 22.7185 14.8266 22.7895 14.8294 22.8732L14.885 24.4932C14.8866 24.539 14.9257 24.5777 14.9582 24.5803L15.9061 24.658C16.0062 24.6661 16.0807 24.754 16.0725 24.8541C16.0647 24.9492 15.9851 25.0212 15.8914 25.0212Z" fill="#0E260C"/>
<path d="M19.0464 18.8598C18.7543 19.2131 18.3677 19.4179 17.8844 19.4735L17.7472 15.4807C18.3371 15.7063 18.7658 15.9947 19.0335 16.3466C19.3006 16.6989 19.4424 17.1037 19.458 17.5611C19.4757 18.073 19.3391 18.5053 19.0464 18.8598ZM15.2527 11.1783C15.0344 10.8503 14.9191 10.5063 14.9067 10.1446C14.8931 9.74857 14.9939 9.39625 15.2101 9.08705C15.4258 8.77785 15.722 8.57097 16.0998 8.46545L16.2215 12.0077C15.7937 11.7821 15.4705 11.5056 15.2527 11.1783ZM21.8283 17.3875C21.8138 16.9743 21.7613 16.5856 21.6703 16.2218C21.5175 15.6117 21.2572 15.0712 20.8887 14.6004C20.2999 13.8479 19.2205 13.1858 17.649 12.6142L17.5113 8.61153C18.0793 8.91193 18.4639 9.40193 18.6676 10.0807C18.7087 10.2199 18.8334 10.3187 19.0048 10.3301L20.8612 10.2267C21.0379 10.2168 21.1532 10.0469 21.1059 9.86033C20.8825 8.97945 20.4917 8.24673 19.9331 7.66097C19.3021 7.00097 18.4696 6.56289 17.4339 6.34929L17.4079 5.60153C17.4032 5.45441 17.2863 5.32657 17.1464 5.31513L16.2417 5.24081C16.1019 5.22937 15.9923 5.33905 15.9975 5.48609L16.0235 6.23345C14.9123 6.25833 14.0341 6.62369 13.3891 7.33001C12.7442 8.03569 12.4407 8.94881 12.4791 10.0682C12.5171 11.1736 12.8466 12.1381 13.466 12.9613C14.0866 13.7839 15.0381 14.4387 16.3217 14.9257L16.4688 19.2147C16.1128 19.0094 15.7849 18.696 15.4871 18.2767C15.2382 17.9285 15.05 17.5335 14.9243 17.0912C14.8822 16.9452 14.7575 16.8371 14.5865 16.8251L12.6511 16.8849C12.4735 16.8907 12.3534 17.057 12.3944 17.2451C12.6527 18.4419 13.1131 19.4023 13.7753 20.1278C14.5007 20.9224 15.4274 21.4369 16.5535 21.6718L16.6091 23.2922C16.6138 23.4263 16.7214 23.5437 16.8492 23.5541L17.7966 23.632C17.9244 23.6424 18.0242 23.5421 18.0195 23.4075L17.9623 21.7362C19.2205 21.6489 20.1898 21.2108 20.87 20.4224C21.5519 19.6351 21.871 18.6233 21.8283 17.3875Z" fill="#388E00"/>
<path d="M17.8154 23.4506C17.8143 23.4506 17.8131 23.4506 17.8118 23.4505L16.8639 23.3729C16.8315 23.3702 16.7923 23.3316 16.7908 23.2857L16.778 22.913C16.8006 22.9224 16.8246 22.9284 16.8493 22.9304L17.7967 23.0084C17.8029 23.0089 17.8091 23.0092 17.8151 23.0092C17.8181 23.0092 17.821 23.0091 17.8239 23.0089L17.8378 23.4137C17.8383 23.428 17.8348 23.4401 17.8284 23.4461C17.827 23.4476 17.8237 23.4506 17.8154 23.4506ZM17.8504 21.5925L17.8442 21.4111C17.8383 21.2377 17.9661 21.0881 18.1384 21.0682C19.2683 20.9377 20.2454 20.5227 20.8701 19.7988C21.1527 19.4724 21.373 19.1075 21.531 18.7041C21.3896 19.3173 21.1229 19.8525 20.7327 20.3035C20.0881 21.0502 19.1518 21.4711 17.9496 21.5546C17.9121 21.5572 17.878 21.571 17.8504 21.5925ZM16.6639 21.5274C16.6427 21.5113 16.6179 21.4997 16.5906 21.4939C15.5069 21.2675 14.6049 20.7665 13.9095 20.0053C13.3417 19.3829 12.9227 18.5679 12.6614 17.5784C12.9287 18.3417 13.3001 18.9835 13.7754 19.5041C14.4616 20.2558 15.4459 20.7825 16.5035 21.0361C16.6091 21.0614 16.6815 21.1585 16.6763 21.2669L16.6639 21.5274ZM19.4318 16.6574C19.3637 16.5101 19.2792 16.3697 19.1784 16.2367C18.8916 15.8593 18.432 15.5478 17.8123 15.3109C17.7913 15.3029 17.7692 15.2989 17.7473 15.2989C17.7279 15.2989 17.7085 15.3021 17.69 15.3082L17.6811 15.1515C17.6747 15.0401 17.765 14.9546 17.8667 14.9546C17.8912 14.9546 17.9165 14.9596 17.9411 14.9704C18.4119 15.1767 18.8088 15.4275 19.0335 15.7229C19.2448 16.0016 19.3777 16.3131 19.4318 16.6574ZM16.4689 14.8186C16.4685 14.8181 16.4681 14.8175 16.4677 14.817V14.8169C16.4676 14.8169 16.4676 14.8169 16.4676 14.8169C16.4475 14.7899 16.4212 14.7699 16.3919 14.7577C16.39 14.7569 16.3881 14.7561 16.3862 14.7554C15.1414 14.2834 14.2079 13.6429 13.6115 12.8517C13.2257 12.3394 12.9555 11.7641 12.8035 11.133C12.9649 11.5635 13.1858 11.965 13.4661 12.3377C14.0456 13.1059 15.042 13.7828 16.2167 14.2656C16.369 14.3281 16.4689 14.476 16.4689 14.6406V14.8186ZM19.0069 10.1479C18.9218 10.1395 18.8619 10.0965 18.8417 10.0286C18.6247 9.30406 18.2057 8.77318 17.5967 8.45078C17.5699 8.43662 17.5407 8.42958 17.5115 8.42958C17.4957 8.42958 17.4799 8.43166 17.4647 8.43574L17.4831 8.25831C17.4928 8.16535 17.572 8.10278 17.6553 8.10278C17.6875 8.10278 17.7204 8.11215 17.7501 8.13271C18.1886 8.43647 18.4939 8.87814 18.6677 9.45702C18.7087 9.5963 18.8335 9.69502 19.0049 9.70646L20.8446 9.60398C20.8754 9.70222 20.9037 9.80255 20.9297 9.90471C20.94 9.94543 20.9344 9.98446 20.9143 10.0117C20.8991 10.0323 20.8781 10.0435 20.8513 10.0449L19.0069 10.1479ZM14.9195 9.22006C14.9536 8.94414 15.0503 8.69198 15.2102 8.46334C15.3842 8.2139 15.6898 8.05118 15.9998 7.94222C16.0182 7.93574 16.0367 7.93278 16.0547 7.93278C16.1433 7.93278 16.2215 8.0051 16.2215 8.10054V8.33006C16.217 8.32606 16.2123 8.32222 16.2073 8.31854C16.1759 8.29542 16.1382 8.28342 16.1 8.28342C16.0835 8.28342 16.0671 8.28566 16.0509 8.29014C15.6331 8.40694 15.2999 8.63999 15.0608 8.98271C15.0074 9.05927 14.9603 9.13838 14.9195 9.22006Z" fill="#2B6F04"/>
<path d="M21.2719 15.6063C20.5685 14.3968 19.315 13.6363 17.8357 13.0597C17.7414 13.023 17.6762 12.9357 17.6691 12.8347L17.6677 12.8149C19.1553 13.3649 20.1907 14.0031 20.7456 14.7122C20.9583 14.9843 21.1339 15.2827 21.2719 15.6063Z" fill="#AFD299"/>
<path d="M17.9778 19.7992C17.8852 19.7992 17.8051 19.7278 17.7966 19.6329C17.8235 19.6477 17.8537 19.6555 17.8845 19.6555C17.8915 19.6555 17.8983 19.6551 17.9053 19.6544C18.4337 19.5935 18.8649 19.3651 19.187 18.9754L19.1871 18.9753C19.3795 18.7419 19.5113 18.4758 19.5815 18.1799C19.5486 18.571 19.4139 18.9099 19.1764 19.1975C18.9257 19.5009 18.4495 19.7078 18.0139 19.7956C18.0017 19.798 17.9896 19.7992 17.9778 19.7992ZM12.5943 17.3058C12.5868 17.2726 12.5795 17.2394 12.5722 17.206C12.5632 17.165 12.5702 17.1261 12.5911 17.0993C12.6071 17.0786 12.6292 17.0678 12.6567 17.067L14.5816 17.0072C14.6663 17.0158 14.7271 17.0645 14.7493 17.141C14.7519 17.1499 14.7544 17.1588 14.757 17.1678C14.7438 17.1655 14.7303 17.1639 14.7165 17.163L12.7811 17.2227C12.7059 17.2251 12.6411 17.2563 12.5943 17.3058ZM12.6923 9.31663C12.7849 8.58143 13.0631 7.95647 13.5235 7.45239C14.1302 6.78807 14.9726 6.43919 16.0273 6.41551C16.0705 6.41455 16.1116 6.39831 16.1437 6.36999C16.1306 6.48375 16.0369 6.57367 15.9189 6.58175C14.9181 6.65007 14.118 7.01191 13.5191 7.66775C13.0977 8.12887 12.822 8.67863 12.6923 9.31663ZM19.6271 7.61535C19.0627 7.19399 18.3399 6.89063 17.5804 6.71423C17.4914 6.69351 17.4262 6.61943 17.4138 6.53079C18.3063 6.71767 19.0497 7.08215 19.6271 7.61535ZM16.1853 5.65239L16.1794 5.47959C16.1787 5.45903 16.1841 5.44207 16.1947 5.43191C16.2015 5.42543 16.2102 5.42207 16.2211 5.42207C16.223 5.42207 16.2248 5.42215 16.2267 5.42231L17.1319 5.49647C17.1795 5.50031 17.2246 5.55335 17.2264 5.60767L17.2278 5.64895L16.3717 5.57863C16.365 5.57807 16.3583 5.57775 16.3518 5.57775C16.2847 5.57775 16.2259 5.60591 16.1853 5.65239Z" fill="#AFD299"/>
<path d="M15.9267 8.71997C15.694 8.82357 15.507 8.97901 15.3591 9.19093C15.1646 9.46957 15.0761 9.77942 15.0885 10.1382C15.0997 10.4676 15.203 10.7749 15.4042 11.0777C15.5546 11.3035 15.7638 11.506 16.0284 11.682L15.9267 8.71997ZM16.2216 12.1893C16.1925 12.1893 16.1633 12.1824 16.1367 12.1684C15.6835 11.9295 15.3351 11.6303 15.1013 11.2792C14.865 10.9234 14.7383 10.5438 14.7249 10.1507C14.7099 9.71646 14.823 9.3235 15.0609 8.9827C15.3 8.63998 15.6332 8.40693 16.0509 8.29013C16.1047 8.27501 16.1623 8.28549 16.2073 8.31853C16.2524 8.35149 16.2798 8.40334 16.2817 8.4591L16.4033 12.0013C16.4056 12.0661 16.3731 12.1271 16.3181 12.1616C16.2887 12.1801 16.2551 12.1893 16.2216 12.1893ZM17.9389 15.7578L18.0593 19.2605C18.4049 19.1839 18.6833 19.0137 18.9065 18.7437C19.1716 18.4222 19.2926 18.0373 19.2765 17.567C19.2621 17.1509 19.1317 16.7772 18.8887 16.4566C18.6832 16.1861 18.3643 15.9516 17.9389 15.7578ZM17.8845 19.6555C17.8413 19.6555 17.799 19.6401 17.7659 19.6114C17.7274 19.5783 17.7045 19.5306 17.7028 19.4799L17.5657 15.4871C17.5636 15.4261 17.5921 15.3682 17.6417 15.3328C17.6913 15.2973 17.7554 15.2892 17.8124 15.3109C18.4321 15.5478 18.8917 15.8593 19.1785 16.2367C19.4679 16.6185 19.6231 17.0618 19.6401 17.5545C19.6591 18.1097 19.5067 18.5877 19.1872 18.9753L19.187 18.9754C18.8649 19.3651 18.4337 19.5935 17.9053 19.6544C17.8984 19.6551 17.8915 19.6555 17.8845 19.6555ZM14.5817 17.0072L12.6567 17.0669C12.6293 17.0677 12.6072 17.0786 12.5911 17.0993C12.5702 17.1261 12.5633 17.1649 12.5722 17.206C12.8221 18.3649 13.272 19.3065 13.9096 20.0053C14.6049 20.7665 15.5069 21.2675 16.5906 21.4939C16.6726 21.5111 16.7323 21.582 16.7352 21.6657L16.7909 23.2857C16.7924 23.3316 16.8315 23.3702 16.864 23.3729L17.8118 23.4505C17.8229 23.4515 17.8269 23.4478 17.8285 23.4461C17.8349 23.4401 17.8384 23.428 17.8378 23.4137L17.7805 21.7423C17.7771 21.6444 17.8519 21.5613 17.9497 21.5546C19.1518 21.4711 20.0881 21.0502 20.7327 20.3035C21.3798 19.5557 21.6873 18.5767 21.6466 17.3937C21.6101 16.3327 21.3071 15.4305 20.7457 14.7121C20.1808 13.9902 19.118 13.3419 17.5869 12.7852C17.5172 12.7598 17.4698 12.6947 17.4673 12.6205L17.3298 8.61782C17.3276 8.55286 17.3601 8.49173 17.4151 8.45733C17.4701 8.42285 17.5393 8.42037 17.5967 8.45077C18.2057 8.77317 18.6247 9.30406 18.8417 10.0286C18.8619 10.0965 18.9218 10.1395 19.0069 10.1479L20.8513 10.0449C20.8781 10.0435 20.8992 10.0323 20.9144 10.0117C20.9345 9.98445 20.9401 9.94542 20.9297 9.9047C20.7149 9.05862 20.3352 8.34598 19.8013 7.78662C19.1989 7.15606 18.3899 6.73229 17.3971 6.52725C17.3149 6.51029 17.255 6.43926 17.2521 6.35542L17.2265 5.60766C17.2246 5.55334 17.1795 5.5003 17.1319 5.49646L16.2268 5.42229C16.2132 5.42101 16.2027 5.42437 16.1948 5.43189C16.1841 5.44205 16.1787 5.45902 16.1794 5.47958L16.2051 6.22742C16.2067 6.27598 16.1889 6.32317 16.1555 6.35853C16.1221 6.39389 16.076 6.41438 16.0273 6.4155C14.9726 6.43918 14.1302 6.78806 13.5235 7.45238C12.9146 8.11909 12.6244 8.99709 12.6609 10.062C12.6973 11.1238 13.0172 12.0625 13.6115 12.8517C14.2079 13.6429 15.1414 14.2834 16.3862 14.7554C16.4548 14.7813 16.501 14.846 16.5035 14.9193L16.6509 19.2083C16.6531 19.2744 16.6193 19.3365 16.5627 19.3705C16.506 19.4045 16.4354 19.4052 16.3781 19.3721C16.0011 19.1546 15.6514 18.8215 15.3388 18.3822C15.0786 18.0179 14.8802 17.6002 14.7493 17.1409C14.7272 17.0645 14.6663 17.0158 14.5817 17.0072ZM17.8157 23.8145C17.8046 23.8145 17.7933 23.814 17.7821 23.813L16.8344 23.7354C16.6139 23.7174 16.4351 23.5254 16.4273 23.2982L16.3765 21.8192C15.2784 21.5637 14.3586 21.0363 13.6409 20.2505C12.9593 19.5035 12.4802 18.5052 12.2168 17.2831C12.1847 17.1365 12.2166 16.9878 12.3044 16.8754C12.3865 16.7701 12.511 16.7073 12.6457 16.7033L14.5808 16.6433C14.5869 16.643 14.5931 16.6432 14.5993 16.6437C14.8381 16.6605 15.0342 16.8163 15.099 17.0406C15.2186 17.4604 15.3989 17.8405 15.635 18.1711C15.8349 18.4519 16.0492 18.6833 16.2749 18.8624L16.1441 15.0519C14.8902 14.5592 13.9409 13.893 13.3209 13.0707C12.6808 12.2204 12.3365 11.2124 12.2973 10.0745C12.2574 8.91117 12.5796 7.94646 13.2549 7.2071C13.895 6.50614 14.7625 6.12038 15.8353 6.0591L15.8158 5.49213C15.8116 5.36821 15.8581 5.25029 15.9437 5.16869C16.0274 5.08877 16.1386 5.04981 16.2565 5.05973L17.1617 5.13382C17.3936 5.15286 17.5817 5.35549 17.5901 5.59509L17.6108 6.20158C18.6139 6.43222 19.4388 6.88054 20.0645 7.53542C20.6421 8.14062 21.0518 8.90773 21.2823 9.81525C21.3195 9.96189 21.2921 10.1121 21.2073 10.2273C21.1282 10.3349 21.0057 10.4009 20.8713 10.4081L19.0149 10.5118C19.0074 10.5123 19.0001 10.5122 18.9927 10.5117C18.7493 10.4956 18.5578 10.3503 18.4932 10.1326C18.3384 9.61606 18.0793 9.2255 17.7051 8.9475L17.8266 12.4858C19.3613 13.0571 20.4395 13.7305 21.0323 14.4881L21.0324 14.4881C21.6421 15.2683 21.9711 16.2417 22.0102 17.3812C22.0541 18.6588 21.7169 19.7221 21.0079 20.5414C20.33 21.3268 19.369 21.7844 18.15 21.9029L18.2014 23.4013C18.2054 23.5194 18.161 23.6317 18.0796 23.7094C18.0079 23.7778 17.9152 23.8145 17.8157 23.8145Z" fill="#0E260C"/>
<path d="M14.4162 16.3149C14.356 16.3149 14.297 16.285 14.2625 16.2303C14.2086 16.1455 14.2338 16.0331 14.3187 15.9794L16.2244 14.7718C16.3092 14.7181 16.4217 14.7433 16.4753 14.8282C16.5292 14.913 16.504 15.0254 16.4191 15.0791L14.5134 16.2866C14.4833 16.3058 14.4496 16.3149 14.4162 16.3149Z" fill="#0E260C"/>
<path d="M14.6077 16.4166L14.6013 16.2309L16.1508 15.2491L16.1821 16.1622L14.6077 16.4166Z" fill="#1E3714"/>
<path d="M14.427 16.4457L14.4224 16.3148C14.4536 16.3137 14.485 16.3045 14.5133 16.2866L14.6013 16.2309L14.6077 16.4165L14.427 16.4457Z" fill="#0E260C"/>
<path d="M16.1821 16.1622L16.1508 15.2491L16.329 15.1362L16.3633 16.133L16.1821 16.1622Z" fill="#0E260C"/>
<path d="M14.396 15.9304C13.1933 15.4616 12.2885 14.8324 11.7058 14.0593C11.5601 13.8658 11.4309 13.6633 11.3184 13.4523L12.8877 12.3873C13.0126 12.6251 13.1571 12.8531 13.3209 13.0707C13.904 13.8442 14.7786 14.4795 15.9239 14.9623L14.396 15.9304Z" fill="#1E3714"/>
<path d="M14.2466 16.0669C13.0483 15.5879 12.1533 14.9551 11.5604 14.1685C11.4128 13.9721 11.2814 13.7679 11.1665 13.5553L11.3183 13.4523C11.4309 13.6633 11.5601 13.8658 11.7058 14.0593C12.2885 14.8324 13.1933 15.4616 14.3959 15.9304L14.3187 15.9794C14.2846 16.001 14.2601 16.032 14.2466 16.0669Z" fill="#0E260C"/>
<path d="M15.9239 14.9622C14.7786 14.4795 13.904 13.8441 13.3209 13.0707C13.1571 12.8531 13.0126 12.6251 12.8877 12.3873L13.039 12.2846H13.0395C13.1616 12.5201 13.304 12.7456 13.4661 12.9613C14.0523 13.7384 14.9338 14.3657 16.1116 14.8433L15.9239 14.9622Z" fill="#0E260C"/>
<path d="M14.4224 16.3148L14.4161 16.133C14.3589 16.1113 14.3024 16.0893 14.2466 16.0669C14.2601 16.032 14.2846 16.001 14.3187 15.9794L14.3959 15.9304L15.9239 14.9623L16.1116 14.8433C16.1807 14.8713 16.2507 14.8987 16.3218 14.9257L16.3291 15.1362L16.1508 15.2491L14.6014 16.2309L14.5134 16.2867C14.4851 16.3046 14.4537 16.3138 14.4224 16.3148Z" fill="#0E260C"/>
<path d="M15.1379 10.4913C15.1089 10.376 15.0925 10.2586 15.0884 10.1382C15.076 9.77943 15.1646 9.46959 15.3591 9.19095C15.507 8.97903 15.6939 8.82359 15.9267 8.71999L15.9568 9.59919C15.7303 9.67559 15.3027 9.89535 15.1379 10.4913Z" fill="#1E3714"/>
<path d="M15.0972 10.6788C15.0972 10.6788 14.4941 9.09133 16.0141 8.59885L16.1027 9.56149C16.1027 9.56149 16.045 9.56949 15.9568 9.59917L15.9266 8.71997C15.6939 8.82357 15.507 8.97901 15.359 9.19093C15.1646 9.46957 15.076 9.77941 15.0884 10.1382C15.0925 10.2585 15.1089 10.376 15.1379 10.4913C15.1216 10.5501 15.1079 10.6125 15.0972 10.6788Z" fill="#0E260C"/>
<path d="M17.7864 11.3171L17.7051 8.94754C18.0792 9.22554 18.3384 9.6161 18.4932 10.1327C18.5322 10.2641 18.6175 10.3691 18.7325 10.4353L17.8132 11.3156L17.7864 11.3171Z" fill="#1E3814"/>
<path d="M17.7872 11.3404L17.7864 11.3171L17.8131 11.3156L17.7872 11.3404Z" fill="#0E260C"/>
<path d="M17.6111 11.5091L17.6991 8.72221L18.3564 9.38789L18.6516 9.84733L18.8729 10.3009L18.7325 10.4353C18.6175 10.3691 18.5322 10.2641 18.4932 10.1326C18.3384 9.61605 18.0792 9.22549 17.7051 8.94749L17.7864 11.3171L17.7872 11.3404L17.6111 11.5091Z" fill="#0E260C"/>
<path d="M14.8488 23.4377L14.8295 22.8732C14.8266 22.7895 14.7669 22.7186 14.6849 22.7014C13.7002 22.4956 12.8655 22.0632 12.1995 21.4147L13.5552 20.1541C13.5834 20.1866 13.6119 20.2188 13.6408 20.2505C14.3586 21.0363 15.2783 21.5637 16.3764 21.8192L16.3973 22.4272L14.8488 23.4377Z" fill="#1E3814"/>
<path d="M14.6712 23.5535L14.6478 22.8795C13.6209 22.6649 12.7598 22.2179 12.066 21.5387L12.1994 21.4147C12.8654 22.0632 13.7001 22.4956 14.6848 22.7014C14.7668 22.7186 14.8265 22.7895 14.8294 22.8732L14.8488 23.4377L14.6712 23.5535Z" fill="#0E260C"/>
<path d="M16.3973 22.4272L16.3764 21.8192C15.2783 21.5637 14.3585 21.0363 13.6408 20.2505C13.6119 20.2188 13.5833 20.1866 13.5552 20.1541L13.6885 20.0301H13.689C13.7171 20.0633 13.7462 20.0955 13.7753 20.1277C14.5008 20.9224 15.4274 21.4369 16.5536 21.6717L16.5753 22.3109L16.3973 22.4272Z" fill="#0E260C"/>
<path d="M14.793 24.8746C14.7344 24.8746 14.6769 24.8463 14.6418 24.794C14.5858 24.7106 14.6082 24.5976 14.6916 24.5416L16.5588 23.2898C16.6422 23.2341 16.7552 23.2562 16.8112 23.3397C16.8671 23.423 16.8449 23.5361 16.7614 23.592L14.8942 24.8438C14.863 24.8646 14.8278 24.8746 14.793 24.8746Z" fill="#0E260C"/>
</svg>
